<svg xmlns="http://www.w3.org/2000/svg" xmlns:xlink="http://www.w3.org/1999/xlink" version="1.1" class="marks" width="440" height="647" viewBox="0 0 440 647"><rect width="440" height="647" fill="white"/><g fill="none" stroke-miterlimit="10" transform="translate(34,25)"><g class="mark-group role-frame root" role="graphics-object" aria-roledescription="group mark container"><g transform="translate(0,0)"><path class="background" aria-hidden="true" d="M0,0h0v0h0Z"/><g><g class="mark-group role-scope concat_0_group" role="graphics-object" aria-roledescription="group mark container"><g transform="translate(0,0)"><path class="background" aria-hidden="true" d="M0.5,0.5h400v150h-400Z" stroke="#ddd"/><g><g class="mark-group role-axis" role="graphics-symbol" aria-roledescription="axis" aria-label="X-axis for a linear scale with values from 0.0 to 1.0"><g transform="translate(0.5,150.5)"><path class="background" aria-hidden="true" d="M0,0h0v0h0Z" pointer-events="none"/><g><g class="mark-rule role-axis-grid" pointer-events="none"><line transform="translate(13,-150)" x2="0" y2="150" stroke="#ddd" stroke-width="1" opacity="1"/><line transform="translate(50,-150)" x2="0" y2="150" stroke="#ddd" stroke-width="1" opacity="1"/><line transform="translate(88,-150)" x2="0" y2="150" stroke="#ddd" stroke-width="1" opacity="1"/><line transform="translate(125,-150)" x2="0" y2="150" stroke="#ddd" stroke-width="1" opacity="1"/><line transform="translate(163,-150)" x2="0" y2="150" stroke="#ddd" stroke-width="1" opacity="1"/><line transform="translate(200,-150)" x2="0" y2="150" stroke="#ddd" stroke-width="1" opacity="1"/><line transform="translate(238,-150)" x2="0" y2="150" stroke="#ddd" stroke-width="1" opacity="1"/><line transform="translate(275,-150)" x2="0" y2="150" stroke="#ddd" stroke-width="1" opacity="1"/><line transform="translate(313,-150)" x2="0" y2="150" stroke="#ddd" stroke-width="1" opacity="1"/><line transform="translate(350,-150)" x2="0" y2="150" stroke="#ddd" stroke-width="1" opacity="1"/><line transform="translate(388,-150)" x2="0" y2="150" stroke="#ddd" stroke-width="1" opacity="1"/></g></g><path class="foreground" aria-hidden="true" d="" pointer-events="none" display="none"/></g></g><g class="mark-group role-axis" role="graphics-symbol" aria-roledescription="axis" aria-label="Y-axis for a linear scale with values from 0.00 to 0.22"><g transform="translate(0.5,0.5)"><path class="background" aria-hidden="true" d="M0,0h0v0h0Z" pointer-events="none"/><g><g class="mark-rule role-axis-grid" pointer-events="none"><line transform="translate(0,150)" x2="400" y2="0" stroke="#ddd" stroke-width="1" opacity="1"/><line transform="translate(0,116)" x2="400" y2="0" stroke="#ddd" stroke-width="1" opacity="1"/><line transform="translate(0,82)" x2="400" y2="0" stroke="#ddd" stroke-width="1" opacity="1"/><line transform="translate(0,48)" x2="400" y2="0" stroke="#ddd" stroke-width="1" opacity="1"/><line transform="translate(0,14)" x2="400" y2="0" stroke="#ddd" stroke-width="1" opacity="1"/></g></g><path class="foreground" aria-hidden="true" d="" pointer-events="none" display="none"/></g></g><g class="mark-group role-axis" role="graphics-symbol" aria-roledescription="axis" aria-label="X-axis for a linear scale with values from −0.03 to 1.03"><g transform="translate(0.5,150.5)"><path class="background" aria-hidden="true" d="M0,0h0v0h0Z" pointer-events="none"/><g><g class="mark-rule role-axis-tick" pointer-events="none"><line transform="translate(13,0)" x2="0" y2="5" stroke="#888" stroke-width="1" opacity="1"/><line transform="translate(50,0)" x2="0" y2="5" stroke="#888" stroke-width="1" opacity="1"/><line transform="translate(88,0)" x2="0" y2="5" stroke="#888" stroke-width="1" opacity="1"/><line transform="translate(125,0)" x2="0" y2="5" stroke="#888" stroke-width="1" opacity="1"/><line transform="translate(163,0)" x2="0" y2="5" stroke="#888" stroke-width="1" opacity="1"/><line transform="translate(200,0)" x2="0" y2="5" stroke="#888" stroke-width="1" opacity="1"/><line transform="translate(238,0)" x2="0" y2="5" stroke="#888" stroke-width="1" opacity="1"/><line transform="translate(275,0)" x2="0" y2="5" stroke="#888" stroke-width="1" opacity="1"/><line transform="translate(313,0)" x2="0" y2="5" stroke="#888" stroke-width="1" opacity="1"/><line transform="translate(350,0)" x2="0" y2="5" stroke="#888" stroke-width="1" opacity="1"/><line transform="translate(388,0)" x2="0" y2="5" stroke="#888" stroke-width="1" opacity="1"/></g><g class="mark-text role-axis-label" pointer-events="none"><text text-anchor="end" transform="translate(12.5,7) rotate(-45) translate(0,8)" font-family="sans-serif" font-size="10px" fill="#000" opacity="1">0.00</text><text text-anchor="end" transform="translate(50.000000000000014,7) rotate(-45) translate(0,8)" font-family="sans-serif" font-size="10px" fill="#000" opacity="1">0.10</text><text text-anchor="end" transform="translate(87.50000000000003,7) rotate(-45) translate(0,8)" font-family="sans-serif" font-size="10px" fill="#000" opacity="1">0.20</text><text text-anchor="end" transform="translate(125.00000000000003,7) rotate(-45) translate(0,8)" font-family="sans-serif" font-size="10px" fill="#000" opacity="1">0.30</text><text text-anchor="end" transform="translate(162.50000000000006,7) rotate(-45) translate(0,8)" font-family="sans-serif" font-size="10px" fill="#000" opacity="1">0.40</text><text text-anchor="end" transform="translate(200.00000000000006,7) rotate(-45) translate(0,8)" font-family="sans-serif" font-size="10px" fill="#000" opacity="1">0.50</text><text text-anchor="end" transform="translate(237.50000000000006,7) rotate(-45) translate(0,8)" font-family="sans-serif" font-size="10px" fill="#000" opacity="1">0.60</text><text text-anchor="end" transform="translate(275.00000000000006,7) rotate(-45) translate(0,8)" font-family="sans-serif" font-size="10px" fill="#000" opacity="1">0.70</text><text text-anchor="end" transform="translate(312.5000000000001,7) rotate(-45) translate(0,8)" font-family="sans-serif" font-size="10px" fill="#000" opacity="1">0.80</text><text text-anchor="end" transform="translate(350.0000000000001,7) rotate(-45) translate(0,8)" font-family="sans-serif" font-size="10px" fill="#000" opacity="1">0.90</text><text text-anchor="end" transform="translate(387.50000000000006,7) rotate(-45) translate(0,8)" font-family="sans-serif" font-size="10px" fill="#000" opacity="1">1.00</text></g><g class="mark-rule role-axis-domain" pointer-events="none"><line transform="translate(0,0)" x2="400" y2="0" stroke="#888" stroke-width="1" opacity="1"/></g></g><path class="foreground" aria-hidden="true" d="" pointer-events="none" display="none"/></g></g><g class="mark-group role-axis" role="graphics-symbol" aria-roledescription="axis" aria-label="Y-axis for a linear scale with values from 0% to 22%"><g transform="translate(0.5,0.5)"><path class="background" aria-hidden="true" d="M0,0h0v0h0Z" pointer-events="none"/><g><g class="mark-rule role-axis-tick" pointer-events="none"><line transform="translate(0,150)" x2="-5" y2="0" stroke="#888" stroke-width="1" opacity="1"/><line transform="translate(0,116)" x2="-5" y2="0" stroke="#888" stroke-width="1" opacity="1"/><line transform="translate(0,82)" x2="-5" y2="0" stroke="#888" stroke-width="1" opacity="1"/><line transform="translate(0,48)" x2="-5" y2="0" stroke="#888" stroke-width="1" opacity="1"/><line transform="translate(0,14)" x2="-5" y2="0" stroke="#888" stroke-width="1" opacity="1"/></g><g class="mark-text role-axis-label" pointer-events="none"><text text-anchor="end" transform="translate(-7,153)" font-family="sans-serif" font-size="10px" fill="#000" opacity="1">0%</text><text text-anchor="end" transform="translate(-7,118.9090909090909)" font-family="sans-serif" font-size="10px" fill="#000" opacity="1">5%</text><text text-anchor="end" transform="translate(-7,84.81818181818181)" font-family="sans-serif" font-size="10px" fill="#000" opacity="1">10%</text><text text-anchor="end" transform="translate(-7,50.727272727272734)" font-family="sans-serif" font-size="10px" fill="#000" opacity="1">15%</text><text text-anchor="end" transform="translate(-7,16.636363636363626)" font-family="sans-serif" font-size="10px" fill="#000" opacity="1">20%</text></g><g class="mark-rule role-axis-domain" pointer-events="none"><line transform="translate(0,150)" x2="0" y2="-150" stroke="#888" stroke-width="1" opacity="1"/></g></g><path class="foreground" aria-hidden="true" d="" pointer-events="none" display="none"/></g></g><g class="mark-rect role-mark concat_0_layer_0_marks" role="graphics-symbol" aria-roledescription="rect mark container"><path d="M5,22.778227631412847h15v127.22177236858715h-15Z" fill="#4c78a8"/><path d="M12.500000000000004,7.838126583681493h15v142.1618734163185h-15Z" fill="#4c78a8"/><path d="M20.000000000000007,57.73275307345819h15v92.26724692654182h-15Z" fill="#4c78a8"/><path d="M27.5,82.07103206002519h15v67.92896793997481h-15Z" fill="#4c78a8"/><path d="M35.00000000000001,100.61338312853874h15v49.38661687146126h-15Z" fill="#4c78a8"/><path d="M42.500000000000014,120.01011400967374h15v29.989885990326258h-15Z" fill="#4c78a8"/><path d="M50.00000000000001,123.05239888299462h15v26.947601117005377h-15Z" fill="#4c78a8"/><path d="M57.500000000000014,124.36283278478557h15v25.637167215214433h-15Z" fill="#4c78a8"/><path d="M65.00000000000001,129.27551670735875h15v20.724483292641253h-15Z" fill="#4c78a8"/><path d="M72.50000000000001,132.31202874410786h15v17.687971255892137h-15Z" fill="#4c78a8"/><path d="M80.00000000000003,138.70255882905323h15v11.297441170946769h-15Z" fill="#4c78a8"/><path d="M87.5,141.52547591264698h15v8.474524087353018h-15Z" fill="#4c78a8"/><path d="M95.00000000000001,143.07836895045213h15v6.9216310495478695h-15Z" fill="#4c78a8"/><path d="M102.50000000000003,144.13479804308537h15v5.865201956914632h-15Z" fill="#4c78a8"/><path d="M110.00000000000003,144.24448193794893h15v5.755518062051067h-15Z" fill="#4c78a8"/><path d="M117.50000000000003,144.34839299624073h15v5.651607003759267h-15Z" fill="#4c78a8"/><path d="M125.00000000000003,145.2143184820057h15v4.7856815179943055h-15Z" fill="#4c78a8"/><path d="M132.50000000000003,145.82046632204117h15v4.17953367795883h-15Z" fill="#4c78a8"/><path d="M140.00000000000003,146.28806608435423h15v3.7119339156457727h-15Z" fill="#4c78a8"/><path d="M147.50000000000003,146.62289060551666h15v3.377109394483341h-15Z" fill="#4c78a8"/><path d="M155.00000000000006,147.36181368670276h15v2.63818631329724h-15Z" fill="#4c78a8"/><path d="M162.50000000000003,147.50613460099692h15v2.4938653990030843h-15Z" fill="#4c78a8"/><path d="M170.00000000000003,147.76013941015466h15v2.2398605898453354h-15Z" fill="#4c78a8"/><path d="M177.50000000000006,148.0949639313171h15v1.9050360686829038h-15Z" fill="#4c78a8"/><path d="M185.00000000000003,148.1122824410324h15v1.8877175589676085h-15Z" fill="#4c78a8"/><path d="M192.50000000000006,148.5452451839149h15v1.4547548160851136h-15Z" fill="#4c78a8"/><path d="M200.00000000000006,148.63761056906313h15v1.3623894309368723h-15Z" fill="#4c78a8"/><path d="M207.50000000000009,148.86275119536202h15v1.1372488046379772h-15Z" fill="#4c78a8"/><path d="M215.00000000000006,148.83965984907496h15v1.1603401509250375h-15Z" fill="#4c78a8"/><path d="M222.50000000000003,149.08211898508915h15v0.9178810149108472h-15Z" fill="#4c78a8"/><path d="M230.00000000000006,149.27262259195743h15v0.727377408042571h-15Z" fill="#4c78a8"/><path d="M237.50000000000006,149.42271634282338h15v0.577283657176622h-15Z" fill="#4c78a8"/><path d="M245.00000000000009,149.49199038168456h15v0.508009618315441h-15Z" fill="#4c78a8"/><path d="M252.50000000000006,149.69981249826813h15v0.3001875017318696h-15Z" fill="#4c78a8"/><path d="M260.00000000000006,149.71713100798345h15v0.2828689920165459h-15Z" fill="#4c78a8"/><path d="M267.5000000000001,149.80949639313172h15v0.19050360686827617h-15Z" fill="#4c78a8"/><path d="M275.00000000000006,149.89031610513643h15v0.109683894863565h-15Z" fill="#4c78a8"/><path d="M282.50000000000006,149.8960889417082h15v0.10391105829179992h-15Z" fill="#4c78a8"/><path d="M290.00000000000006,149.93649879771056h15v0.06350120228944434h-15Z" fill="#4c78a8"/><path d="M297.50000000000006,149.95959014399764h15v0.04040985600235558h-15Z" fill="#4c78a8"/><path d="M305.0000000000001,149.95381730742585h15v0.04618269257414909h-15Z" fill="#4c78a8"/><path d="M312.5000000000001,149.9653629805694h15v0.0346370194305905h-15Z" fill="#4c78a8"/><path d="M320.00000000000006,149.94804447085411h15v0.05195552914588575h-15Z" fill="#4c78a8"/><path d="M327.50000000000006,149.94804447085411h15v0.05195552914588575h-15Z" fill="#4c78a8"/><path d="M335.00000000000006,149.93072596113882h15v0.069274038861181h-15Z" fill="#4c78a8"/><path d="M342.5000000000001,149.9653629805694h15v0.0346370194305905h-15Z" fill="#4c78a8"/><path d="M350.0000000000001,148.97820792679735h15v1.021792073202647h-15Z" fill="#4c78a8"/><path d="M357.50000000000006,149.90763461485173h15v0.09236538514826975h-15Z" fill="#4c78a8"/><path d="M365.00000000000006,149.89031610513643h15v0.109683894863565h-15Z" fill="#4c78a8"/><path d="M372.5,149.76908653712934h15v0.23091346287066017h-15Z" fill="#4c78a8"/></g><g class="mark-rule role-mark concat_0_layer_1_marks" role="graphics-symbol" aria-roledescription="rule mark container"><line transform="translate(50.000000000000014,0)" x2="0" y2="150" stroke="#ff7f0e" stroke-width="1.5" stroke-dasharray="3,2"/></g><g class="mark-rule role-mark concat_0_layer_2_marks" role="graphics-symbol" aria-roledescription="rule mark container"><line transform="translate(31.250000000000007,0)" x2="0" y2="150" stroke="#2ca02c" stroke-width="1.5" stroke-dasharray="3,2"/></g><g class="mark-group role-title"><g transform="translate(200,-18.5)"><path class="background" aria-hidden="true" d="M0,0h0v0h0Z" pointer-events="none"/><g><g class="mark-text role-title-text" role="graphics-symbol" aria-roledescription="title" aria-label="Title text 'Histogram of 'Isolation Forest''" pointer-events="none"><text text-anchor="middle" transform="translate(0,10)" font-family="sans-serif" font-size="13px" font-weight="bold" fill="#000" opacity="1">Histogram of 'Isolation Forest'</text></g></g><path class="foreground" aria-hidden="true" d="" pointer-events="none" display="none"/></g></g></g><path class="foreground" aria-hidden="true" d="" display="none"/></g></g><g class="mark-group role-scope concat_1_group" role="graphics-object" aria-roledescription="group mark container"><g transform="translate(0,219)"><path class="background" aria-hidden="true" d="M0.5,0.5h400v150h-400Z" stroke="#ddd"/><g><g class="mark-group role-axis" role="graphics-symbol" aria-roledescription="axis" aria-label="X-axis for a linear scale with values from 0.0 to 1.0"><g transform="translate(0.5,150.5)"><path class="background" aria-hidden="true" d="M0,0h0v0h0Z" pointer-events="none"/><g><g class="mark-rule role-axis-grid" pointer-events="none"><line transform="translate(12,-150)" x2="0" y2="150" stroke="#ddd" stroke-width="1" opacity="1"/><line transform="translate(50,-150)" x2="0" y2="150" stroke="#ddd" stroke-width="1" opacity="1"/><line transform="translate(87,-150)" x2="0" y2="150" stroke="#ddd" stroke-width="1" opacity="1"/><line transform="translate(125,-150)" x2="0" y2="150" stroke="#ddd" stroke-width="1" opacity="1"/><line transform="translate(162,-150)" x2="0" y2="150" stroke="#ddd" stroke-width="1" opacity="1"/><line transform="translate(200,-150)" x2="0" y2="150" stroke="#ddd" stroke-width="1" opacity="1"/><line transform="translate(237,-150)" x2="0" y2="150" stroke="#ddd" stroke-width="1" opacity="1"/><line transform="translate(275,-150)" x2="0" y2="150" stroke="#ddd" stroke-width="1" opacity="1"/><line transform="translate(312,-150)" x2="0" y2="150" stroke="#ddd" stroke-width="1" opacity="1"/><line transform="translate(350,-150)" x2="0" y2="150" stroke="#ddd" stroke-width="1" opacity="1"/><line transform="translate(387,-150)" x2="0" y2="150" stroke="#ddd" stroke-width="1" opacity="1"/></g></g><path class="foreground" aria-hidden="true" d="" pointer-events="none" display="none"/></g></g><g class="mark-group role-axis" role="graphics-symbol" aria-roledescription="axis" aria-label="Y-axis for a linear scale with values from 0.00 to 0.22"><g transform="translate(0.5,0.5)"><path class="background" aria-hidden="true" d="M0,0h0v0h0Z" pointer-events="none"/><g><g class="mark-rule role-axis-grid" pointer-events="none"><line transform="translate(0,150)" x2="400" y2="0" stroke="#ddd" stroke-width="1" opacity="1"/><line transform="translate(0,116)" x2="400" y2="0" stroke="#ddd" stroke-width="1" opacity="1"/><line transform="translate(0,82)" x2="400" y2="0" stroke="#ddd" stroke-width="1" opacity="1"/><line transform="translate(0,48)" x2="400" y2="0" stroke="#ddd" stroke-width="1" opacity="1"/><line transform="translate(0,14)" x2="400" y2="0" stroke="#ddd" stroke-width="1" opacity="1"/></g></g><path class="foreground" aria-hidden="true" d="" pointer-events="none" display="none"/></g></g><g class="mark-group role-axis" role="graphics-symbol" aria-roledescription="axis" aria-label="X-axis for a linear scale with values from −0.03 to 1.03"><g transform="translate(0.5,150.5)"><path class="background" aria-hidden="true" d="M0,0h0v0h0Z" pointer-events="none"/><g><g class="mark-rule role-axis-tick" pointer-events="none"><line transform="translate(12,0)" x2="0" y2="5" stroke="#888" stroke-width="1" opacity="1"/><line transform="translate(50,0)" x2="0" y2="5" stroke="#888" stroke-width="1" opacity="1"/><line transform="translate(87,0)" x2="0" y2="5" stroke="#888" stroke-width="1" opacity="1"/><line transform="translate(125,0)" x2="0" y2="5" stroke="#888" stroke-width="1" opacity="1"/><line transform="translate(162,0)" x2="0" y2="5" stroke="#888" stroke-width="1" opacity="1"/><line transform="translate(200,0)" x2="0" y2="5" stroke="#888" stroke-width="1" opacity="1"/><line transform="translate(237,0)" x2="0" y2="5" stroke="#888" stroke-width="1" opacity="1"/><line transform="translate(275,0)" x2="0" y2="5" stroke="#888" stroke-width="1" opacity="1"/><line transform="translate(312,0)" x2="0" y2="5" stroke="#888" stroke-width="1" opacity="1"/><line transform="translate(350,0)" x2="0" y2="5" stroke="#888" stroke-width="1" opacity="1"/><line transform="translate(387,0)" x2="0" y2="5" stroke="#888" stroke-width="1" opacity="1"/></g><g class="mark-text role-axis-label" pointer-events="none"><text text-anchor="end" transform="translate(12.386120035882877,7) rotate(-45) translate(0,8)" font-family="sans-serif" font-size="10px" fill="#000" opacity="1">0.00</text><text text-anchor="end" transform="translate(49.8972847382473,7) rotate(-45) translate(0,8)" font-family="sans-serif" font-size="10px" fill="#000" opacity="1">0.10</text><text text-anchor="end" transform="translate(87.40844944061172,7) rotate(-45) translate(0,8)" font-family="sans-serif" font-size="10px" fill="#000" opacity="1">0.20</text><text text-anchor="end" transform="translate(124.91961414297614,7) rotate(-45) translate(0,8)" font-family="sans-serif" font-size="10px" fill="#000" opacity="1">0.30</text><text text-anchor="end" transform="translate(162.4307788453406,7) rotate(-45) translate(0,8)" font-family="sans-serif" font-size="10px" fill="#000" opacity="1">0.40</text><text text-anchor="end" transform="translate(199.941943547705,7) rotate(-45) translate(0,8)" font-family="sans-serif" font-size="10px" fill="#000" opacity="1">0.50</text><text text-anchor="end" transform="translate(237.4531082500694,7) rotate(-45) translate(0,8)" font-family="sans-serif" font-size="10px" fill="#000" opacity="1">0.60</text><text text-anchor="end" transform="translate(274.9642729524338,7) rotate(-45) translate(0,8)" font-family="sans-serif" font-size="10px" fill="#000" opacity="1">0.70</text><text text-anchor="end" transform="translate(312.47543765479827,7) rotate(-45) translate(0,8)" font-family="sans-serif" font-size="10px" fill="#000" opacity="1">0.80</text><text text-anchor="end" transform="translate(349.98660235716267,7) rotate(-45) translate(0,8)" font-family="sans-serif" font-size="10px" fill="#000" opacity="1">0.90</text><text text-anchor="end" transform="translate(387.4977670595272,7) rotate(-45) translate(0,8)" font-family="sans-serif" font-size="10px" fill="#000" opacity="1">1.00</text></g><g class="mark-rule role-axis-domain" pointer-events="none"><line transform="translate(0,0)" x2="400" y2="0" stroke="#888" stroke-width="1" opacity="1"/></g></g><path class="foreground" aria-hidden="true" d="" pointer-events="none" display="none"/></g></g><g class="mark-group role-axis" role="graphics-symbol" aria-roledescription="axis" aria-label="Y-axis for a linear scale with values from 0% to 22%"><g transform="translate(0.5,0.5)"><path class="background" aria-hidden="true" d="M0,0h0v0h0Z" pointer-events="none"/><g><g class="mark-rule role-axis-tick" pointer-events="none"><line transform="translate(0,150)" x2="-5" y2="0" stroke="#888" stroke-width="1" opacity="1"/><line transform="translate(0,116)" x2="-5" y2="0" stroke="#888" stroke-width="1" opacity="1"/><line transform="translate(0,82)" x2="-5" y2="0" stroke="#888" stroke-width="1" opacity="1"/><line transform="translate(0,48)" x2="-5" y2="0" stroke="#888" stroke-width="1" opacity="1"/><line transform="translate(0,14)" x2="-5" y2="0" stroke="#888" stroke-width="1" opacity="1"/></g><g class="mark-text role-axis-label" pointer-events="none"><text text-anchor="end" transform="translate(-7,153)" font-family="sans-serif" font-size="10px" fill="#000" opacity="1">0%</text><text text-anchor="end" transform="translate(-7,118.9090909090909)" font-family="sans-serif" font-size="10px" fill="#000" opacity="1">5%</text><text text-anchor="end" transform="translate(-7,84.81818181818181)" font-family="sans-serif" font-size="10px" fill="#000" opacity="1">10%</text><text text-anchor="end" transform="translate(-7,50.727272727272734)" font-family="sans-serif" font-size="10px" fill="#000" opacity="1">15%</text><text text-anchor="end" transform="translate(-7,16.636363636363626)" font-family="sans-serif" font-size="10px" fill="#000" opacity="1">20%</text></g><g class="mark-rule role-axis-domain" pointer-events="none"><line transform="translate(0,150)" x2="0" y2="-150" stroke="#888" stroke-width="1" opacity="1"/></g></g><path class="foreground" aria-hidden="true" d="" pointer-events="none" display="none"/></g></g><g class="mark-rect role-mark concat_1_layer_0_marks" role="graphics-symbol" aria-roledescription="rect mark container"><path d="M5.002232940472883,26.426660344769193h15v123.57333965523081h-15Z" fill="#4c78a8"/><path d="M12.502143622853964,2.46938857193878h15v147.5306114280612h-15Z" fill="#4c78a8"/><path d="M20.002054305235053,15.983598986443853h15v134.01640101355613h-15Z" fill="#4c78a8"/><path d="M27.501964987616134,75.68627481165159h15v74.31372518834841h-15Z" fill="#4c78a8"/><path d="M35.00187566999722,108.35475697127744h15v41.64524302872256h-15Z" fill="#4c78a8"/><path d="M42.50178635237831,111.65104665375603h15v38.348953346243974h-15Z" fill="#4c78a8"/><path d="M50.00169703475939,115.27638802082532h15v34.72361197917468h-15Z" fill="#4c78a8"/><path d="M57.50160771714047,134.20551913964724h15v15.794480860352763h-15Z" fill="#4c78a8"/><path d="M65.00151839952156,140.00144705770066h15v9.99855294229934h-15Z" fill="#4c78a8"/><path d="M72.50142908190264,142.89941101672738h15v7.1005889832726155h-15Z" fill="#4c78a8"/><path d="M80.00133976428373,144.538896603109h15v5.461103396890991h-15Z" fill="#4c78a8"/><path d="M87.50125044666481,145.34709372315632h15v4.65290627684368h-15Z" fill="#4c78a8"/><path d="M95.00116112904588,145.79737497575408h15v4.202625024245918h-15Z" fill="#4c78a8"/><path d="M102.50107181142698,145.8493305049h15v4.150669495100004h-15Z" fill="#4c78a8"/><path d="M110.0009824938081,145.1104074237139h15v4.889592576286105h-15Z" fill="#4c78a8"/><path d="M117.50089317618917,144.7986742488385h15v5.201325751161505h-15Z" fill="#4c78a8"/><path d="M125.00080385857024,145.7627379563235h15v4.237262043676509h-15Z" fill="#4c78a8"/><path d="M132.50071454095132,146.58825358608607h15v3.4117464139139315h-15Z" fill="#4c78a8"/><path d="M140.0006252233324,147.18862858954978h15v2.8113714104502208h-15Z" fill="#4c78a8"/><path d="M147.5005359057135,147.3906778695616h15v2.609322130438386h-15Z" fill="#4c78a8"/><path d="M155.00044658809458,147.7312752272958h15v2.2687247727041893h-15Z" fill="#4c78a8"/><path d="M162.50035727047566,148.04300840217118h15v1.956991597828818h-15Z" fill="#4c78a8"/><path d="M170.00026795285677,148.48174398162544h15v1.518256018374558h-15Z" fill="#4c78a8"/><path d="M177.50017863523783,148.8338870125032h15v1.1661129874968026h-15Z" fill="#4c78a8"/><path d="M185.00008931761892,148.94357090736676h15v1.0564290926332376h-15Z" fill="#4c78a8"/><path d="M192.5,149.1918028799527h15v0.8081971200473106h-15Z" fill="#4c78a8"/><path d="M199.99991068238108,149.32457812110334h15v0.6754218788966568h-15Z" fill="#4c78a8"/><path d="M207.49982136476214,149.47467187196926h15v0.5253281280307363h-15Z" fill="#4c78a8"/><path d="M214.99973204714325,149.61899278626342h15v0.38100721373658075h-15Z" fill="#4c78a8"/><path d="M222.49964272952437,149.72867668112698h15v0.27132331887301575h-15Z" fill="#4c78a8"/><path d="M229.99955341190545,149.82104206627523h15v0.17895793372477442h-15Z" fill="#4c78a8"/><path d="M237.4994640942865,149.83836057599055h15v0.16163942400945075h-15Z" fill="#4c78a8"/><path d="M244.9993747766676,149.87299759542114h15v0.12700240457886025h-15Z" fill="#4c78a8"/><path d="M252.49928545904868,149.8614519222776h15v0.13854807772239042h-15Z" fill="#4c78a8"/><path d="M259.99919614142976,149.80372355655993h15v0.19627644344006967h-15Z" fill="#4c78a8"/><path d="M267.49910682381085,149.58435576683283h15v0.41564423316717125h-15Z" fill="#4c78a8"/><path d="M274.99901750619193,149.42271634282338h15v0.577283657176622h-15Z" fill="#4c78a8"/><path d="M282.498928188573,149.88454326856467h15v0.11545673143533008h-15Z" fill="#4c78a8"/><path d="M289.9988388709541,149.9134074514235h15v0.08659254857650467h-15Z" fill="#4c78a8"/><path d="M297.4987495533352,149.9826814902847h15v0.01731850971529525h-15Z" fill="#4c78a8"/><path d="M304.9986602357163,149.95381730742585h15v0.04618269257414909h-15Z" fill="#4c78a8"/><path d="M312.49857091809736,149.9653629805694h15v0.0346370194305905h-15Z" fill="#4c78a8"/><path d="M319.99848160047844,149.93649879771056h15v0.06350120228944434h-15Z" fill="#4c78a8"/><path d="M327.4983922828595,149.99422716342823h15v0.005772836571765083h-15Z" fill="#4c78a8"/><path d="M334.99830296524067,149.9826814902847h15v0.01731850971529525h-15Z" fill="#4c78a8"/><path d="M342.4982136476217,149.8787704319929h15v0.12122956800709517h-15Z" fill="#4c78a8"/><path d="M349.9981243300028,149.8787704319929h15v0.12122956800709517h-15Z" fill="#4c78a8"/><path d="M357.49803501238387,149.9134074514235h15v0.08659254857650467h-15Z" fill="#4c78a8"/><path d="M364.99794569476495,150h15v0h-15Z" fill="#4c78a8"/><path d="M372.4978563771461,149.99422716342823h15v0.005772836571765083h-15Z" fill="#4c78a8"/></g><g class="mark-rule role-mark concat_1_layer_1_marks" role="graphics-symbol" aria-roledescription="rule mark container"><line transform="translate(42.395051797774414,0)" x2="0" y2="150" stroke="#ff7f0e" stroke-width="1.5" stroke-dasharray="3,2"/></g><g class="mark-rule role-mark concat_1_layer_2_marks" role="graphics-symbol" aria-roledescription="rule mark container"><line transform="translate(31.14170238706509,0)" x2="0" y2="150" stroke="#2ca02c" stroke-width="1.5" stroke-dasharray="3,2"/></g><g class="mark-group role-title"><g transform="translate(200,-18.5)"><path class="background" aria-hidden="true" d="M0,0h0v0h0Z" pointer-events="none"/><g><g class="mark-text role-title-text" role="graphics-symbol" aria-roledescription="title" aria-label="Title text 'Histogram of 'COPOD''" pointer-events="none"><text text-anchor="middle" transform="translate(0,10)" font-family="sans-serif" font-size="13px" font-weight="bold" fill="#000" opacity="1">Histogram of 'COPOD'</text></g></g><path class="foreground" aria-hidden="true" d="" pointer-events="none" display="none"/></g></g></g><path class="foreground" aria-hidden="true" d="" display="none"/></g></g><g class="mark-group role-scope concat_2_group" role="graphics-object" aria-roledescription="group mark container"><g transform="translate(0,438)"><path class="background" aria-hidden="true" d="M0.5,0.5h400v150h-400Z" stroke="#ddd"/><g><g class="mark-group role-axis" role="graphics-symbol" aria-roledescription="axis" aria-label="X-axis for a linear scale with values from 0.5 to 2.7"><g transform="translate(0.5,150.5)"><path class="background" aria-hidden="true" d="M0,0h0v0h0Z" pointer-events="none"/><g><g class="mark-rule role-axis-grid" pointer-events="none"><line transform="translate(11,-150)" x2="0" y2="150" stroke="#ddd" stroke-width="1" opacity="1"/><line transform="translate(48,-150)" x2="0" y2="150" stroke="#ddd" stroke-width="1" opacity="1"/><line transform="translate(84,-150)" x2="0" y2="150" stroke="#ddd" stroke-width="1" opacity="1"/><line transform="translate(121,-150)" x2="0" y2="150" stroke="#ddd" stroke-width="1" opacity="1"/><line transform="translate(158,-150)" x2="0" y2="150" stroke="#ddd" stroke-width="1" opacity="1"/><line transform="translate(195,-150)" x2="0" y2="150" stroke="#ddd" stroke-width="1" opacity="1"/><line transform="translate(232,-150)" x2="0" y2="150" stroke="#ddd" stroke-width="1" opacity="1"/><line transform="translate(268,-150)" x2="0" y2="150" stroke="#ddd" stroke-width="1" opacity="1"/><line transform="translate(305,-150)" x2="0" y2="150" stroke="#ddd" stroke-width="1" opacity="1"/><line transform="translate(342,-150)" x2="0" y2="150" stroke="#ddd" stroke-width="1" opacity="1"/><line transform="translate(379,-150)" x2="0" y2="150" stroke="#ddd" stroke-width="1" opacity="1"/></g></g><path class="foreground" aria-hidden="true" d="" pointer-events="none" display="none"/></g></g><g class="mark-group role-axis" role="graphics-symbol" aria-roledescription="axis" aria-label="Y-axis for a linear scale with values from 0.00 to 0.22"><g transform="translate(0.5,0.5)"><path class="background" aria-hidden="true" d="M0,0h0v0h0Z" pointer-events="none"/><g><g class="mark-rule role-axis-grid" pointer-events="none"><line transform="translate(0,150)" x2="400" y2="0" stroke="#ddd" stroke-width="1" opacity="1"/><line transform="translate(0,116)" x2="400" y2="0" stroke="#ddd" stroke-width="1" opacity="1"/><line transform="translate(0,82)" x2="400" y2="0" stroke="#ddd" stroke-width="1" opacity="1"/><line transform="translate(0,48)" x2="400" y2="0" stroke="#ddd" stroke-width="1" opacity="1"/><line transform="translate(0,14)" x2="400" y2="0" stroke="#ddd" stroke-width="1" opacity="1"/></g></g><path class="foreground" aria-hidden="true" d="" pointer-events="none" display="none"/></g></g><g class="mark-group role-axis" role="graphics-symbol" aria-roledescription="axis" aria-label="X-axis for a linear scale with values from 0.54 to 2.72"><g transform="translate(0.5,150.5)"><path class="background" aria-hidden="true" d="M0,0h0v0h0Z" pointer-events="none"/><g><g class="mark-rule role-axis-tick" pointer-events="none"><line transform="translate(11,0)" x2="0" y2="5" stroke="#888" stroke-width="1" opacity="1"/><line transform="translate(48,0)" x2="0" y2="5" stroke="#888" stroke-width="1" opacity="1"/><line transform="translate(84,0)" x2="0" y2="5" stroke="#888" stroke-width="1" opacity="1"/><line transform="translate(121,0)" x2="0" y2="5" stroke="#888" stroke-width="1" opacity="1"/><line transform="translate(158,0)" x2="0" y2="5" stroke="#888" stroke-width="1" opacity="1"/><line transform="translate(195,0)" x2="0" y2="5" stroke="#888" stroke-width="1" opacity="1"/><line transform="translate(232,0)" x2="0" y2="5" stroke="#888" stroke-width="1" opacity="1"/><line transform="translate(268,0)" x2="0" y2="5" stroke="#888" stroke-width="1" opacity="1"/><line transform="translate(305,0)" x2="0" y2="5" stroke="#888" stroke-width="1" opacity="1"/><line transform="translate(342,0)" x2="0" y2="5" stroke="#888" stroke-width="1" opacity="1"/><line transform="translate(379,0)" x2="0" y2="5" stroke="#888" stroke-width="1" opacity="1"/></g><g class="mark-text role-axis-label" pointer-events="none"><text text-anchor="end" transform="translate(10.824383647424064,7) rotate(-45) translate(0,8)" font-family="sans-serif" font-size="10px" fill="#000" opacity="1">0.60</text><text text-anchor="end" transform="translate(47.61465076784314,7) rotate(-45) translate(0,8)" font-family="sans-serif" font-size="10px" fill="#000" opacity="1">0.80</text><text text-anchor="end" transform="translate(84.40491788826219,7) rotate(-45) translate(0,8)" font-family="sans-serif" font-size="10px" fill="#000" opacity="1">1.00</text><text text-anchor="end" transform="translate(121.19518500868122,7) rotate(-45) translate(0,8)" font-family="sans-serif" font-size="10px" fill="#000" opacity="1">1.20</text><text text-anchor="end" transform="translate(157.98545212910028,7) rotate(-45) translate(0,8)" font-family="sans-serif" font-size="10px" fill="#000" opacity="1">1.40</text><text text-anchor="end" transform="translate(194.77571924951937,7) rotate(-45) translate(0,8)" font-family="sans-serif" font-size="10px" fill="#000" opacity="1">1.60</text><text text-anchor="end" transform="translate(231.5659863699384,7) rotate(-45) translate(0,8)" font-family="sans-serif" font-size="10px" fill="#000" opacity="1">1.80</text><text text-anchor="end" transform="translate(268.3562534903575,7) rotate(-45) translate(0,8)" font-family="sans-serif" font-size="10px" fill="#000" opacity="1">2.00</text><text text-anchor="end" transform="translate(305.1465206107766,7) rotate(-45) translate(0,8)" font-family="sans-serif" font-size="10px" fill="#000" opacity="1">2.20</text><text text-anchor="end" transform="translate(341.9367877311956,7) rotate(-45) translate(0,8)" font-family="sans-serif" font-size="10px" fill="#000" opacity="1">2.40</text><text text-anchor="end" transform="translate(378.72705485161464,7) rotate(-45) translate(0,8)" font-family="sans-serif" font-size="10px" fill="#000" opacity="1">2.60</text></g><g class="mark-rule role-axis-domain" pointer-events="none"><line transform="translate(0,0)" x2="400" y2="0" stroke="#888" stroke-width="1" opacity="1"/></g></g><path class="foreground" aria-hidden="true" d="" pointer-events="none" display="none"/></g></g><g class="mark-group role-axis" role="graphics-symbol" aria-roledescription="axis" aria-label="Y-axis for a linear scale with values from 0% to 22%"><g transform="translate(0.5,0.5)"><path class="background" aria-hidden="true" d="M0,0h0v0h0Z" pointer-events="none"/><g><g class="mark-rule role-axis-tick" pointer-events="none"><line transform="translate(0,150)" x2="-5" y2="0" stroke="#888" stroke-width="1" opacity="1"/><line transform="translate(0,116)" x2="-5" y2="0" stroke="#888" stroke-width="1" opacity="1"/><line transform="translate(0,82)" x2="-5" y2="0" stroke="#888" stroke-width="1" opacity="1"/><line transform="translate(0,48)" x2="-5" y2="0" stroke="#888" stroke-width="1" opacity="1"/><line transform="translate(0,14)" x2="-5" y2="0" stroke="#888" stroke-width="1" opacity="1"/></g><g class="mark-text role-axis-label" pointer-events="none"><text text-anchor="end" transform="translate(-7,153)" font-family="sans-serif" font-size="10px" fill="#000" opacity="1">0%</text><text text-anchor="end" transform="translate(-7,118.9090909090909)" font-family="sans-serif" font-size="10px" fill="#000" opacity="1">5%</text><text text-anchor="end" transform="translate(-7,84.81818181818181)" font-family="sans-serif" font-size="10px" fill="#000" opacity="1">10%</text><text text-anchor="end" transform="translate(-7,50.727272727272734)" font-family="sans-serif" font-size="10px" fill="#000" opacity="1">15%</text><text text-anchor="end" transform="translate(-7,16.636363636363626)" font-family="sans-serif" font-size="10px" fill="#000" opacity="1">20%</text></g><g class="mark-rule role-axis-domain" pointer-events="none"><line transform="translate(0,150)" x2="0" y2="-150" stroke="#888" stroke-width="1" opacity="1"/></g></g><path class="foreground" aria-hidden="true" d="" pointer-events="none" display="none"/></g></g><g class="mark-rect role-mark concat_2_layer_0_marks" role="graphics-symbol" aria-roledescription="rect mark container"><path d="M1.1790267120418711,120.21216328968555h15v29.78783671031445h-15Z" fill="#4c78a8"/><path d="M8.8318656435602,54.30368814982897h15v95.69631185017103h-15Z" fill="#4c78a8"/><path d="M16.48470457507853,2.5213441010846713h15v147.47865589891532h-15Z" fill="#4c78a8"/><path d="M24.13754350659684,31.281615901624694h15v118.71838409837531h-15Z" fill="#4c78a8"/><path d="M31.790382438115167,79.975492384474h15v70.024507615526h-15Z" fill="#4c78a8"/><path d="M39.4432213696335,106.49013075859692h15v43.50986924140308h-15Z" fill="#4c78a8"/><path d="M47.09606030115183,113.82740604131196h15v36.17259395868804h-15Z" fill="#4c78a8"/><path d="M54.748899232670155,124.37437845792911h15v25.62562154207089h-15Z" fill="#4c78a8"/><path d="M62.40173816418846,128.20176910501021h15v21.798230894989786h-15Z" fill="#4c78a8"/><path d="M70.0545770957068,129.95671142282717h15v20.04328857717283h-15Z" fill="#4c78a8"/><path d="M77.70741602722512,134.47684245852025h15v15.523157541479748h-15Z" fill="#4c78a8"/><path d="M85.36025495874347,136.3183773249137h15v13.681622675086288h-15Z" fill="#4c78a8"/><path d="M93.01309389026177,140.77500715831735h15v9.22499284168265h-15Z" fill="#4c78a8"/><path d="M100.66593282178009,143.34969226932515h15v6.650307730674854h-15Z" fill="#4c78a8"/><path d="M108.31877175329839,144.55044227625257h15v5.449557723747432h-15Z" fill="#4c78a8"/><path d="M115.97161068481675,145.56646151288345h15v4.43353848711655h-15Z" fill="#4c78a8"/><path d="M123.62444961633508,145.8435576683282h15v4.156442331671798h-15Z" fill="#4c78a8"/><path d="M131.2772885478534,146.66330046151904h15v3.336699538480957h-15Z" fill="#4c78a8"/><path d="M138.93012747937172,147.30985815755687h15v2.6901418424431256h-15Z" fill="#4c78a8"/><path d="M146.58296641089004,147.9564158535947h15v2.043584146405294h-15Z" fill="#4c78a8"/><path d="M154.23580534240836,148.55679085705842h15v1.4432091429415834h-15Z" fill="#4c78a8"/><path d="M161.88864427392673,149.04170912908677h15v0.9582908709132312h-15Z" fill="#4c78a8"/><path d="M169.54148320544505,149.09943749480445h15v0.9005625051955519h-15Z" fill="#4c78a8"/><path d="M177.19432213696336,149.37653365024923h15v0.6234663497507711h-15Z" fill="#4c78a8"/><path d="M184.84716106848168,149.50930889139985h15v0.49069110860014575h-15Z" fill="#4c78a8"/><path d="M192.5,149.64785696912224h15v0.35214303087775534h-15Z" fill="#4c78a8"/><path d="M200.15283893151835,149.76331370055757h15v0.23668629944242525h-15Z" fill="#4c78a8"/><path d="M207.80567786303666,149.82104206627523h15v0.17895793372477442h-15Z" fill="#4c78a8"/><path d="M215.45851679455495,149.84990624913408h15v0.15009375086592058h-15Z" fill="#4c78a8"/><path d="M223.1113557260733,149.86722475884937h15v0.13277524115062533h-15Z" fill="#4c78a8"/><path d="M230.76419465759164,149.87299759542114h15v0.12700240457886025h-15Z" fill="#4c78a8"/><path d="M238.41703358910996,149.9134074514235h15v0.08659254857650467h-15Z" fill="#4c78a8"/><path d="M246.0698725206283,149.9653629805694h15v0.0346370194305905h-15Z" fill="#4c78a8"/><path d="M253.7227114521466,149.9826814902847h15v0.01731850971529525h-15Z" fill="#4c78a8"/><path d="M261.37555038366486,149.9826814902847h15v0.01731850971529525h-15Z" fill="#4c78a8"/><path d="M269.02838931518323,149.99422716342823h15v0.005772836571765083h-15Z" fill="#4c78a8"/><path d="M276.6812282467016,150h15v0h-15Z" fill="#4c78a8"/><path d="M284.33406717821987,150h15v0h-15Z" fill="#4c78a8"/><path d="M291.98690610973824,150h15v0h-15Z" fill="#4c78a8"/><path d="M299.6397450412566,150h15v0h-15Z" fill="#4c78a8"/><path d="M307.2925839727749,150h15v0h-15Z" fill="#4c78a8"/><path d="M314.94542290429325,149.99422716342823h15v0.005772836571765083h-15Z" fill="#4c78a8"/><path d="M322.5982618358115,150h15v0h-15Z" fill="#4c78a8"/><path d="M330.25110076732983,150h15v0h-15Z" fill="#4c78a8"/><path d="M337.90393969884815,149.99422716342823h15v0.005772836571765083h-15Z" fill="#4c78a8"/><path d="M345.55677863036647,150h15v0h-15Z" fill="#4c78a8"/><path d="M353.20961756188484,150h15v0h-15Z" fill="#4c78a8"/><path d="M360.86245649340316,150h15v0h-15Z" fill="#4c78a8"/><path d="M368.51529542492153,150h15v0h-15Z" fill="#4c78a8"/><path d="M376.16813435643985,149.99422716342823h15v0.005772836571765083h-15Z" fill="#4c78a8"/></g><g class="mark-rule role-mark concat_2_layer_1_marks" role="graphics-symbol" aria-roledescription="rule mark container"><line transform="translate(45.77513741182218,0)" x2="0" y2="150" stroke="#ff7f0e" stroke-width="1.5" stroke-dasharray="3,2"/></g><g class="mark-rule role-mark concat_2_layer_2_marks" role="graphics-symbol" aria-roledescription="rule mark container"><line transform="translate(36.57757063171741,0)" x2="0" y2="150" stroke="#2ca02c" stroke-width="1.5" stroke-dasharray="3,2"/></g><g class="mark-group role-title"><g transform="translate(200,-18.5)"><path class="background" aria-hidden="true" d="M0,0h0v0h0Z" pointer-events="none"/><g><g class="mark-text role-title-text" role="graphics-symbol" aria-roledescription="title" aria-label="Title text 'Histogram of 'Random Cut Forest''" pointer-events="none"><text text-anchor="middle" transform="translate(0,10)" font-family="sans-serif" font-size="13px" font-weight="bold" fill="#000" opacity="1">Histogram of 'Random Cut Forest'</text></g></g><path class="foreground" aria-hidden="true" d="" pointer-events="none" display="none"/></g></g></g><path class="foreground" aria-hidden="true" d="" display="none"/></g></g></g><path class="foreground" aria-hidden="true" d="" display="none"/></g></g></g></svg>