<svg xmlns="http://www.w3.org/2000/svg" xmlns:xlink="http://www.w3.org/1999/xlink" version="1.1" class="marks" width="1259" height="299" viewBox="0 0 1259 299"><rect width="1259" height="299" fill="white"/><g fill="none" stroke-miterlimit="10" transform="translate(53,27)"><g class="mark-group role-frame root" role="graphics-object" aria-roledescription="group mark container"><g transform="translate(0,0)"><path class="background" aria-hidden="true" d="M0.5,0.5h1200v200h-1200Z" stroke="#ddd"/><g><g class="mark-group role-axis" role="graphics-symbol" aria-roledescription="axis" aria-label="Y-axis for a linear scale with values from 0.0 to 1.0"><g transform="translate(0.5,0.5)"><path class="background" aria-hidden="true" d="M0,0h0v0h0Z" pointer-events="none"/><g><g class="mark-rule role-axis-grid" pointer-events="none"><line transform="translate(0,200)" x2="1200" y2="0" stroke="#ddd" stroke-width="1" opacity="1"/><line transform="translate(0,160)" x2="1200" y2="0" stroke="#ddd" stroke-width="1" opacity="1"/><line transform="translate(0,120)" x2="1200" y2="0" stroke="#ddd" stroke-width="1" opacity="1"/><line transform="translate(0,80)" x2="1200" y2="0" stroke="#ddd" stroke-width="1" opacity="1"/><line transform="translate(0,40)" x2="1200" y2="0" stroke="#ddd" stroke-width="1" opacity="1"/><line transform="translate(0,0)" x2="1200" y2="0" stroke="#ddd" stroke-width="1" opacity="1"/></g></g><path class="foreground" aria-hidden="true" d="" pointer-events="none" display="none"/></g></g><g class="mark-group role-axis" role="graphics-symbol" aria-roledescription="axis" aria-label="X-axis titled 'Feature' for a discrete scale with 100 values: id_25, id_21, id_27, D14, D12, ending with C14"><g transform="translate(0.5,200.5)"><path class="background" aria-hidden="true" d="M0,0h0v0h0Z" pointer-events="none"/><g><g class="mark-rule role-axis-tick" pointer-events="none"><line transform="translate(5,0)" x2="0" y2="5" stroke="#888" stroke-width="1" opacity="1"/><line transform="translate(17,0)" x2="0" y2="5" stroke="#888" stroke-width="1" opacity="1"/><line transform="translate(29,0)" x2="0" y2="5" stroke="#888" stroke-width="1" opacity="1"/><line transform="translate(41,0)" x2="0" y2="5" stroke="#888" stroke-width="1" opacity="1"/><line transform="translate(53,0)" x2="0" y2="5" stroke="#888" stroke-width="1" opacity="1"/><line transform="translate(65,0)" x2="0" y2="5" stroke="#888" stroke-width="1" opacity="1"/><line transform="translate(77,0)" x2="0" y2="5" stroke="#888" stroke-width="1" opacity="1"/><line transform="translate(89,0)" x2="0" y2="5" stroke="#888" stroke-width="1" opacity="1"/><line transform="translate(101,0)" x2="0" y2="5" stroke="#888" stroke-width="1" opacity="1"/><line transform="translate(113,0)" x2="0" y2="5" stroke="#888" stroke-width="1" opacity="1"/><line transform="translate(125,0)" x2="0" y2="5" stroke="#888" stroke-width="1" opacity="1"/><line transform="translate(137,0)" x2="0" y2="5" stroke="#888" stroke-width="1" opacity="1"/><line transform="translate(149,0)" x2="0" y2="5" stroke="#888" stroke-width="1" opacity="1"/><line transform="translate(161,0)" x2="0" y2="5" stroke="#888" stroke-width="1" opacity="1"/><line transform="translate(173,0)" x2="0" y2="5" stroke="#888" stroke-width="1" opacity="1"/><line transform="translate(185,0)" x2="0" y2="5" stroke="#888" stroke-width="1" opacity="1"/><line transform="translate(197,0)" x2="0" y2="5" stroke="#888" stroke-width="1" opacity="1"/><line transform="translate(209,0)" x2="0" y2="5" stroke="#888" stroke-width="1" opacity="1"/><line transform="translate(221,0)" x2="0" y2="5" stroke="#888" stroke-width="1" opacity="1"/><line transform="translate(233,0)" x2="0" y2="5" stroke="#888" stroke-width="1" opacity="1"/><line transform="translate(245,0)" x2="0" y2="5" stroke="#888" stroke-width="1" opacity="1"/><line transform="translate(257,0)" x2="0" y2="5" stroke="#888" stroke-width="1" opacity="1"/><line transform="translate(269,0)" x2="0" y2="5" stroke="#888" stroke-width="1" opacity="1"/><line transform="translate(281,0)" x2="0" y2="5" stroke="#888" stroke-width="1" opacity="1"/><line transform="translate(293,0)" x2="0" y2="5" stroke="#888" stroke-width="1" opacity="1"/><line transform="translate(305,0)" x2="0" y2="5" stroke="#888" stroke-width="1" opacity="1"/><line transform="translate(317,0)" x2="0" y2="5" stroke="#888" stroke-width="1" opacity="1"/><line transform="translate(329,0)" x2="0" y2="5" stroke="#888" stroke-width="1" opacity="1"/><line transform="translate(341,0)" x2="0" y2="5" stroke="#888" stroke-width="1" opacity="1"/><line transform="translate(353,0)" x2="0" y2="5" stroke="#888" stroke-width="1" opacity="1"/><line transform="translate(365,0)" x2="0" y2="5" stroke="#888" stroke-width="1" opacity="1"/><line transform="translate(377,0)" x2="0" y2="5" stroke="#888" stroke-width="1" opacity="1"/><line transform="translate(389,0)" x2="0" y2="5" stroke="#888" stroke-width="1" opacity="1"/><line transform="translate(401,0)" x2="0" y2="5" stroke="#888" stroke-width="1" opacity="1"/><line transform="translate(413,0)" x2="0" y2="5" stroke="#888" stroke-width="1" opacity="1"/><line transform="translate(425,0)" x2="0" y2="5" stroke="#888" stroke-width="1" opacity="1"/><line transform="translate(437,0)" x2="0" y2="5" stroke="#888" stroke-width="1" opacity="1"/><line transform="translate(449,0)" x2="0" y2="5" stroke="#888" stroke-width="1" opacity="1"/><line transform="translate(461,0)" x2="0" y2="5" stroke="#888" stroke-width="1" opacity="1"/><line transform="translate(473,0)" x2="0" y2="5" stroke="#888" stroke-width="1" opacity="1"/><line transform="translate(485,0)" x2="0" y2="5" stroke="#888" stroke-width="1" opacity="1"/><line transform="translate(497,0)" x2="0" y2="5" stroke="#888" stroke-width="1" opacity="1"/><line transform="translate(509,0)" x2="0" y2="5" stroke="#888" stroke-width="1" opacity="1"/><line transform="translate(521,0)" x2="0" y2="5" stroke="#888" stroke-width="1" opacity="1"/><line transform="translate(533,0)" x2="0" y2="5" stroke="#888" stroke-width="1" opacity="1"/><line transform="translate(545,0)" x2="0" y2="5" stroke="#888" stroke-width="1" opacity="1"/><line transform="translate(557,0)" x2="0" y2="5" stroke="#888" stroke-width="1" opacity="1"/><line transform="translate(569,0)" x2="0" y2="5" stroke="#888" stroke-width="1" opacity="1"/><line transform="translate(581,0)" x2="0" y2="5" stroke="#888" stroke-width="1" opacity="1"/><line transform="translate(593,0)" x2="0" y2="5" stroke="#888" stroke-width="1" opacity="1"/><line transform="translate(605,0)" x2="0" y2="5" stroke="#888" stroke-width="1" opacity="1"/><line transform="translate(617,0)" x2="0" y2="5" stroke="#888" stroke-width="1" opacity="1"/><line transform="translate(629,0)" x2="0" y2="5" stroke="#888" stroke-width="1" opacity="1"/><line transform="translate(641,0)" x2="0" y2="5" stroke="#888" stroke-width="1" opacity="1"/><line transform="translate(653,0)" x2="0" y2="5" stroke="#888" stroke-width="1" opacity="1"/><line transform="translate(665,0)" x2="0" y2="5" stroke="#888" stroke-width="1" opacity="1"/><line transform="translate(677,0)" x2="0" y2="5" stroke="#888" stroke-width="1" opacity="1"/><line transform="translate(689,0)" x2="0" y2="5" stroke="#888" stroke-width="1" opacity="1"/><line transform="translate(701,0)" x2="0" y2="5" stroke="#888" stroke-width="1" opacity="1"/><line transform="translate(713,0)" x2="0" y2="5" stroke="#888" stroke-width="1" opacity="1"/><line transform="translate(725,0)" x2="0" y2="5" stroke="#888" stroke-width="1" opacity="1"/><line transform="translate(737,0)" x2="0" y2="5" stroke="#888" stroke-width="1" opacity="1"/><line transform="translate(749,0)" x2="0" y2="5" stroke="#888" stroke-width="1" opacity="1"/><line transform="translate(761,0)" x2="0" y2="5" stroke="#888" stroke-width="1" opacity="1"/><line transform="translate(773,0)" x2="0" y2="5" stroke="#888" stroke-width="1" opacity="1"/><line transform="translate(785,0)" x2="0" y2="5" stroke="#888" stroke-width="1" opacity="1"/><line transform="translate(797,0)" x2="0" y2="5" stroke="#888" stroke-width="1" opacity="1"/><line transform="translate(809,0)" x2="0" y2="5" stroke="#888" stroke-width="1" opacity="1"/><line transform="translate(821,0)" x2="0" y2="5" stroke="#888" stroke-width="1" opacity="1"/><line transform="translate(833,0)" x2="0" y2="5" stroke="#888" stroke-width="1" opacity="1"/><line transform="translate(845,0)" x2="0" y2="5" stroke="#888" stroke-width="1" opacity="1"/><line transform="translate(857,0)" x2="0" y2="5" stroke="#888" stroke-width="1" opacity="1"/><line transform="translate(869,0)" x2="0" y2="5" stroke="#888" stroke-width="1" opacity="1"/><line transform="translate(881,0)" x2="0" y2="5" stroke="#888" stroke-width="1" opacity="1"/><line transform="translate(893,0)" x2="0" y2="5" stroke="#888" stroke-width="1" opacity="1"/><line transform="translate(905,0)" x2="0" y2="5" stroke="#888" stroke-width="1" opacity="1"/><line transform="translate(917,0)" x2="0" y2="5" stroke="#888" stroke-width="1" opacity="1"/><line transform="translate(929,0)" x2="0" y2="5" stroke="#888" stroke-width="1" opacity="1"/><line transform="translate(941,0)" x2="0" y2="5" stroke="#888" stroke-width="1" opacity="1"/><line transform="translate(953,0)" x2="0" y2="5" stroke="#888" stroke-width="1" opacity="1"/><line transform="translate(965,0)" x2="0" y2="5" stroke="#888" stroke-width="1" opacity="1"/><line transform="translate(977,0)" x2="0" y2="5" stroke="#888" stroke-width="1" opacity="1"/><line transform="translate(989,0)" x2="0" y2="5" stroke="#888" stroke-width="1" opacity="1"/><line transform="translate(1001,0)" x2="0" y2="5" stroke="#888" stroke-width="1" opacity="1"/><line transform="translate(1013,0)" x2="0" y2="5" stroke="#888" stroke-width="1" opacity="1"/><line transform="translate(1026,0)" x2="0" y2="5" stroke="#888" stroke-width="1" opacity="1"/><line transform="translate(1038,0)" x2="0" y2="5" stroke="#888" stroke-width="1" opacity="1"/><line transform="translate(1050,0)" x2="0" y2="5" stroke="#888" stroke-width="1" opacity="1"/><line transform="translate(1062,0)" x2="0" y2="5" stroke="#888" stroke-width="1" opacity="1"/><line transform="translate(1074,0)" x2="0" y2="5" stroke="#888" stroke-width="1" opacity="1"/><line transform="translate(1086,0)" x2="0" y2="5" stroke="#888" stroke-width="1" opacity="1"/><line transform="translate(1098,0)" x2="0" y2="5" stroke="#888" stroke-width="1" opacity="1"/><line transform="translate(1110,0)" x2="0" y2="5" stroke="#888" stroke-width="1" opacity="1"/><line transform="translate(1122,0)" x2="0" y2="5" stroke="#888" stroke-width="1" opacity="1"/><line transform="translate(1134,0)" x2="0" y2="5" stroke="#888" stroke-width="1" opacity="1"/><line transform="translate(1146,0)" x2="0" y2="5" stroke="#888" stroke-width="1" opacity="1"/><line transform="translate(1158,0)" x2="0" y2="5" stroke="#888" stroke-width="1" opacity="1"/><line transform="translate(1170,0)" x2="0" y2="5" stroke="#888" stroke-width="1" opacity="1"/><line transform="translate(1182,0)" x2="0" y2="5" stroke="#888" stroke-width="1" opacity="1"/><line transform="translate(1194,0)" x2="0" y2="5" stroke="#888" stroke-width="1" opacity="1"/></g><g class="mark-text role-axis-label" pointer-events="none"><text text-anchor="end" transform="translate(5.499999999999909,7) rotate(-45) translate(0,6)" font-family="sans-serif" font-size="8px" fill="#000" opacity="1">id_25</text><text text-anchor="end" transform="translate(17.499999999999908,7) rotate(-45) translate(0,6)" font-family="sans-serif" font-size="8px" fill="#000" opacity="1">id_21</text><text text-anchor="end" transform="translate(29.499999999999908,7) rotate(-45) translate(0,6)" font-family="sans-serif" font-size="8px" fill="#000" opacity="1">id_27</text><text text-anchor="end" transform="translate(41.49999999999991,7) rotate(-45) translate(0,6)" font-family="sans-serif" font-size="8px" fill="#000" opacity="1">D14</text><text text-anchor="end" transform="translate(53.49999999999991,7) rotate(-45) translate(0,6)" font-family="sans-serif" font-size="8px" fill="#000" opacity="1">D12</text><text text-anchor="end" transform="translate(65.49999999999991,7) rotate(-45) translate(0,6)" font-family="sans-serif" font-size="8px" fill="#000" opacity="1">D6</text><text text-anchor="end" transform="translate(77.49999999999991,7) rotate(-45) translate(0,6)" font-family="sans-serif" font-size="8px" fill="#000" opacity="1">id_33</text><text text-anchor="end" transform="translate(89.49999999999991,7) rotate(-45) translate(0,6)" font-family="sans-serif" font-size="8px" fill="#000" opacity="1">id_30</text><text text-anchor="end" transform="translate(101.49999999999991,7) rotate(-45) translate(0,6)" font-family="sans-serif" font-size="8px" fill="#000" opacity="1">id_34</text><text text-anchor="end" transform="translate(113.49999999999991,7) rotate(-45) translate(0,6)" font-family="sans-serif" font-size="8px" fill="#000" opacity="1">V142</text><text text-anchor="end" transform="translate(125.49999999999991,7) rotate(-45) translate(0,6)" font-family="sans-serif" font-size="8px" fill="#000" opacity="1">V163</text><text text-anchor="end" transform="translate(137.49999999999991,7) rotate(-45) translate(0,6)" font-family="sans-serif" font-size="8px" fill="#000" opacity="1">V152</text><text text-anchor="end" transform="translate(149.49999999999991,7) rotate(-45) translate(0,6)" font-family="sans-serif" font-size="8px" fill="#000" opacity="1">V160</text><text text-anchor="end" transform="translate(161.49999999999991,7) rotate(-45) translate(0,6)" font-family="sans-serif" font-size="8px" fill="#000" opacity="1">V143</text><text text-anchor="end" transform="translate(173.49999999999991,7) rotate(-45) translate(0,6)" font-family="sans-serif" font-size="8px" fill="#000" opacity="1">V332</text><text text-anchor="end" transform="translate(185.49999999999991,7) rotate(-45) translate(0,6)" font-family="sans-serif" font-size="8px" fill="#000" opacity="1">V326</text><text text-anchor="end" transform="translate(197.49999999999991,7) rotate(-45) translate(0,6)" font-family="sans-serif" font-size="8px" fill="#000" opacity="1">V328</text><text text-anchor="end" transform="translate(209.49999999999991,7) rotate(-45) translate(0,6)" font-family="sans-serif" font-size="8px" fill="#000" opacity="1">V325</text><text text-anchor="end" transform="translate(221.49999999999991,7) rotate(-45) translate(0,6)" font-family="sans-serif" font-size="8px" fill="#000" opacity="1">V261</text><text text-anchor="end" transform="translate(233.49999999999991,7) rotate(-45) translate(0,6)" font-family="sans-serif" font-size="8px" fill="#000" opacity="1">V273</text><text text-anchor="end" transform="translate(245.49999999999991,7) rotate(-45) translate(0,6)" font-family="sans-serif" font-size="8px" fill="#000" opacity="1">V217</text><text text-anchor="end" transform="translate(257.4999999999999,7) rotate(-45) translate(0,6)" font-family="sans-serif" font-size="8px" fill="#000" opacity="1">V224</text><text text-anchor="end" transform="translate(269.4999999999999,7) rotate(-45) translate(0,6)" font-family="sans-serif" font-size="8px" fill="#000" opacity="1">V267</text><text text-anchor="end" transform="translate(281.4999999999999,7) rotate(-45) translate(0,6)" font-family="sans-serif" font-size="8px" fill="#000" opacity="1">V265</text><text text-anchor="end" transform="translate(293.4999999999999,7) rotate(-45) translate(0,6)" font-family="sans-serif" font-size="8px" fill="#000" opacity="1">V248</text><text text-anchor="end" transform="translate(305.4999999999999,7) rotate(-45) translate(0,6)" font-family="sans-serif" font-size="8px" fill="#000" opacity="1">id_06</text><text text-anchor="end" transform="translate(317.4999999999999,7) rotate(-45) translate(0,6)" font-family="sans-serif" font-size="8px" fill="#000" opacity="1">R_emaildomain</text><text text-anchor="end" transform="translate(329.4999999999999,7) rotate(-45) translate(0,6)" font-family="sans-serif" font-size="8px" fill="#000" opacity="1">V192</text><text text-anchor="end" transform="translate(341.4999999999999,7) rotate(-45) translate(0,6)" font-family="sans-serif" font-size="8px" fill="#000" opacity="1">V214</text><text text-anchor="end" transform="translate(353.4999999999999,7) rotate(-45) translate(0,6)" font-family="sans-serif" font-size="8px" fill="#000" opacity="1">V172</text><text text-anchor="end" transform="translate(365.4999999999999,7) rotate(-45) translate(0,6)" font-family="sans-serif" font-size="8px" fill="#000" opacity="1">V196</text><text text-anchor="end" transform="translate(377.4999999999999,7) rotate(-45) translate(0,6)" font-family="sans-serif" font-size="8px" fill="#000" opacity="1">V213</text><text text-anchor="end" transform="translate(389.4999999999999,7) rotate(-45) translate(0,6)" font-family="sans-serif" font-size="8px" fill="#000" opacity="1">V178</text><text text-anchor="end" transform="translate(401.4999999999999,7) rotate(-45) translate(0,6)" font-family="sans-serif" font-size="8px" fill="#000" opacity="1">V198</text><text text-anchor="end" transform="translate(413.4999999999999,7) rotate(-45) translate(0,6)" font-family="sans-serif" font-size="8px" fill="#000" opacity="1">V197</text><text text-anchor="end" transform="translate(425.4999999999999,7) rotate(-45) translate(0,6)" font-family="sans-serif" font-size="8px" fill="#000" opacity="1">V185</text><text text-anchor="end" transform="translate(437.4999999999999,7) rotate(-45) translate(0,6)" font-family="sans-serif" font-size="8px" fill="#000" opacity="1">V170</text><text text-anchor="end" transform="translate(449.4999999999999,7) rotate(-45) translate(0,6)" font-family="sans-serif" font-size="8px" fill="#000" opacity="1">id_31</text><text text-anchor="end" transform="translate(461.4999999999999,7) rotate(-45) translate(0,6)" font-family="sans-serif" font-size="8px" fill="#000" opacity="1">DeviceType</text><text text-anchor="end" transform="translate(473.4999999999999,7) rotate(-45) translate(0,6)" font-family="sans-serif" font-size="8px" fill="#000" opacity="1">id_35</text><text text-anchor="end" transform="translate(485.4999999999999,7) rotate(-45) translate(0,6)" font-family="sans-serif" font-size="8px" fill="#000" opacity="1">V220</text><text text-anchor="end" transform="translate(497.4999999999999,7) rotate(-45) translate(0,6)" font-family="sans-serif" font-size="8px" fill="#000" opacity="1">V234</text><text text-anchor="end" transform="translate(509.4999999999999,7) rotate(-45) translate(0,6)" font-family="sans-serif" font-size="8px" fill="#000" opacity="1">V238</text><text text-anchor="end" transform="translate(521.4999999999999,7) rotate(-45) translate(0,6)" font-family="sans-serif" font-size="8px" fill="#000" opacity="1">id_01</text><text text-anchor="end" transform="translate(533.4999999999999,7) rotate(-45) translate(0,6)" font-family="sans-serif" font-size="8px" fill="#000" opacity="1">dist1</text><text text-anchor="end" transform="translate(545.4999999999999,7) rotate(-45) translate(0,6)" font-family="sans-serif" font-size="8px" fill="#000" opacity="1">M9</text><text text-anchor="end" transform="translate(557.4999999999999,7) rotate(-45) translate(0,6)" font-family="sans-serif" font-size="8px" fill="#000" opacity="1">D5</text><text text-anchor="end" transform="translate(569.4999999999999,7) rotate(-45) translate(0,6)" font-family="sans-serif" font-size="8px" fill="#000" opacity="1">V4</text><text text-anchor="end" transform="translate(581.4999999999999,7) rotate(-45) translate(0,6)" font-family="sans-serif" font-size="8px" fill="#000" opacity="1">V10</text><text text-anchor="end" transform="translate(593.4999999999999,7) rotate(-45) translate(0,6)" font-family="sans-serif" font-size="8px" fill="#000" opacity="1">V11</text><text text-anchor="end" transform="translate(605.4999999999999,7) rotate(-45) translate(0,6)" font-family="sans-serif" font-size="8px" fill="#000" opacity="1">V1</text><text text-anchor="end" transform="translate(617.4999999999999,7) rotate(-45) translate(0,6)" font-family="sans-serif" font-size="8px" fill="#000" opacity="1">M3</text><text text-anchor="end" transform="translate(629.4999999999999,7) rotate(-45) translate(0,6)" font-family="sans-serif" font-size="8px" fill="#000" opacity="1">M1</text><text text-anchor="end" transform="translate(641.4999999999999,7) rotate(-45) translate(0,6)" font-family="sans-serif" font-size="8px" fill="#000" opacity="1">D3</text><text text-anchor="end" transform="translate(653.4999999999999,7) rotate(-45) translate(0,6)" font-family="sans-serif" font-size="8px" fill="#000" opacity="1">V46</text><text text-anchor="end" transform="translate(665.4999999999999,7) rotate(-45) translate(0,6)" font-family="sans-serif" font-size="8px" fill="#000" opacity="1">V43</text><text text-anchor="end" transform="translate(677.4999999999999,7) rotate(-45) translate(0,6)" font-family="sans-serif" font-size="8px" fill="#000" opacity="1">V90</text><text text-anchor="end" transform="translate(689.4999999999999,7) rotate(-45) translate(0,6)" font-family="sans-serif" font-size="8px" fill="#000" opacity="1">V84</text><text text-anchor="end" transform="translate(701.4999999999999,7) rotate(-45) translate(0,6)" font-family="sans-serif" font-size="8px" fill="#000" opacity="1">V94</text><text text-anchor="end" transform="translate(713.4999999999999,7) rotate(-45) translate(0,6)" font-family="sans-serif" font-size="8px" fill="#000" opacity="1">V54</text><text text-anchor="end" transform="translate(725.4999999999999,7) rotate(-45) translate(0,6)" font-family="sans-serif" font-size="8px" fill="#000" opacity="1">V55</text><text text-anchor="end" transform="translate(737.4999999999999,7) rotate(-45) translate(0,6)" font-family="sans-serif" font-size="8px" fill="#000" opacity="1">V70</text><text text-anchor="end" transform="translate(749.4999999999999,7) rotate(-45) translate(0,6)" font-family="sans-serif" font-size="8px" fill="#000" opacity="1">V74</text><text text-anchor="end" transform="translate(761.4999999999999,7) rotate(-45) translate(0,6)" font-family="sans-serif" font-size="8px" fill="#000" opacity="1">V73</text><text text-anchor="end" transform="translate(773.4999999999999,7) rotate(-45) translate(0,6)" font-family="sans-serif" font-size="8px" fill="#000" opacity="1">V53</text><text text-anchor="end" transform="translate(785.4999999999999,7) rotate(-45) translate(0,6)" font-family="sans-serif" font-size="8px" fill="#000" opacity="1">V61</text><text text-anchor="end" transform="translate(797.4999999999999,7) rotate(-45) translate(0,6)" font-family="sans-serif" font-size="8px" fill="#000" opacity="1">V20</text><text text-anchor="end" transform="translate(809.4999999999999,7) rotate(-45) translate(0,6)" font-family="sans-serif" font-size="8px" fill="#000" opacity="1">V13</text><text text-anchor="end" transform="translate(821.4999999999999,7) rotate(-45) translate(0,6)" font-family="sans-serif" font-size="8px" fill="#000" opacity="1">V14</text><text text-anchor="end" transform="translate(833.4999999999999,7) rotate(-45) translate(0,6)" font-family="sans-serif" font-size="8px" fill="#000" opacity="1">V21</text><text text-anchor="end" transform="translate(845.4999999999999,7) rotate(-45) translate(0,6)" font-family="sans-serif" font-size="8px" fill="#000" opacity="1">D10</text><text text-anchor="end" transform="translate(857.4999999999999,7) rotate(-45) translate(0,6)" font-family="sans-serif" font-size="8px" fill="#000" opacity="1">card6</text><text text-anchor="end" transform="translate(869.4999999999999,7) rotate(-45) translate(0,6)" font-family="sans-serif" font-size="8px" fill="#000" opacity="1">V315</text><text text-anchor="end" transform="translate(881.4999999999999,7) rotate(-45) translate(0,6)" font-family="sans-serif" font-size="8px" fill="#000" opacity="1">V314</text><text text-anchor="end" transform="translate(893.4999999999999,7) rotate(-45) translate(0,6)" font-family="sans-serif" font-size="8px" fill="#000" opacity="1">V126</text><text text-anchor="end" transform="translate(905.4999999999999,7) rotate(-45) translate(0,6)" font-family="sans-serif" font-size="8px" fill="#000" opacity="1">V121</text><text text-anchor="end" transform="translate(917.4999999999999,7) rotate(-45) translate(0,6)" font-family="sans-serif" font-size="8px" fill="#000" opacity="1">V98</text><text text-anchor="end" transform="translate(929.4999999999999,7) rotate(-45) translate(0,6)" font-family="sans-serif" font-size="8px" fill="#000" opacity="1">V123</text><text text-anchor="end" transform="translate(941.4999999999999,7) rotate(-45) translate(0,6)" font-family="sans-serif" font-size="8px" fill="#000" opacity="1">V108</text><text text-anchor="end" transform="translate(953.4999999999999,7) rotate(-45) translate(0,6)" font-family="sans-serif" font-size="8px" fill="#000" opacity="1">V128</text><text text-anchor="end" transform="translate(965.4999999999999,7) rotate(-45) translate(0,6)" font-family="sans-serif" font-size="8px" fill="#000" opacity="1">V129</text><text text-anchor="end" transform="translate(977.4999999999999,7) rotate(-45) translate(0,6)" font-family="sans-serif" font-size="8px" fill="#000" opacity="1">V124</text><text text-anchor="end" transform="translate(989.4999999999999,7) rotate(-45) translate(0,6)" font-family="sans-serif" font-size="8px" fill="#000" opacity="1">V127</text><text text-anchor="end" transform="translate(1001.4999999999999,7) rotate(-45) translate(0,6)" font-family="sans-serif" font-size="8px" fill="#000" opacity="1">V95</text><text text-anchor="end" transform="translate(1013.4999999999999,7) rotate(-45) translate(0,6)" font-family="sans-serif" font-size="8px" fill="#000" opacity="1">V109</text><text text-anchor="end" transform="translate(1025.5,7) rotate(-45) translate(0,6)" font-family="sans-serif" font-size="8px" fill="#000" opacity="1">V132</text><text text-anchor="end" transform="translate(1037.5,7) rotate(-45) translate(0,6)" font-family="sans-serif" font-size="8px" fill="#000" opacity="1">V97</text><text text-anchor="end" transform="translate(1049.5,7) rotate(-45) translate(0,6)" font-family="sans-serif" font-size="8px" fill="#000" opacity="1">V118</text><text text-anchor="end" transform="translate(1061.5,7) rotate(-45) translate(0,6)" font-family="sans-serif" font-size="8px" fill="#000" opacity="1">V134</text><text text-anchor="end" transform="translate(1073.5,7) rotate(-45) translate(0,6)" font-family="sans-serif" font-size="8px" fill="#000" opacity="1">V306</text><text text-anchor="end" transform="translate(1085.5,7) rotate(-45) translate(0,6)" font-family="sans-serif" font-size="8px" fill="#000" opacity="1">V310</text><text text-anchor="end" transform="translate(1097.5,7) rotate(-45) translate(0,6)" font-family="sans-serif" font-size="8px" fill="#000" opacity="1">V316</text><text text-anchor="end" transform="translate(1109.5,7) rotate(-45) translate(0,6)" font-family="sans-serif" font-size="8px" fill="#000" opacity="1">V284</text><text text-anchor="end" transform="translate(1121.5,7) rotate(-45) translate(0,6)" font-family="sans-serif" font-size="8px" fill="#000" opacity="1">V280</text><text text-anchor="end" transform="translate(1133.5,7) rotate(-45) translate(0,6)" font-family="sans-serif" font-size="8px" fill="#000" opacity="1">V308</text><text text-anchor="end" transform="translate(1145.5,7) rotate(-45) translate(0,6)" font-family="sans-serif" font-size="8px" fill="#000" opacity="1">V317</text><text text-anchor="end" transform="translate(1157.5,7) rotate(-45) translate(0,6)" font-family="sans-serif" font-size="8px" fill="#000" opacity="1">V294</text><text text-anchor="end" transform="translate(1169.5,7) rotate(-45) translate(0,6)" font-family="sans-serif" font-size="8px" fill="#000" opacity="1">C5</text><text text-anchor="end" transform="translate(1181.5,7) rotate(-45) translate(0,6)" font-family="sans-serif" font-size="8px" fill="#000" opacity="1">C1</text><text text-anchor="end" transform="translate(1193.5,7) rotate(-45) translate(0,6)" font-family="sans-serif" font-size="8px" fill="#000" opacity="1">C14</text></g><g class="mark-rule role-axis-domain" pointer-events="none"><line transform="translate(0,0)" x2="1200" y2="0" stroke="#888" stroke-width="1" opacity="1"/></g><g class="mark-text role-axis-title" pointer-events="none"><text text-anchor="middle" transform="translate(600,64.95928545848997)" font-family="sans-serif" font-size="11px" font-weight="bold" fill="#000" opacity="1">Feature</text></g></g><path class="foreground" aria-hidden="true" d="" pointer-events="none" display="none"/></g></g><g class="mark-group role-axis" role="graphics-symbol" aria-roledescription="axis" aria-label="Y-axis titled 'Percentage' for a linear scale with values from 0% to 100%"><g transform="translate(0.5,0.5)"><path class="background" aria-hidden="true" d="M0,0h0v0h0Z" pointer-events="none"/><g><g class="mark-rule role-axis-tick" pointer-events="none"><line transform="translate(0,200)" x2="-5" y2="0" stroke="#888" stroke-width="1" opacity="1"/><line transform="translate(0,160)" x2="-5" y2="0" stroke="#888" stroke-width="1" opacity="1"/><line transform="translate(0,120)" x2="-5" y2="0" stroke="#888" stroke-width="1" opacity="1"/><line transform="translate(0,80)" x2="-5" y2="0" stroke="#888" stroke-width="1" opacity="1"/><line transform="translate(0,40)" x2="-5" y2="0" stroke="#888" stroke-width="1" opacity="1"/><line transform="translate(0,0)" x2="-5" y2="0" stroke="#888" stroke-width="1" opacity="1"/></g><g class="mark-text role-axis-label" pointer-events="none"><text text-anchor="end" transform="translate(-7,203)" font-family="sans-serif" font-size="10px" fill="#000" opacity="1">0%</text><text text-anchor="end" transform="translate(-7,163)" font-family="sans-serif" font-size="10px" fill="#000" opacity="1">20%</text><text text-anchor="end" transform="translate(-7,123)" font-family="sans-serif" font-size="10px" fill="#000" opacity="1">40%</text><text text-anchor="end" transform="translate(-7,83)" font-family="sans-serif" font-size="10px" fill="#000" opacity="1">60%</text><text text-anchor="end" transform="translate(-7,42.99999999999999)" font-family="sans-serif" font-size="10px" fill="#000" opacity="1">80%</text><text text-anchor="end" transform="translate(-7,3)" font-family="sans-serif" font-size="10px" fill="#000" opacity="1">100%</text></g><g class="mark-rule role-axis-domain" pointer-events="none"><line transform="translate(0,200)" x2="0" y2="-200" stroke="#888" stroke-width="1" opacity="1"/></g><g class="mark-text role-axis-title" pointer-events="none"><text text-anchor="middle" transform="translate(-36.576171875,100) rotate(-90) translate(0,-2)" font-family="sans-serif" font-size="11px" font-weight="bold" fill="#000" opacity="1">Percentage</text></g></g><path class="foreground" aria-hidden="true" d="" pointer-events="none" display="none"/></g></g><g class="mark-rect role-mark marks" role="graphics-symbol" aria-roledescription="rect mark container"><path d="M444.5999999999999,47.50973685101771h10.8v152.49026314898228h-10.8Z" fill="rgb(37, 117, 181)" opacity="1"/><path d="M888.5999999999999,199.89365665323265h10.8v0.10634334676734625h-10.8Z" fill="rgb(207, 225, 242)" opacity="1"/><path d="M480.5999999999999,47.893792122464184h10.8v152.1062078775358h-10.8Z" fill="rgb(38, 117, 182)" opacity="1"/><path d="M456.5999999999999,47.688556236664745h10.8v152.31144376333526h-10.8Z" fill="rgb(37, 117, 181)" opacity="1"/><path d="M528.5999999999999,80.6952958309344h10.8v119.3047041690656h-10.8Z" fill="rgb(69, 146, 198)" opacity="1"/><path d="M1068.6,199.99593592305348h10.8v0.00406407694651989h-10.8Z" fill="rgb(207, 225, 242)" opacity="1"/><path d="M12.599999999999909,1.7472144139262458h10.8v198.25278558607374h-10.8Z" fill="rgb(10, 74, 144)" opacity="1"/><path d="M396.5999999999999,47.352931215497684h10.8v152.64706878450232h-10.8Z" fill="rgb(37, 116, 181)" opacity="1"/><path d="M492.5999999999999,47.893792122464184h10.8v152.1062078775358h-10.8Z" fill="rgb(38, 117, 182)" opacity="1"/><path d="M324.5999999999999,47.28926067666881h10.8v152.71073932333118h-10.8Z" fill="rgb(37, 116, 181)" opacity="1"/><path d="M408.5999999999999,47.352931215497684h10.8v152.64706878450232h-10.8Z" fill="rgb(37, 116, 181)" opacity="1"/><path d="M900.5999999999999,199.89365665323265h10.8v0.10634334676734625h-10.8Z" fill="rgb(207, 225, 242)" opacity="1"/><path d="M504.5999999999999,47.893792122464184h10.8v152.1062078775358h-10.8Z" fill="rgb(38, 117, 182)" opacity="1"/><path d="M708.5999999999999,173.8896603109019h10.8v26.11033968909811h-10.8Z" fill="rgb(183, 213, 234)" opacity="1"/><path d="M540.5999999999999,82.73376909269483h10.8v117.26623090730517h-10.8Z" fill="rgb(71, 147, 199)" opacity="1"/><path d="M336.5999999999999,47.28926067666881h10.8v152.71073932333118h-10.8Z" fill="rgb(37, 116, 181)" opacity="1"/><path d="M912.5999999999999,199.89365665323265h10.8v0.10634334676734625h-10.8Z" fill="rgb(207, 225, 242)" opacity="1"/><path d="M924.5999999999999,199.89365665323265h10.8v0.10634334676734625h-10.8Z" fill="rgb(207, 225, 242)" opacity="1"/><path d="M1164.6,200h10.8v0h-10.8Z" fill="rgb(207, 225, 242)" opacity="1"/><path d="M1080.6,199.99593592305348h10.8v0.00406407694651989h-10.8Z" fill="rgb(207, 225, 242)" opacity="1"/><path d="M1092.6,199.99593592305348h10.8v0.00406407694651989h-10.8Z" fill="rgb(207, 225, 242)" opacity="1"/><path d="M216.5999999999999,44.17312967792191h10.8v155.8268703220781h-10.8Z" fill="rgb(34, 114, 180)" opacity="1"/><path d="M72.59999999999991,24.821011277813533h10.8v175.17898872218646h-10.8Z" fill="rgb(20, 95, 166)" opacity="1"/><path d="M936.5999999999999,199.89365665323265h10.8v0.10634334676734625h-10.8Z" fill="rgb(207, 225, 242)" opacity="1"/><path d="M648.5999999999999,142.77474853523896h10.8v57.225251464761044h-10.8Z" fill="rgb(146, 194, 223)" opacity="1"/><path d="M720.5999999999999,173.8896603109019h10.8v26.11033968909811h-10.8Z" fill="rgb(183, 213, 234)" opacity="1"/><path d="M792.5999999999999,174.23612287059302h10.8v25.76387712940698h-10.8Z" fill="rgb(183, 213, 234)" opacity="1"/><path d="M852.5999999999999,199.4679445930843h10.8v0.5320554069157026h-10.8Z" fill="rgb(207, 225, 242)" opacity="1"/><path d="M1104.6,199.99593592305348h10.8v0.00406407694651989h-10.8Z" fill="rgb(207, 225, 242)" opacity="1"/><path d="M564.5999999999999,105.41301181969045h10.8v94.58698818030955h-10.8Z" fill="rgb(97, 166, 209)" opacity="1"/><path d="M348.5999999999999,47.28926067666881h10.8v152.71073932333118h-10.8Z" fill="rgb(37, 116, 181)" opacity="1"/><path d="M300.5999999999999,46.35249094049514h10.8v153.64750905950487h-10.8Z" fill="rgb(36, 116, 181)" opacity="1"/><path d="M168.5999999999999,27.89006671859653h10.8v172.10993328140347h-10.8Z" fill="rgb(22, 98, 168)" opacity="1"/><path d="M108.59999999999991,27.752565448572497h10.8v172.2474345514275h-10.8Z" fill="rgb(22, 98, 168)" opacity="1"/><path d="M96.59999999999991,26.350458902021877h10.8v173.64954109797813h-10.8Z" fill="rgb(21, 97, 167)" opacity="1"/><path d="M948.5999999999999,199.89365665323265h10.8v0.10634334676734625h-10.8Z" fill="rgb(207, 225, 242)" opacity="1"/><path d="M672.5999999999999,169.80255359501473h10.8v30.19744640498527h-10.8Z" fill="rgb(178, 211, 232)" opacity="1"/><path d="M420.5999999999999,47.352931215497684h10.8v152.64706878450232h-10.8Z" fill="rgb(37, 116, 181)" opacity="1"/><path d="M660.5999999999999,142.77474853523896h10.8v57.225251464761044h-10.8Z" fill="rgb(146, 194, 223)" opacity="1"/><path d="M468.5999999999999,47.74782402546822h10.8v152.25217597453178h-10.8Z" fill="rgb(37, 117, 182)" opacity="1"/><path d="M732.5999999999999,173.8896603109019h10.8v26.11033968909811h-10.8Z" fill="rgb(183, 213, 234)" opacity="1"/><path d="M180.5999999999999,27.89006671859653h10.8v172.10993328140347h-10.8Z" fill="rgb(22, 98, 168)" opacity="1"/><path d="M960.5999999999999,199.89365665323265h10.8v0.10634334676734625h-10.8Z" fill="rgb(207, 225, 242)" opacity="1"/><path d="M972.5999999999999,199.89365665323265h10.8v0.10634334676734625h-10.8Z" fill="rgb(207, 225, 242)" opacity="1"/><path d="M612.5999999999999,108.18572831645612h10.8v91.81427168354388h-10.8Z" fill="rgb(100, 169, 210)" opacity="1"/><path d="M120.59999999999991,27.752565448572497h10.8v172.2474345514275h-10.8Z" fill="rgb(22, 98, 168)" opacity="1"/><path d="M192.5999999999999,27.89006671859653h10.8v172.10993328140347h-10.8Z" fill="rgb(22, 98, 168)" opacity="1"/><path d="M984.5999999999999,199.89365665323265h10.8v0.10634334676734625h-10.8Z" fill="rgb(207, 225, 242)" opacity="1"/><path d="M1116.6,199.99593592305348h10.8v0.00406407694651989h-10.8Z" fill="rgb(207, 225, 242)" opacity="1"/><path d="M996.5999999999999,199.89365665323265h10.8v0.10634334676734625h-10.8Z" fill="rgb(207, 225, 242)" opacity="1"/><path d="M840.5999999999999,174.25339519761573h10.8v25.74660480238427h-10.8Z" fill="rgb(183, 213, 234)" opacity="0.5"/><path d="M228.5999999999999,44.17312967792191h10.8v155.8268703220781h-10.8Z" fill="rgb(34, 114, 180)" opacity="1"/><path d="M744.5999999999999,173.8896603109019h10.8v26.11033968909811h-10.8Z" fill="rgb(183, 213, 234)" opacity="1"/><path d="M1176.6,200h10.8v0h-10.8Z" fill="rgb(207, 225, 242)" opacity="1"/><path d="M36.59999999999991,21.06106275612152h10.8v178.93893724387848h-10.8Z" fill="rgb(18, 92, 163)" opacity="1"/><path d="M1128.6,199.99593592305348h10.8v0.00406407694651989h-10.8Z" fill="rgb(207, 225, 242)" opacity="1"/><path d="M864.5999999999999,199.57022386290512h10.8v0.4297761370948763h-10.8Z" fill="rgb(207, 225, 242)" opacity="1"/><path d="M1008.5999999999999,199.89365665323265h10.8v0.10634334676734625h-10.8Z" fill="rgb(207, 225, 242)" opacity="1"/><path d="M516.5999999999999,48.84783418566059h10.8v151.1521658143394h-10.8Z" fill="rgb(38, 118, 182)" opacity="1"/><path d="M1020.5999999999999,199.89365665323265h10.8v0.10634334676734625h-10.8Z" fill="rgb(207, 225, 242)" opacity="1"/><path d="M756.5999999999999,173.8896603109019h10.8v26.11033968909811h-10.8Z" fill="rgb(183, 213, 234)" opacity="1"/><path d="M876.5999999999999,199.57022386290512h10.8v0.4297761370948763h-10.8Z" fill="rgb(207, 225, 242)" opacity="1"/><path d="M804.5999999999999,174.23612287059302h10.8v25.76387712940698h-10.8Z" fill="rgb(183, 213, 234)" opacity="1"/><path d="M816.5999999999999,174.23612287059302h10.8v25.76387712940698h-10.8Z" fill="rgb(183, 213, 234)" opacity="1"/><path d="M684.5999999999999,169.80255359501473h10.8v30.19744640498527h-10.8Z" fill="rgb(178, 211, 232)" opacity="1"/><path d="M60.59999999999991,24.786466623768067h10.8v175.21353337623194h-10.8Z" fill="rgb(20, 95, 166)" opacity="1"/><path d="M240.5999999999999,44.17312967792191h10.8v155.8268703220781h-10.8Z" fill="rgb(34, 114, 180)" opacity="1"/><path d="M252.5999999999999,44.17312967792191h10.8v155.8268703220781h-10.8Z" fill="rgb(34, 114, 180)" opacity="1"/><path d="M360.5999999999999,47.28926067666881h10.8v152.71073932333118h-10.8Z" fill="rgb(37, 116, 181)" opacity="1"/><path d="M312.5999999999999,46.49676567209673h10.8v153.50323432790327h-10.8Z" fill="rgb(36, 116, 181)" opacity="1"/><path d="M768.5999999999999,173.8896603109019h10.8v26.11033968909811h-10.8Z" fill="rgb(183, 213, 234)" opacity="1"/><path d="M24.59999999999991,1.7506011447150138h10.8v198.249398855285h-10.8Z" fill="rgb(10, 74, 144)" opacity="1"/><path d="M132.5999999999999,27.754597487045764h10.8v172.24540251295423h-10.8Z" fill="rgb(22, 98, 168)" opacity="1"/><path d="M828.5999999999999,174.23612287059302h10.8v25.76387712940698h-10.8Z" fill="rgb(183, 213, 234)" opacity="1"/><path d="M84.59999999999991,26.2691773630914h10.8v173.7308226369086h-10.8Z" fill="rgb(21, 97, 167)" opacity="1"/><path d="M780.5999999999999,173.8896603109019h10.8v26.11033968909811h-10.8Z" fill="rgb(183, 213, 234)" opacity="1"/><path d="M636.5999999999999,110.97029837098249h10.8v89.02970162901751h-10.8Z" fill="rgb(104, 171, 211)" opacity="1"/><path d="M576.5999999999999,105.41301181969045h10.8v94.58698818030955h-10.8Z" fill="rgb(97, 166, 209)" opacity="1"/><path d="M372.5999999999999,47.28926067666881h10.8v152.71073932333118h-10.8Z" fill="rgb(37, 116, 181)" opacity="1"/><path d="M144.5999999999999,27.754597487045764h10.8v172.24540251295423h-10.8Z" fill="rgb(22, 98, 168)" opacity="1"/><path d="M156.5999999999999,27.754597487045764h10.8v172.24540251295423h-10.8Z" fill="rgb(22, 98, 168)" opacity="1"/><path d="M1032.6,199.89365665323265h10.8v0.10634334676734625h-10.8Z" fill="rgb(207, 225, 242)" opacity="1"/><path d="M588.5999999999999,105.41301181969045h10.8v94.58698818030955h-10.8Z" fill="rgb(97, 166, 209)" opacity="1"/><path d="M432.5999999999999,47.352931215497684h10.8v152.64706878450232h-10.8Z" fill="rgb(37, 116, 181)" opacity="1"/><path d="M552.5999999999999,95.0651945676838h10.8v104.9348054323162h-10.8Z" fill="rgb(85, 158, 204)" opacity="1"/><path d="M48.59999999999991,21.917905645680236h10.8v178.08209435431976h-10.8Z" fill="rgb(18, 92, 164)" opacity="1"/><path d="M1044.6,199.89365665323265h10.8v0.10634334676734625h-10.8Z" fill="rgb(207, 225, 242)" opacity="1"/><path d="M384.5999999999999,47.28926067666881h10.8v152.71073932333118h-10.8Z" fill="rgb(37, 116, 181)" opacity="1"/><path d="M264.5999999999999,44.17312967792191h10.8v155.8268703220781h-10.8Z" fill="rgb(34, 114, 180)" opacity="1"/><path d="M624.5999999999999,108.18572831645612h10.8v91.81427168354388h-10.8Z" fill="rgb(100, 169, 210)" opacity="1"/><path d="M1056.6,199.89365665323265h10.8v0.10634334676734625h-10.8Z" fill="rgb(207, 225, 242)" opacity="1"/><path d="M204.5999999999999,27.89006671859653h10.8v172.10993328140347h-10.8Z" fill="rgb(22, 98, 168)" opacity="1"/><path d="M1140.6,199.99593592305348h10.8v0.00406407694651989h-10.8Z" fill="rgb(207, 225, 242)" opacity="1"/><path d="M276.5999999999999,44.17312967792191h10.8v155.8268703220781h-10.8Z" fill="rgb(34, 114, 180)" opacity="1"/><path d="M0.599999999999909,1.738070240796552h10.8v198.26192975920344h-10.8Z" fill="rgb(10, 74, 144)" opacity="1"/><path d="M696.5999999999999,169.80255359501473h10.8v30.19744640498527h-10.8Z" fill="rgb(178, 211, 232)" opacity="1"/><path d="M288.5999999999999,44.17312967792191h10.8v155.8268703220781h-10.8Z" fill="rgb(34, 114, 180)" opacity="1"/><path d="M1152.6,199.99593592305348h10.8v0.00406407694651989h-10.8Z" fill="rgb(207, 225, 242)" opacity="1"/><path d="M1188.6,200h10.8v0h-10.8Z" fill="rgb(207, 225, 242)" opacity="1"/><path d="M600.5999999999999,105.41301181969045h10.8v94.58698818030955h-10.8Z" fill="rgb(97, 166, 209)" opacity="1"/></g><g class="mark-path role-mark voronoi" role="graphics-symbol" aria-roledescription="path mark container"><path transform="translate(0,0)" d="M451.3093041785243,0L448.93331244468834,159.44524528403747L436.7327555787486,190.32755699556105L439.2197917063873,0Z" stroke-width="0.35"/><path transform="translate(0,0)" d="M882.5927750574742,200L883.9157963611369,150.91327744513933L894.5999999999999,130.91185212608997L894.5999999999999,200Z" stroke-width="0.35"/><path transform="translate(0,0)" d="M486.5999999999999,0L486.5999999999999,90.63479982835076L473.85229899547727,109.28911682721079L475.18169269594705,0Z" stroke-width="0.35"/><path transform="translate(0,0)" d="M451.3093041785243,0L462.83567930123087,0L462.1910173890748,130.52524992158885L448.93331244468834,159.44524528403747Z" stroke-width="0.35"/><path transform="translate(0,0)" d="M530.7612062967447,104.31258429953154L475.50053331718954,196.6066342302783L473.17063744657986,200L433.3733584810816,200L436.7327555787486,190.32755699556105L448.93331244468834,159.44524528403747L462.1910173890748,130.52524992158885L473.85229899547727,109.28911682721079L486.5999999999999,90.63479982835076L498.5999999999999,77.46467190252503L508.8852348349085,69.93923531791918L538.4955838610861,58.78217067421748Z" stroke-width="0.35"/><path transform="translate(0,0)" d="M1062.5995294837217,200L1064.3041839807354,0L1074.6,0L1074.6,200Z" stroke-width="0.35"/><path transform="translate(0,0)" d="M18.600493589985152,0L18.595169103992767,18.865931747669727L6.575570409040338,33.80186598344978L6.601327918595286,0Z" stroke-width="0.35"/><path transform="translate(0,0)" d="M389.78990432592366,200L390.85107997307153,0L402.5999999999999,0L402.5999999999999,200Z" stroke-width="0.35"/><path transform="translate(0,0)" d="M498.5999999999999,0L498.5999999999999,77.46467190252503L486.5999999999999,90.63479982835076L486.5999999999999,0Z" stroke-width="0.35"/><path transform="translate(0,0)" d="M308.48862314796776,200L321.69687322416917,0L330.5999999999999,0L330.5999999999999,200Z" stroke-width="0.35"/><path transform="translate(0,0)" d="M414.5999999999999,0L414.5999999999999,200L402.5999999999999,200L402.5999999999999,0Z" stroke-width="0.35"/><path transform="translate(0,0)" d="M894.5999999999999,200L894.5999999999999,130.91185212608997L906.5999999999999,102.83101522642286L906.5999999999999,200Z" stroke-width="0.35"/><path transform="translate(0,0)" d="M514.4456491983324,0L508.8852348349085,69.93923531791918L498.5999999999999,77.46467190252503L498.5999999999999,0Z" stroke-width="0.35"/><path transform="translate(0,0)" d="M693.0110028874221,200L714.5999999999999,136.6133591902802L714.5999999999999,200Z" stroke-width="0.35"/><path transform="translate(0,0)" d="M584.4453195263955,52.07131178303164L530.7612062967447,104.31258429953154L538.4955838610861,58.78217067421748L600.553269958693,14.829289621099676L594.5999999999999,30.579206927483597Z" stroke-width="0.35"/><path transform="translate(0,0)" d="M342.5999999999999,0L342.5999999999999,200L330.5999999999999,200L330.5999999999999,0Z" stroke-width="0.35"/><path transform="translate(0,0)" d="M906.5999999999999,200L906.5999999999999,102.83101522642286L918.5999999999999,69.13401094682234L918.5999999999999,200Z" stroke-width="0.35"/><path transform="translate(0,0)" d="M918.5999999999999,200L918.5999999999999,69.13401094682234L930.5999999999999,29.82083928728838L930.5999999999999,200Z" stroke-width="0.35"/><path transform="translate(0,0)" d="M1170.6,200L1158.599999311803,200L1158.6677339275784,0L1170.6,0Z" stroke-width="0.35"/><path transform="translate(0,0)" d="M1086.6,0L1086.6,200L1074.6,200L1074.6,0Z" stroke-width="0.35"/><path transform="translate(0,0)" d="M1086.6,200L1086.6,0L1098.6,0L1098.6,200Z" stroke-width="0.35"/><path transform="translate(0,0)" d="M222.5999999999999,200L143.1939918578063,200L150.5999999999999,167.5225178451543L161.47141002984733,127.79396024892024L174.5999999999999,89.09286819139547L186.5999999999999,62.56223319482734L198.5999999999999,44.875143197115264L222.5999999999999,27.188053199403175Z" stroke-width="0.35"/><path transform="translate(0,0)" d="M66.671403048424,0L81.68279493667524,0L66.304569801514,127.4292386059613Z" stroke-width="0.35"/><path transform="translate(0,0)" d="M930.5999999999999,200L930.5999999999999,29.82083928728838L938.5647303765833,0L942.5999999999999,0L942.5999999999999,200Z" stroke-width="0.35"/><path transform="translate(0,0)" d="M594.0465148287132,163.5248392223667L618.5999999999999,137.9697509147099L625.050328435118,133.49411438428368L654.5999999999999,122.34485517850446L654.5999999999999,161.61649769127808L611.3740909203503,200L573.2113268901604,200L582.5999999999999,181.90703850158218Z" stroke-width="0.35"/><path transform="translate(0,0)" d="M720.8278222045699,100.04281104954362L726.5999999999999,88.91211364558407L726.5999999999998,200L714.5999999999999,200L714.5999999999999,136.6133591902802Z" stroke-width="0.35"/><path transform="translate(0,0)" d="M785.8511469191286,200L791.6255229139808,0L798.5999999999999,0L798.5999999999999,200Z" stroke-width="0.35"/><path transform="translate(0,0)" d="M826.7772024628509,200L834.5736029011126,192.5842211245694L858.7572051055582,181.07486508168486L858.5959010238328,200Z" stroke-width="0.35"/><path transform="translate(0,0)" d="M1098.6,200L1098.6,0L1110.6,0L1110.6,200Z" stroke-width="0.35"/><path transform="translate(0,0)" d="M570.5999999999999,86.32312492570259L570.5999999999999,200L473.17063744657986,200L475.50053331718954,196.6066342302783Z" stroke-width="0.35"/><path transform="translate(0,0)" d="M354.5999999999999,0L354.5999999999999,200L342.5999999999999,200L342.5999999999999,0Z" stroke-width="0.35"/><path transform="translate(0,0)" d="M274.54882345451836,200L282.5999999999999,111.33721590361434L302.82033461859066,0L307.1581583990494,0L304.7535795390229,200Z" stroke-width="0.35"/><path transform="translate(0,0)" d="M174.5999999999999,0L174.5999999999999,89.09286819139547L161.47141002984733,127.79396024892024L162.91408916249313,0Z" stroke-width="0.35"/><path transform="translate(0,0)" d="M114.59999999999991,0L114.59999999999991,200L85.9079161552355,200L89.85620546629286,136.11992411638894L105.76075852625641,0Z" stroke-width="0.35"/><path transform="translate(0,0)" d="M105.76075852625641,0L89.85620546629286,136.11992411638894L90.77820854223283,0Z" stroke-width="0.35"/><path transform="translate(0,0)" d="M942.5999999999999,200L942.5999999999999,0L954.5999999999999,0L954.5999999999999,200Z" stroke-width="0.35"/><path transform="translate(0,0)" d="M611.3740909203503,200L654.5999999999999,161.61649769127808L678.5999999999999,150.9608044389756L678.5999999999999,200Z" stroke-width="0.35"/><path transform="translate(0,0)" d="M426.5999999999999,0L426.5999999999999,200L414.5999999999999,200L414.5999999999999,0Z" stroke-width="0.35"/><path transform="translate(0,0)" d="M654.5999999999999,122.34485517850446L739.7241706320451,58.10918738302419L738.5999999999999,61.14407733458951L726.5999999999999,88.91211364558407L720.8278222045699,100.04281104954362L690.5999999999999,140.3051111866731L678.5999999999999,150.9608044389756L654.5999999999999,161.61649769127808Z" stroke-width="0.35"/><path transform="translate(0,0)" d="M475.18169269594705,0L473.85229899547727,109.28911682721079L462.1910173890748,130.52524992158885L462.83567930123087,0Z" stroke-width="0.35"/><path transform="translate(0,0)" d="M726.5999999999998,200L726.5999999999999,88.91211364558407L738.5999999999999,61.14407733458951L738.5999999999999,200Z" stroke-width="0.35"/><path transform="translate(0,0)" d="M186.5999999999999,0L186.5999999999999,62.56223319482734L174.5999999999999,89.09286819139547L174.5999999999999,0Z" stroke-width="0.35"/><path transform="translate(0,0)" d="M954.5999999999999,200L954.5999999999999,0L966.5999999999999,0L966.5999999999999,200Z" stroke-width="0.35"/><path transform="translate(0,0)" d="M966.5999999999999,200L966.5999999999999,0L978.5999999999999,0L978.5999999999999,200Z" stroke-width="0.35"/><path transform="translate(0,0)" d="M594.5999999999999,158.73399813696307L618.5999999999999,54.864741999183494L618.5999999999999,137.9697509147099L594.0465148287132,163.5248392223667Z" stroke-width="0.35"/><path transform="translate(0,0)" d="M126.6046996954427,0L126.57083238755493,200L114.59999999999991,200L114.59999999999991,0Z" stroke-width="0.35"/><path transform="translate(0,0)" d="M198.5999999999999,0L198.5999999999999,44.875143197115264L186.5999999999999,62.56223319482734L186.5999999999999,0Z" stroke-width="0.35"/><path transform="translate(0,0)" d="M978.5999999999999,200L978.5999999999999,0L990.5999999999999,0L990.5999999999999,200Z" stroke-width="0.35"/><path transform="translate(0,0)" d="M1110.6,200L1110.6,0L1122.6,0L1122.6,200Z" stroke-width="0.35"/><path transform="translate(0,0)" d="M990.5999999999999,200L990.5999999999999,0L1002.5999999999999,0L1002.5999999999999,200Z" stroke-width="0.35"/><path transform="translate(0,0)" d="M938.5647303765833,0L930.5999999999999,29.82083928728838L918.5999999999999,69.13401094682234L906.5999999999999,102.83101522642286L894.5999999999999,130.91185212608997L883.9157963611369,150.91327744513933L870.5999999999999,169.8480609181646L858.7572051055582,181.07486508168486L834.5736029011126,192.5842211245694L834.8508010383357,0Z" stroke-width="0.35"/><path transform="translate(0,0)" d="M234.5999999999999,200L222.5999999999999,200L222.5999999999999,27.188053199403175L234.5999999999999,9.5009632016911Z" stroke-width="0.35"/><path transform="translate(0,0)" d="M739.7241706320451,58.10918738302419L750.5999999999999,39.44101377915473L750.5999999999999,200L738.5999999999999,200L738.5999999999999,61.14407733458951Z" stroke-width="0.35"/><path transform="translate(0,0)" d="M1170.6,200L1170.6,0L1182.6,0L1182.6,200Z" stroke-width="0.35"/><path transform="translate(0,0)" d="M0,46.05258411304126L6.575570409040338,33.80186598344978L18.595169103992767,18.865931747669727L43.91062733783098,3.1342778432071103L37.299235642180335,95.72616524121892L21.113312837817833,200L0,200Z" stroke-width="0.35"/><path transform="translate(0,0)" d="M1122.6,200L1122.6,0L1134.6,0L1134.6,200Z" stroke-width="0.35"/><path transform="translate(0,0)" d="M858.5959010238328,200L858.7572051055582,181.07486508168486L870.5999999999999,169.8480609181646L870.5999999999999,200Z" stroke-width="0.35"/><path transform="translate(0,0)" d="M1002.5999999999999,200L1002.5999999999999,0L1014.5999999999999,0L1014.5999999999999,200Z" stroke-width="0.35"/><path transform="translate(0,0)" d="M610.539239025407,0L600.553269958693,14.829289621099676L538.4955838610861,58.78217067421748L508.8852348349085,69.93923531791918L514.4456491983324,0Z" stroke-width="0.35"/><path transform="translate(0,0)" d="M1014.5999999999999,200L1014.5999999999999,0L1026.6,0L1026.6,200Z" stroke-width="0.35"/><path transform="translate(0,0)" d="M750.5999999999999,200L750.5999999999999,39.44101377915473L762.5999999999999,16.554576987646413L762.5999999999999,200Z" stroke-width="0.35"/><path transform="translate(0,0)" d="M870.5999999999999,200L870.5999999999999,169.8480609181646L883.9157963611369,150.91327744513933L882.5927750574742,200Z" stroke-width="0.35"/><path transform="translate(0,0)" d="M798.5999999999999,200L798.5999999999999,0L810.5999999999999,0L810.5999999999999,200Z" stroke-width="0.35"/><path transform="translate(0,0)" d="M810.5999999999999,200L810.5999999999999,0L822.5999999999999,0L822.5999999999999,200Z" stroke-width="0.35"/><path transform="translate(0,0)" d="M678.5999999999999,200L678.5999999999999,150.9608044389756L690.5999999999999,140.3051111866731L690.5999999999999,200Z" stroke-width="0.35"/><path transform="translate(0,0)" d="M66.671403048424,0L66.304569801514,127.4292386059613L61.82117616485516,200L21.113312837817833,200L37.299235642180335,95.72616524121892L60.18226415825934,0Z" stroke-width="0.35"/><path transform="translate(0,0)" d="M234.5999999999999,200L234.5999999999999,9.5009632016911L238.89735505520463,0L246.5999999999999,0L246.5999999999999,200Z" stroke-width="0.35"/><path transform="translate(0,0)" d="M258.5999999999999,0L258.5999999999999,200L246.5999999999999,200L246.5999999999999,0Z" stroke-width="0.35"/><path transform="translate(0,0)" d="M366.5999999999999,0L366.5999999999999,200L354.5999999999999,200L354.5999999999999,0Z" stroke-width="0.35"/><path transform="translate(0,0)" d="M321.69687322416917,0L308.48862314796776,200L304.7535795390229,200L307.1581583990494,0Z" stroke-width="0.35"/><path transform="translate(0,0)" d="M762.5999999999999,200L762.5999999999999,16.554576987646413L770.4909350094543,0L774.5999999999999,0L774.5999999999999,200Z" stroke-width="0.35"/><path transform="translate(0,0)" d="M46.54437465677208,0L43.91062733783098,3.1342778432071103L18.595169103992767,18.865931747669727L18.600493589985152,0Z" stroke-width="0.35"/><path transform="translate(0,0)" d="M138.59999999999994,0L138.5999999999999,200L126.57083238755493,200L126.6046996954427,0Z" stroke-width="0.35"/><path transform="translate(0,0)" d="M822.5999999999999,200L822.5999999999999,0L834.8508010383357,0L834.5736029011126,192.5842211245694L826.7772024628509,200Z" stroke-width="0.35"/><path transform="translate(0,0)" d="M90.77820854223283,0L89.85620546629286,136.11992411638894L85.9079161552355,200L61.82117616485516,200L66.304569801514,127.4292386059613L81.68279493667524,0Z" stroke-width="0.35"/><path transform="translate(0,0)" d="M774.5999999999999,200L774.5999999999999,0L791.6255229139808,0L785.8511469191286,200Z" stroke-width="0.35"/><path transform="translate(0,0)" d="M625.050328435118,133.49411438428368L656.0273045492842,0L770.4909350094543,0L762.5999999999999,16.554576987646413L750.5999999999999,39.44101377915473L739.7241706320451,58.10918738302419L654.5999999999999,122.34485517850446Z" stroke-width="0.35"/><path transform="translate(0,0)" d="M582.5999999999999,58.49116838973351L582.5999999999999,181.90703850158218L573.2113268901604,200L570.5999999999999,200L570.5999999999999,86.32312492570259Z" stroke-width="0.35"/><path transform="translate(0,0)" d="M366.5999999999999,200L366.5999999999999,0L378.5999999999999,0L378.5999999999999,200Z" stroke-width="0.35"/><path transform="translate(0,0)" d="M138.5999999999999,200L138.59999999999994,0L150.5999999999999,0L150.5999999999999,167.5225178451543L143.1939918578063,200Z" stroke-width="0.35"/><path transform="translate(0,0)" d="M162.91408916249313,0L161.47141002984733,127.79396024892024L150.5999999999999,167.5225178451543L150.5999999999999,0Z" stroke-width="0.35"/><path transform="translate(0,0)" d="M1026.6,200L1026.6,0L1038.6,0L1038.6,200Z" stroke-width="0.35"/><path transform="translate(0,0)" d="M582.5999999999999,58.49116838973351L584.4453195263955,52.07131178303164L594.5999999999999,30.579206927483597L594.5999999999999,158.73399813696307L594.0465148287132,163.5248392223667L582.5999999999999,181.90703850158218Z" stroke-width="0.35"/><path transform="translate(0,0)" d="M439.2197917063873,0L436.7327555787486,190.32755699556105L433.3733584810816,200L426.5999999999999,200L426.5999999999999,0Z" stroke-width="0.35"/><path transform="translate(0,0)" d="M582.5999999999999,58.49116838973351L570.5999999999999,86.32312492570259L475.50053331718954,196.6066342302783L530.7612062967447,104.31258429953154L584.4453195263955,52.07131178303164Z" stroke-width="0.35"/><path transform="translate(0,0)" d="M46.54437465677208,0L60.18226415825934,0L37.299235642180335,95.72616524121892L43.91062733783098,3.1342778432071103Z" stroke-width="0.35"/><path transform="translate(0,0)" d="M1038.6,200L1038.6,0L1050.6,0L1050.6,200Z" stroke-width="0.35"/><path transform="translate(0,0)" d="M378.5999999999999,200L378.5999999999999,0L390.85107997307153,0L389.78990432592366,200Z" stroke-width="0.35"/><path transform="translate(0,0)" d="M270.5999999999999,0L270.5999999999999,200L258.5999999999999,200L258.5999999999999,0Z" stroke-width="0.35"/><path transform="translate(0,0)" d="M618.5999999999999,54.864741999183494L624.9385156346636,0L656.0273045492842,0L625.050328435118,133.49411438428368L618.5999999999999,137.9697509147099Z" stroke-width="0.35"/><path transform="translate(0,0)" d="M1050.6,200L1050.6,0L1064.3041839807354,0L1062.5995294837217,200Z" stroke-width="0.35"/><path transform="translate(0,0)" d="M238.89735505520463,0L234.5999999999999,9.5009632016911L222.5999999999999,27.188053199403175L198.5999999999999,44.875143197115264L198.5999999999999,0Z" stroke-width="0.35"/><path transform="translate(0,0)" d="M1134.6,200L1134.6,0L1146.6,0L1146.6,200Z" stroke-width="0.35"/><path transform="translate(0,0)" d="M282.5999999999999,0L282.5999999999999,111.33721590361434L274.54882345451836,200L270.5999999999999,200L270.5999999999999,0Z" stroke-width="0.35"/><path transform="translate(0,0)" d="M0,0L6.601327918595286,0L6.575570409040338,33.80186598344978L0,46.05258411304126Z" stroke-width="0.35"/><path transform="translate(0,0)" d="M690.5999999999999,200L690.5999999999999,140.3051111866731L720.8278222045699,100.04281104954362L714.5999999999999,136.6133591902802L693.0110028874221,200Z" stroke-width="0.35"/><path transform="translate(0,0)" d="M302.82033461859066,0L282.5999999999999,111.33721590361434L282.5999999999999,0Z" stroke-width="0.35"/><path transform="translate(0,0)" d="M1146.6,200L1146.6,0L1158.6677339275784,0L1158.599999311803,200Z" stroke-width="0.35"/><path transform="translate(0,0)" d="M1182.6,0L1200,0L1200,200L1182.6,200Z" stroke-width="0.35"/><path transform="translate(0,0)" d="M594.5999999999999,30.579206927483597L600.553269958693,14.829289621099676L610.539239025407,0L624.9385156346636,0L618.5999999999999,54.864741999183494L594.5999999999999,158.73399813696307Z" stroke-width="0.35"/></g><g class="mark-group role-title"><g transform="translate(600,-22)"><path class="background" aria-hidden="true" d="M0,0h0v0h0Z" pointer-events="none"/><g><g class="mark-text role-title-text" role="graphics-symbol" aria-roledescription="title" aria-label="Title text 'Proportions of Missing Values'" pointer-events="none"><text text-anchor="middle" transform="translate(0,10)" font-family="sans-serif" font-size="13px" font-weight="bold" fill="#000" opacity="1">Proportions of Missing Values</text></g></g><path class="foreground" aria-hidden="true" d="" pointer-events="none" display="none"/></g></g></g><path class="foreground" aria-hidden="true" d="" display="none"/></g></g></g></svg>