<svg xmlns="http://www.w3.org/2000/svg" xmlns:xlink="http://www.w3.org/1999/xlink" version="1.1" class="marks" width="440" height="647" viewBox="0 0 440 647"><rect width="440" height="647" fill="white"/><g fill="none" stroke-miterlimit="10" transform="translate(34,25)"><g class="mark-group role-frame root" role="graphics-object" aria-roledescription="group mark container"><g transform="translate(0,0)"><path class="background" aria-hidden="true" d="M0,0h0v0h0Z"/><g><g class="mark-group role-scope concat_0_group" role="graphics-object" aria-roledescription="group mark container"><g transform="translate(0,0)"><path class="background" aria-hidden="true" d="M0.5,0.5h400v150h-400Z" stroke="#ddd"/><g><g class="mark-group role-axis" role="graphics-symbol" aria-roledescription="axis" aria-label="X-axis for a linear scale with values from 0.0 to 1.0"><g transform="translate(0.5,150.5)"><path class="background" aria-hidden="true" d="M0,0h0v0h0Z" pointer-events="none"/><g><g class="mark-rule role-axis-grid" pointer-events="none"><line transform="translate(13,-150)" x2="0" y2="150" stroke="#ddd" stroke-width="1" opacity="1"/><line transform="translate(50,-150)" x2="0" y2="150" stroke="#ddd" stroke-width="1" opacity="1"/><line transform="translate(88,-150)" x2="0" y2="150" stroke="#ddd" stroke-width="1" opacity="1"/><line transform="translate(125,-150)" x2="0" y2="150" stroke="#ddd" stroke-width="1" opacity="1"/><line transform="translate(163,-150)" x2="0" y2="150" stroke="#ddd" stroke-width="1" opacity="1"/><line transform="translate(200,-150)" x2="0" y2="150" stroke="#ddd" stroke-width="1" opacity="1"/><line transform="translate(238,-150)" x2="0" y2="150" stroke="#ddd" stroke-width="1" opacity="1"/><line transform="translate(275,-150)" x2="0" y2="150" stroke="#ddd" stroke-width="1" opacity="1"/><line transform="translate(313,-150)" x2="0" y2="150" stroke="#ddd" stroke-width="1" opacity="1"/><line transform="translate(350,-150)" x2="0" y2="150" stroke="#ddd" stroke-width="1" opacity="1"/><line transform="translate(388,-150)" x2="0" y2="150" stroke="#ddd" stroke-width="1" opacity="1"/></g></g><path class="foreground" aria-hidden="true" d="" pointer-events="none" display="none"/></g></g><g class="mark-group role-axis" role="graphics-symbol" aria-roledescription="axis" aria-label="Y-axis for a linear scale with values from 0.00 to 0.22"><g transform="translate(0.5,0.5)"><path class="background" aria-hidden="true" d="M0,0h0v0h0Z" pointer-events="none"/><g><g class="mark-rule role-axis-grid" pointer-events="none"><line transform="translate(0,150)" x2="400" y2="0" stroke="#ddd" stroke-width="1" opacity="1"/><line transform="translate(0,116)" x2="400" y2="0" stroke="#ddd" stroke-width="1" opacity="1"/><line transform="translate(0,82)" x2="400" y2="0" stroke="#ddd" stroke-width="1" opacity="1"/><line transform="translate(0,48)" x2="400" y2="0" stroke="#ddd" stroke-width="1" opacity="1"/><line transform="translate(0,14)" x2="400" y2="0" stroke="#ddd" stroke-width="1" opacity="1"/></g></g><path class="foreground" aria-hidden="true" d="" pointer-events="none" display="none"/></g></g><g class="mark-group role-axis" role="graphics-symbol" aria-roledescription="axis" aria-label="X-axis for a linear scale with values from −0.03 to 1.03"><g transform="translate(0.5,150.5)"><path class="background" aria-hidden="true" d="M0,0h0v0h0Z" pointer-events="none"/><g><g class="mark-rule role-axis-tick" pointer-events="none"><line transform="translate(13,0)" x2="0" y2="5" stroke="#888" stroke-width="1" opacity="1"/><line transform="translate(50,0)" x2="0" y2="5" stroke="#888" stroke-width="1" opacity="1"/><line transform="translate(88,0)" x2="0" y2="5" stroke="#888" stroke-width="1" opacity="1"/><line transform="translate(125,0)" x2="0" y2="5" stroke="#888" stroke-width="1" opacity="1"/><line transform="translate(163,0)" x2="0" y2="5" stroke="#888" stroke-width="1" opacity="1"/><line transform="translate(200,0)" x2="0" y2="5" stroke="#888" stroke-width="1" opacity="1"/><line transform="translate(238,0)" x2="0" y2="5" stroke="#888" stroke-width="1" opacity="1"/><line transform="translate(275,0)" x2="0" y2="5" stroke="#888" stroke-width="1" opacity="1"/><line transform="translate(313,0)" x2="0" y2="5" stroke="#888" stroke-width="1" opacity="1"/><line transform="translate(350,0)" x2="0" y2="5" stroke="#888" stroke-width="1" opacity="1"/><line transform="translate(388,0)" x2="0" y2="5" stroke="#888" stroke-width="1" opacity="1"/></g><g class="mark-text role-axis-label" pointer-events="none"><text text-anchor="end" transform="translate(12.5,7) rotate(-45) translate(0,8)" font-family="sans-serif" font-size="10px" fill="#000" opacity="1">0.00</text><text text-anchor="end" transform="translate(50.000000000000014,7) rotate(-45) translate(0,8)" font-family="sans-serif" font-size="10px" fill="#000" opacity="1">0.10</text><text text-anchor="end" transform="translate(87.50000000000003,7) rotate(-45) translate(0,8)" font-family="sans-serif" font-size="10px" fill="#000" opacity="1">0.20</text><text text-anchor="end" transform="translate(125.00000000000003,7) rotate(-45) translate(0,8)" font-family="sans-serif" font-size="10px" fill="#000" opacity="1">0.30</text><text text-anchor="end" transform="translate(162.50000000000006,7) rotate(-45) translate(0,8)" font-family="sans-serif" font-size="10px" fill="#000" opacity="1">0.40</text><text text-anchor="end" transform="translate(200.00000000000006,7) rotate(-45) translate(0,8)" font-family="sans-serif" font-size="10px" fill="#000" opacity="1">0.50</text><text text-anchor="end" transform="translate(237.50000000000006,7) rotate(-45) translate(0,8)" font-family="sans-serif" font-size="10px" fill="#000" opacity="1">0.60</text><text text-anchor="end" transform="translate(275.00000000000006,7) rotate(-45) translate(0,8)" font-family="sans-serif" font-size="10px" fill="#000" opacity="1">0.70</text><text text-anchor="end" transform="translate(312.5000000000001,7) rotate(-45) translate(0,8)" font-family="sans-serif" font-size="10px" fill="#000" opacity="1">0.80</text><text text-anchor="end" transform="translate(350.0000000000001,7) rotate(-45) translate(0,8)" font-family="sans-serif" font-size="10px" fill="#000" opacity="1">0.90</text><text text-anchor="end" transform="translate(387.50000000000006,7) rotate(-45) translate(0,8)" font-family="sans-serif" font-size="10px" fill="#000" opacity="1">1.00</text></g><g class="mark-rule role-axis-domain" pointer-events="none"><line transform="translate(0,0)" x2="400" y2="0" stroke="#888" stroke-width="1" opacity="1"/></g></g><path class="foreground" aria-hidden="true" d="" pointer-events="none" display="none"/></g></g><g class="mark-group role-axis" role="graphics-symbol" aria-roledescription="axis" aria-label="Y-axis for a linear scale with values from 0% to 22%"><g transform="translate(0.5,0.5)"><path class="background" aria-hidden="true" d="M0,0h0v0h0Z" pointer-events="none"/><g><g class="mark-rule role-axis-tick" pointer-events="none"><line transform="translate(0,150)" x2="-5" y2="0" stroke="#888" stroke-width="1" opacity="1"/><line transform="translate(0,116)" x2="-5" y2="0" stroke="#888" stroke-width="1" opacity="1"/><line transform="translate(0,82)" x2="-5" y2="0" stroke="#888" stroke-width="1" opacity="1"/><line transform="translate(0,48)" x2="-5" y2="0" stroke="#888" stroke-width="1" opacity="1"/><line transform="translate(0,14)" x2="-5" y2="0" stroke="#888" stroke-width="1" opacity="1"/></g><g class="mark-text role-axis-label" pointer-events="none"><text text-anchor="end" transform="translate(-7,153)" font-family="sans-serif" font-size="10px" fill="#000" opacity="1">0%</text><text text-anchor="end" transform="translate(-7,118.9090909090909)" font-family="sans-serif" font-size="10px" fill="#000" opacity="1">5%</text><text text-anchor="end" transform="translate(-7,84.81818181818181)" font-family="sans-serif" font-size="10px" fill="#000" opacity="1">10%</text><text text-anchor="end" transform="translate(-7,50.727272727272734)" font-family="sans-serif" font-size="10px" fill="#000" opacity="1">15%</text><text text-anchor="end" transform="translate(-7,16.636363636363626)" font-family="sans-serif" font-size="10px" fill="#000" opacity="1">20%</text></g><g class="mark-rule role-axis-domain" pointer-events="none"><line transform="translate(0,150)" x2="0" y2="-150" stroke="#888" stroke-width="1" opacity="1"/></g></g><path class="foreground" aria-hidden="true" d="" pointer-events="none" display="none"/></g></g><g class="mark-rect role-mark concat_0_layer_0_marks" role="graphics-symbol" aria-roledescription="rect mark container"><path d="M5,22.778227631412847h15v127.22177236858715h-15Z" fill="#4c78a8"/><path d="M12.500000000000004,7.838126583681493h15v142.1618734163185h-15Z" fill="#4c78a8"/><path d="M20.000000000000007,57.73275307345819h15v92.26724692654182h-15Z" fill="#4c78a8"/><path d="M27.5,82.07103206002519h15v67.92896793997481h-15Z" fill="#4c78a8"/><path d="M35.00000000000001,100.61338312853874h15v49.38661687146126h-15Z" fill="#4c78a8"/><path d="M42.500000000000014,120.01011400967374h15v29.989885990326258h-15Z" fill="#4c78a8"/><path d="M50.00000000000001,123.05239888299462h15v26.947601117005377h-15Z" fill="#4c78a8"/><path d="M57.500000000000014,124.36283278478557h15v25.637167215214433h-15Z" fill="#4c78a8"/><path d="M65.00000000000001,129.27551670735875h15v20.724483292641253h-15Z" fill="#4c78a8"/><path d="M72.50000000000001,132.31202874410786h15v17.687971255892137h-15Z" fill="#4c78a8"/><path d="M80.00000000000003,138.70255882905323h15v11.297441170946769h-15Z" fill="#4c78a8"/><path d="M87.5,141.52547591264698h15v8.474524087353018h-15Z" fill="#4c78a8"/><path d="M95.00000000000001,143.07836895045213h15v6.9216310495478695h-15Z" fill="#4c78a8"/><path d="M102.50000000000003,144.13479804308537h15v5.865201956914632h-15Z" fill="#4c78a8"/><path d="M110.00000000000003,144.24448193794893h15v5.755518062051067h-15Z" fill="#4c78a8"/><path d="M117.50000000000003,144.34839299624073h15v5.651607003759267h-15Z" fill="#4c78a8"/><path d="M125.00000000000003,145.2143184820057h15v4.7856815179943055h-15Z" fill="#4c78a8"/><path d="M132.50000000000003,145.82046632204117h15v4.17953367795883h-15Z" fill="#4c78a8"/><path d="M140.00000000000003,146.28806608435423h15v3.7119339156457727h-15Z" fill="#4c78a8"/><path d="M147.50000000000003,146.62289060551666h15v3.377109394483341h-15Z" fill="#4c78a8"/><path d="M155.00000000000006,147.36181368670276h15v2.63818631329724h-15Z" fill="#4c78a8"/><path d="M162.50000000000003,147.50613460099692h15v2.4938653990030843h-15Z" fill="#4c78a8"/><path d="M170.00000000000003,147.76013941015466h15v2.2398605898453354h-15Z" fill="#4c78a8"/><path d="M177.50000000000006,148.0949639313171h15v1.9050360686829038h-15Z" fill="#4c78a8"/><path d="M185.00000000000003,148.1122824410324h15v1.8877175589676085h-15Z" fill="#4c78a8"/><path d="M192.50000000000006,148.5452451839149h15v1.4547548160851136h-15Z" fill="#4c78a8"/><path d="M200.00000000000006,148.63761056906313h15v1.3623894309368723h-15Z" fill="#4c78a8"/><path d="M207.50000000000009,148.86275119536202h15v1.1372488046379772h-15Z" fill="#4c78a8"/><path d="M215.00000000000006,148.83965984907496h15v1.1603401509250375h-15Z" fill="#4c78a8"/><path d="M222.50000000000003,149.08211898508915h15v0.9178810149108472h-15Z" fill="#4c78a8"/><path d="M230.00000000000006,149.27262259195743h15v0.727377408042571h-15Z" fill="#4c78a8"/><path d="M237.50000000000006,149.42271634282338h15v0.577283657176622h-15Z" fill="#4c78a8"/><path d="M245.00000000000009,149.49199038168456h15v0.508009618315441h-15Z" fill="#4c78a8"/><path d="M252.50000000000006,149.69981249826813h15v0.3001875017318696h-15Z" fill="#4c78a8"/><path d="M260.00000000000006,149.71713100798345h15v0.2828689920165459h-15Z" fill="#4c78a8"/><path d="M267.5000000000001,149.80949639313172h15v0.19050360686827617h-15Z" fill="#4c78a8"/><path d="M275.00000000000006,149.89031610513643h15v0.109683894863565h-15Z" fill="#4c78a8"/><path d="M282.50000000000006,149.8960889417082h15v0.10391105829179992h-15Z" fill="#4c78a8"/><path d="M290.00000000000006,149.93649879771056h15v0.06350120228944434h-15Z" fill="#4c78a8"/><path d="M297.50000000000006,149.95959014399764h15v0.04040985600235558h-15Z" fill="#4c78a8"/><path d="M305.0000000000001,149.95381730742585h15v0.04618269257414909h-15Z" fill="#4c78a8"/><path d="M312.5000000000001,149.9653629805694h15v0.0346370194305905h-15Z" fill="#4c78a8"/><path d="M320.00000000000006,149.94804447085411h15v0.05195552914588575h-15Z" fill="#4c78a8"/><path d="M327.50000000000006,149.94804447085411h15v0.05195552914588575h-15Z" fill="#4c78a8"/><path d="M335.00000000000006,149.93072596113882h15v0.069274038861181h-15Z" fill="#4c78a8"/><path d="M342.5000000000001,149.9653629805694h15v0.0346370194305905h-15Z" fill="#4c78a8"/><path d="M350.0000000000001,148.97820792679735h15v1.021792073202647h-15Z" fill="#4c78a8"/><path d="M357.50000000000006,149.90763461485173h15v0.09236538514826975h-15Z" fill="#4c78a8"/><path d="M365.00000000000006,149.89031610513643h15v0.109683894863565h-15Z" fill="#4c78a8"/><path d="M372.5,149.76908653712934h15v0.23091346287066017h-15Z" fill="#4c78a8"/></g><g class="mark-rule role-mark concat_0_layer_1_marks" role="graphics-symbol" aria-roledescription="rule mark container"><line transform="translate(50.000000000000014,0)" x2="0" y2="150" stroke="#ff7f0e" stroke-width="1.5" stroke-dasharray="3,2"/></g><g class="mark-rule role-mark concat_0_layer_2_marks" role="graphics-symbol" aria-roledescription="rule mark container"><line transform="translate(31.250000000000007,0)" x2="0" y2="150" stroke="#2ca02c" stroke-width="1.5" stroke-dasharray="3,2"/></g><g class="mark-group role-title"><g transform="translate(200,-18.5)"><path class="background" aria-hidden="true" d="M0,0h0v0h0Z" pointer-events="none"/><g><g class="mark-text role-title-text" role="graphics-symbol" aria-roledescription="title" aria-label="Title text 'Histogram of 'Isolation Forest''" pointer-events="none"><text text-anchor="middle" transform="translate(0,10)" font-family="sans-serif" font-size="13px" font-weight="bold" fill="#000" opacity="1">Histogram of 'Isolation Forest'</text></g></g><path class="foreground" aria-hidden="true" d="" pointer-events="none" display="none"/></g></g></g><path class="foreground" aria-hidden="true" d="" display="none"/></g></g><g class="mark-group role-scope concat_1_group" role="graphics-object" aria-roledescription="group mark container"><g transform="translate(0,219)"><path class="background" aria-hidden="true" d="M0.5,0.5h400v150h-400Z" stroke="#ddd"/><g><g class="mark-group role-axis" role="graphics-symbol" aria-roledescription="axis" aria-label="X-axis for a linear scale with values from 0.0 to 1.0"><g transform="translate(0.5,150.5)"><path class="background" aria-hidden="true" d="M0,0h0v0h0Z" pointer-events="none"/><g><g class="mark-rule role-axis-grid" pointer-events="none"><line transform="translate(12,-150)" x2="0" y2="150" stroke="#ddd" stroke-width="1" opacity="1"/><line transform="translate(50,-150)" x2="0" y2="150" stroke="#ddd" stroke-width="1" opacity="1"/><line transform="translate(87,-150)" x2="0" y2="150" stroke="#ddd" stroke-width="1" opacity="1"/><line transform="translate(125,-150)" x2="0" y2="150" stroke="#ddd" stroke-width="1" opacity="1"/><line transform="translate(162,-150)" x2="0" y2="150" stroke="#ddd" stroke-width="1" opacity="1"/><line transform="translate(200,-150)" x2="0" y2="150" stroke="#ddd" stroke-width="1" opacity="1"/><line transform="translate(237,-150)" x2="0" y2="150" stroke="#ddd" stroke-width="1" opacity="1"/><line transform="translate(275,-150)" x2="0" y2="150" stroke="#ddd" stroke-width="1" opacity="1"/><line transform="translate(312,-150)" x2="0" y2="150" stroke="#ddd" stroke-width="1" opacity="1"/><line transform="translate(350,-150)" x2="0" y2="150" stroke="#ddd" stroke-width="1" opacity="1"/><line transform="translate(387,-150)" x2="0" y2="150" stroke="#ddd" stroke-width="1" opacity="1"/></g></g><path class="foreground" aria-hidden="true" d="" pointer-events="none" display="none"/></g></g><g class="mark-group role-axis" role="graphics-symbol" aria-roledescription="axis" aria-label="Y-axis for a linear scale with values from 0.00 to 0.22"><g transform="translate(0.5,0.5)"><path class="background" aria-hidden="true" d="M0,0h0v0h0Z" pointer-events="none"/><g><g class="mark-rule role-axis-grid" pointer-events="none"><line transform="translate(0,150)" x2="400" y2="0" stroke="#ddd" stroke-width="1" opacity="1"/><line transform="translate(0,116)" x2="400" y2="0" stroke="#ddd" stroke-width="1" opacity="1"/><line transform="translate(0,82)" x2="400" y2="0" stroke="#ddd" stroke-width="1" opacity="1"/><line transform="translate(0,48)" x2="400" y2="0" stroke="#ddd" stroke-width="1" opacity="1"/><line transform="translate(0,14)" x2="400" y2="0" stroke="#ddd" stroke-width="1" opacity="1"/></g></g><path class="foreground" aria-hidden="true" d="" pointer-events="none" display="none"/></g></g><g class="mark-group role-axis" role="graphics-symbol" aria-roledescription="axis" aria-label="X-axis for a linear scale with values from −0.03 to 1.03"><g transform="translate(0.5,150.5)"><path class="background" aria-hidden="true" d="M0,0h0v0h0Z" pointer-events="none"/><g><g class="mark-rule role-axis-tick" pointer-events="none"><line transform="translate(12,0)" x2="0" y2="5" stroke="#888" stroke-width="1" opacity="1"/><line transform="translate(50,0)" x2="0" y2="5" stroke="#888" stroke-width="1" opacity="1"/><line transform="translate(87,0)" x2="0" y2="5" stroke="#888" stroke-width="1" opacity="1"/><line transform="translate(125,0)" x2="0" y2="5" stroke="#888" stroke-width="1" opacity="1"/><line transform="translate(162,0)" x2="0" y2="5" stroke="#888" stroke-width="1" opacity="1"/><line transform="translate(200,0)" x2="0" y2="5" stroke="#888" stroke-width="1" opacity="1"/><line transform="translate(237,0)" x2="0" y2="5" stroke="#888" stroke-width="1" opacity="1"/><line transform="translate(275,0)" x2="0" y2="5" stroke="#888" stroke-width="1" opacity="1"/><line transform="translate(312,0)" x2="0" y2="5" stroke="#888" stroke-width="1" opacity="1"/><line transform="translate(350,0)" x2="0" y2="5" stroke="#888" stroke-width="1" opacity="1"/><line transform="translate(387,0)" x2="0" y2="5" stroke="#888" stroke-width="1" opacity="1"/></g><g class="mark-text role-axis-label" pointer-events="none"><text text-anchor="end" transform="translate(12.386120035882877,7) rotate(-45) translate(0,8)" font-family="sans-serif" font-size="10px" fill="#000" opacity="1">0.00</text><text text-anchor="end" transform="translate(49.8972847382473,7) rotate(-45) translate(0,8)" font-family="sans-serif" font-size="10px" fill="#000" opacity="1">0.10</text><text text-anchor="end" transform="translate(87.40844944061172,7) rotate(-45) translate(0,8)" font-family="sans-serif" font-size="10px" fill="#000" opacity="1">0.20</text><text text-anchor="end" transform="translate(124.91961414297614,7) rotate(-45) translate(0,8)" font-family="sans-serif" font-size="10px" fill="#000" opacity="1">0.30</text><text text-anchor="end" transform="translate(162.4307788453406,7) rotate(-45) translate(0,8)" font-family="sans-serif" font-size="10px" fill="#000" opacity="1">0.40</text><text text-anchor="end" transform="translate(199.941943547705,7) rotate(-45) translate(0,8)" font-family="sans-serif" font-size="10px" fill="#000" opacity="1">0.50</text><text text-anchor="end" transform="translate(237.4531082500694,7) rotate(-45) translate(0,8)" font-family="sans-serif" font-size="10px" fill="#000" opacity="1">0.60</text><text text-anchor="end" transform="translate(274.9642729524338,7) rotate(-45) translate(0,8)" font-family="sans-serif" font-size="10px" fill="#000" opacity="1">0.70</text><text text-anchor="end" transform="translate(312.47543765479827,7) rotate(-45) translate(0,8)" font-family="sans-serif" font-size="10px" fill="#000" opacity="1">0.80</text><text text-anchor="end" transform="translate(349.98660235716267,7) rotate(-45) translate(0,8)" font-family="sans-serif" font-size="10px" fill="#000" opacity="1">0.90</text><text text-anchor="end" transform="translate(387.4977670595272,7) rotate(-45) translate(0,8)" font-family="sans-serif" font-size="10px" fill="#000" opacity="1">1.00</text></g><g class="mark-rule role-axis-domain" pointer-events="none"><line transform="translate(0,0)" x2="400" y2="0" stroke="#888" stroke-width="1" opacity="1"/></g></g><path class="foreground" aria-hidden="true" d="" pointer-events="none" display="none"/></g></g><g class="mark-group role-axis" role="graphics-symbol" aria-roledescription="axis" aria-label="Y-axis for a linear scale with values from 0% to 22%"><g transform="translate(0.5,0.5)"><path class="background" aria-hidden="true" d="M0,0h0v0h0Z" pointer-events="none"/><g><g class="mark-rule role-axis-tick" pointer-events="none"><line transform="translate(0,150)" x2="-5" y2="0" stroke="#888" stroke-width="1" opacity="1"/><line transform="translate(0,116)" x2="-5" y2="0" stroke="#888" stroke-width="1" opacity="1"/><line transform="translate(0,82)" x2="-5" y2="0" stroke="#888" stroke-width="1" opacity="1"/><line transform="translate(0,48)" x2="-5" y2="0" stroke="#888" stroke-width="1" opacity="1"/><line transform="translate(0,14)" x2="-5" y2="0" stroke="#888" stroke-width="1" opacity="1"/></g><g class="mark-text role-axis-label" pointer-events="none"><text text-anchor="end" transform="translate(-7,153)" font-family="sans-serif" font-size="10px" fill="#000" opacity="1">0%</text><text text-anchor="end" transform="translate(-7,118.9090909090909)" font-family="sans-serif" font-size="10px" fill="#000" opacity="1">5%</text><text text-anchor="end" transform="translate(-7,84.81818181818181)" font-family="sans-serif" font-size="10px" fill="#000" opacity="1">10%</text><text text-anchor="end" transform="translate(-7,50.727272727272734)" font-family="sans-serif" font-size="10px" fill="#000" opacity="1">15%</text><text text-anchor="end" transform="translate(-7,16.636363636363626)" font-family="sans-serif" font-size="10px" fill="#000" opacity="1">20%</text></g><g class="mark-rule role-axis-domain" pointer-events="none"><line transform="translate(0,150)" x2="0" y2="-150" stroke="#888" stroke-width="1" opacity="1"/></g></g><path class="foreground" aria-hidden="true" d="" pointer-events="none" display="none"/></g></g><g class="mark-rect role-mark concat_1_layer_0_marks" role="graphics-symbol" aria-roledescription="rect mark container"><path d="M5.002232940472883,26.426660344769193h15v123.57333965523081h-15Z" fill="#4c78a8"/><path d="M12.502143622853964,2.46938857193878h15v147.5306114280612h-15Z" fill="#4c78a8"/><path d="M20.002054305235053,15.983598986443853h15v134.01640101355613h-15Z" fill="#4c78a8"/><path d="M27.501964987616134,75.68627481165159h15v74.31372518834841h-15Z" fill="#4c78a8"/><path d="M35.00187566999722,108.35475697127744h15v41.64524302872256h-15Z" fill="#4c78a8"/><path d="M42.50178635237831,111.65104665375603h15v38.348953346243974h-15Z" fill="#4c78a8"/><path d="M50.00169703475939,115.27638802082532h15v34.72361197917468h-15Z" fill="#4c78a8"/><path d="M57.50160771714047,134.20551913964724h15v15.794480860352763h-15Z" fill="#4c78a8"/><path d="M65.00151839952156,140.00144705770066h15v9.99855294229934h-15Z" fill="#4c78a8"/><path d="M72.50142908190264,142.89941101672738h15v7.1005889832726155h-15Z" fill="#4c78a8"/><path d="M80.00133976428373,144.538896603109h15v5.461103396890991h-15Z" fill="#4c78a8"/><path d="M87.50125044666481,145.34709372315632h15v4.65290627684368h-15Z" fill="#4c78a8"/><path d="M95.00116112904588,145.79737497575408h15v4.202625024245918h-15Z" fill="#4c78a8"/><path d="M102.50107181142698,145.8493305049h15v4.150669495100004h-15Z" fill="#4c78a8"/><path d="M110.0009824938081,145.1104074237139h15v4.889592576286105h-15Z" fill="#4c78a8"/><path d="M117.50089317618917,144.7986742488385h15v5.201325751161505h-15Z" fill="#4c78a8"/><path d="M125.00080385857024,145.7627379563235h15v4.237262043676509h-15Z" fill="#4c78a8"/><path d="M132.50071454095132,146.58825358608607h15v3.4117464139139315h-15Z" fill="#4c78a8"/><path d="M140.0006252233324,147.18862858954978h15v2.8113714104502208h-15Z" fill="#4c78a8"/><path d="M147.5005359057135,147.3906778695616h15v2.609322130438386h-15Z" fill="#4c78a8"/><path d="M155.00044658809458,147.7312752272958h15v2.2687247727041893h-15Z" fill="#4c78a8"/><path d="M162.50035727047566,148.04300840217118h15v1.956991597828818h-15Z" fill="#4c78a8"/><path d="M170.00026795285677,148.48174398162544h15v1.518256018374558h-15Z" fill="#4c78a8"/><path d="M177.50017863523783,148.8338870125032h15v1.1661129874968026h-15Z" fill="#4c78a8"/><path d="M185.00008931761892,148.94357090736676h15v1.0564290926332376h-15Z" fill="#4c78a8"/><path d="M192.5,149.1918028799527h15v0.8081971200473106h-15Z" fill="#4c78a8"/><path d="M199.99991068238108,149.32457812110334h15v0.6754218788966568h-15Z" fill="#4c78a8"/><path d="M207.49982136476214,149.47467187196926h15v0.5253281280307363h-15Z" fill="#4c78a8"/><path d="M214.99973204714325,149.61899278626342h15v0.38100721373658075h-15Z" fill="#4c78a8"/><path d="M222.49964272952437,149.72867668112698h15v0.27132331887301575h-15Z" fill="#4c78a8"/><path d="M229.99955341190545,149.82104206627523h15v0.17895793372477442h-15Z" fill="#4c78a8"/><path d="M237.4994640942865,149.83836057599055h15v0.16163942400945075h-15Z" fill="#4c78a8"/><path d="M244.9993747766676,149.87299759542114h15v0.12700240457886025h-15Z" fill="#4c78a8"/><path d="M252.49928545904868,149.8614519222776h15v0.13854807772239042h-15Z" fill="#4c78a8"/><path d="M259.99919614142976,149.80372355655993h15v0.19627644344006967h-15Z" fill="#4c78a8"/><path d="M267.49910682381085,149.58435576683283h15v0.41564423316717125h-15Z" fill="#4c78a8"/><path d="M274.99901750619193,149.42271634282338h15v0.577283657176622h-15Z" fill="#4c78a8"/><path d="M282.498928188573,149.88454326856467h15v0.11545673143533008h-15Z" fill="#4c78a8"/><path d="M289.9988388709541,149.9134074514235h15v0.08659254857650467h-15Z" fill="#4c78a8"/><path d="M297.4987495533352,149.9826814902847h15v0.01731850971529525h-15Z" fill="#4c78a8"/><path d="M304.9986602357163,149.95381730742585h15v0.04618269257414909h-15Z" fill="#4c78a8"/><path d="M312.49857091809736,149.9653629805694h15v0.0346370194305905h-15Z" fill="#4c78a8"/><path d="M319.99848160047844,149.93649879771056h15v0.06350120228944434h-15Z" fill="#4c78a8"/><path d="M327.4983922828595,149.99422716342823h15v0.005772836571765083h-15Z" fill="#4c78a8"/><path d="M334.99830296524067,149.9826814902847h15v0.01731850971529525h-15Z" fill="#4c78a8"/><path d="M342.4982136476217,149.8787704319929h15v0.12122956800709517h-15Z" fill="#4c78a8"/><path d="M349.9981243300028,149.8787704319929h15v0.12122956800709517h-15Z" fill="#4c78a8"/><path d="M357.49803501238387,149.9134074514235h15v0.08659254857650467h-15Z" fill="#4c78a8"/><path d="M364.99794569476495,150h15v0h-15Z" fill="#4c78a8"/><path d="M372.4978563771461,149.99422716342823h15v0.005772836571765083h-15Z" fill="#4c78a8"/></g><g class="mark-rule role-mark concat_1_layer_1_marks" role="graphics-symbol" aria-roledescription="rule mark container"><line transform="translate(42.395051797774414,0)" x2="0" y2="150" stroke="#ff7f0e" stroke-width="1.5" stroke-dasharray="3,2"/></g><g class="mark-rule role-mark concat_1_layer_2_marks" role="graphics-symbol" aria-roledescription="rule mark container"><line transform="translate(31.14170238706509,0)" x2="0" y2="150" stroke="#2ca02c" stroke-width="1.5" stroke-dasharray="3,2"/></g><g class="mark-group role-title"><g transform="translate(200,-18.5)"><path class="background" aria-hidden="true" d="M0,0h0v0h0Z" pointer-events="none"/><g><g class="mark-text role-title-text" role="graphics-symbol" aria-roledescription="title" aria-label="Title text 'Histogram of 'COPOD''" pointer-events="none"><text text-anchor="middle" transform="translate(0,10)" font-family="sans-serif" font-size="13px" font-weight="bold" fill="#000" opacity="1">Histogram of 'COPOD'</text></g></g><path class="foreground" aria-hidden="true" d="" pointer-events="none" display="none"/></g></g></g><path class="foreground" aria-hidden="true" d="" display="none"/></g></g><g class="mark-group role-scope concat_2_group" role="graphics-object" aria-roledescription="group mark container"><g transform="translate(0,438)"><path class="background" aria-hidden="true" d="M0.5,0.5h400v150h-400Z" stroke="#ddd"/><g><g class="mark-group role-axis" role="graphics-symbol" aria-roledescription="axis" aria-label="X-axis for a linear scale with values from 0.5 to 2.7"><g transform="translate(0.5,150.5)"><path class="background" aria-hidden="true" d="M0,0h0v0h0Z" pointer-events="none"/><g><g class="mark-rule role-axis-grid" pointer-events="none"><line transform="translate(13,-150)" x2="0" y2="150" stroke="#ddd" stroke-width="1" opacity="1"/><line transform="translate(50,-150)" x2="0" y2="150" stroke="#ddd" stroke-width="1" opacity="1"/><line transform="translate(88,-150)" x2="0" y2="150" stroke="#ddd" stroke-width="1" opacity="1"/><line transform="translate(125,-150)" x2="0" y2="150" stroke="#ddd" stroke-width="1" opacity="1"/><line transform="translate(163,-150)" x2="0" y2="150" stroke="#ddd" stroke-width="1" opacity="1"/><line transform="translate(200,-150)" x2="0" y2="150" stroke="#ddd" stroke-width="1" opacity="1"/><line transform="translate(237,-150)" x2="0" y2="150" stroke="#ddd" stroke-width="1" opacity="1"/><line transform="translate(275,-150)" x2="0" y2="150" stroke="#ddd" stroke-width="1" opacity="1"/><line transform="translate(312,-150)" x2="0" y2="150" stroke="#ddd" stroke-width="1" opacity="1"/><line transform="translate(349,-150)" x2="0" y2="150" stroke="#ddd" stroke-width="1" opacity="1"/><line transform="translate(387,-150)" x2="0" y2="150" stroke="#ddd" stroke-width="1" opacity="1"/></g></g><path class="foreground" aria-hidden="true" d="" pointer-events="none" display="none"/></g></g><g class="mark-group role-axis" role="graphics-symbol" aria-roledescription="axis" aria-label="Y-axis for a linear scale with values from 0.00 to 0.22"><g transform="translate(0.5,0.5)"><path class="background" aria-hidden="true" d="M0,0h0v0h0Z" pointer-events="none"/><g><g class="mark-rule role-axis-grid" pointer-events="none"><line transform="translate(0,150)" x2="400" y2="0" stroke="#ddd" stroke-width="1" opacity="1"/><line transform="translate(0,116)" x2="400" y2="0" stroke="#ddd" stroke-width="1" opacity="1"/><line transform="translate(0,82)" x2="400" y2="0" stroke="#ddd" stroke-width="1" opacity="1"/><line transform="translate(0,48)" x2="400" y2="0" stroke="#ddd" stroke-width="1" opacity="1"/><line transform="translate(0,14)" x2="400" y2="0" stroke="#ddd" stroke-width="1" opacity="1"/></g></g><path class="foreground" aria-hidden="true" d="" pointer-events="none" display="none"/></g></g><g class="mark-group role-axis" role="graphics-symbol" aria-roledescription="axis" aria-label="X-axis for a linear scale with values from 0.53 to 2.67"><g transform="translate(0.5,150.5)"><path class="background" aria-hidden="true" d="M0,0h0v0h0Z" pointer-events="none"/><g><g class="mark-rule role-axis-tick" pointer-events="none"><line transform="translate(13,0)" x2="0" y2="5" stroke="#888" stroke-width="1" opacity="1"/><line transform="translate(50,0)" x2="0" y2="5" stroke="#888" stroke-width="1" opacity="1"/><line transform="translate(88,0)" x2="0" y2="5" stroke="#888" stroke-width="1" opacity="1"/><line transform="translate(125,0)" x2="0" y2="5" stroke="#888" stroke-width="1" opacity="1"/><line transform="translate(163,0)" x2="0" y2="5" stroke="#888" stroke-width="1" opacity="1"/><line transform="translate(200,0)" x2="0" y2="5" stroke="#888" stroke-width="1" opacity="1"/><line transform="translate(237,0)" x2="0" y2="5" stroke="#888" stroke-width="1" opacity="1"/><line transform="translate(275,0)" x2="0" y2="5" stroke="#888" stroke-width="1" opacity="1"/><line transform="translate(312,0)" x2="0" y2="5" stroke="#888" stroke-width="1" opacity="1"/><line transform="translate(349,0)" x2="0" y2="5" stroke="#888" stroke-width="1" opacity="1"/><line transform="translate(387,0)" x2="0" y2="5" stroke="#888" stroke-width="1" opacity="1"/></g><g class="mark-text role-axis-label" pointer-events="none"><text text-anchor="end" transform="translate(13.13189918320047,7) rotate(-45) translate(0,8)" font-family="sans-serif" font-size="10px" fill="#000" opacity="1">0.60</text><text text-anchor="end" transform="translate(50.49916872491923,7) rotate(-45) translate(0,8)" font-family="sans-serif" font-size="10px" fill="#000" opacity="1">0.80</text><text text-anchor="end" transform="translate(87.86643826663797,7) rotate(-45) translate(0,8)" font-family="sans-serif" font-size="10px" fill="#000" opacity="1">1.00</text><text text-anchor="end" transform="translate(125.2337078083567,7) rotate(-45) translate(0,8)" font-family="sans-serif" font-size="10px" fill="#000" opacity="1">1.20</text><text text-anchor="end" transform="translate(162.60097735007542,7) rotate(-45) translate(0,8)" font-family="sans-serif" font-size="10px" fill="#000" opacity="1">1.40</text><text text-anchor="end" transform="translate(199.96824689179422,7) rotate(-45) translate(0,8)" font-family="sans-serif" font-size="10px" fill="#000" opacity="1">1.60</text><text text-anchor="end" transform="translate(237.33551643351296,7) rotate(-45) translate(0,8)" font-family="sans-serif" font-size="10px" fill="#000" opacity="1">1.80</text><text text-anchor="end" transform="translate(274.7027859752317,7) rotate(-45) translate(0,8)" font-family="sans-serif" font-size="10px" fill="#000" opacity="1">2.00</text><text text-anchor="end" transform="translate(312.0700555169505,7) rotate(-45) translate(0,8)" font-family="sans-serif" font-size="10px" fill="#000" opacity="1">2.20</text><text text-anchor="end" transform="translate(349.43732505866916,7) rotate(-45) translate(0,8)" font-family="sans-serif" font-size="10px" fill="#000" opacity="1">2.40</text><text text-anchor="end" transform="translate(386.80459460038793,7) rotate(-45) translate(0,8)" font-family="sans-serif" font-size="10px" fill="#000" opacity="1">2.60</text></g><g class="mark-rule role-axis-domain" pointer-events="none"><line transform="translate(0,0)" x2="400" y2="0" stroke="#888" stroke-width="1" opacity="1"/></g></g><path class="foreground" aria-hidden="true" d="" pointer-events="none" display="none"/></g></g><g class="mark-group role-axis" role="graphics-symbol" aria-roledescription="axis" aria-label="Y-axis for a linear scale with values from 0% to 22%"><g transform="translate(0.5,0.5)"><path class="background" aria-hidden="true" d="M0,0h0v0h0Z" pointer-events="none"/><g><g class="mark-rule role-axis-tick" pointer-events="none"><line transform="translate(0,150)" x2="-5" y2="0" stroke="#888" stroke-width="1" opacity="1"/><line transform="translate(0,116)" x2="-5" y2="0" stroke="#888" stroke-width="1" opacity="1"/><line transform="translate(0,82)" x2="-5" y2="0" stroke="#888" stroke-width="1" opacity="1"/><line transform="translate(0,48)" x2="-5" y2="0" stroke="#888" stroke-width="1" opacity="1"/><line transform="translate(0,14)" x2="-5" y2="0" stroke="#888" stroke-width="1" opacity="1"/></g><g class="mark-text role-axis-label" pointer-events="none"><text text-anchor="end" transform="translate(-7,153)" font-family="sans-serif" font-size="10px" fill="#000" opacity="1">0%</text><text text-anchor="end" transform="translate(-7,118.9090909090909)" font-family="sans-serif" font-size="10px" fill="#000" opacity="1">5%</text><text text-anchor="end" transform="translate(-7,84.81818181818181)" font-family="sans-serif" font-size="10px" fill="#000" opacity="1">10%</text><text text-anchor="end" transform="translate(-7,50.727272727272734)" font-family="sans-serif" font-size="10px" fill="#000" opacity="1">15%</text><text text-anchor="end" transform="translate(-7,16.636363636363626)" font-family="sans-serif" font-size="10px" fill="#000" opacity="1">20%</text></g><g class="mark-rule role-axis-domain" pointer-events="none"><line transform="translate(0,150)" x2="0" y2="-150" stroke="#888" stroke-width="1" opacity="1"/></g></g><path class="foreground" aria-hidden="true" d="" pointer-events="none" display="none"/></g></g><g class="mark-rect role-mark concat_2_layer_0_marks" role="graphics-symbol" aria-roledescription="rect mark container"><path d="M1.236726954171873,125.96190851516485h15v24.03809148483515h-15Z" fill="#4c78a8"/><path d="M8.887257876005002,39.68686595011653h15v110.31313404988347h-15Z" fill="#4c78a8"/><path d="M16.53778879783813,0.8876313512748091h15v149.11236864872518h-15Z" fill="#4c78a8"/><path d="M24.18831971967126,40.47774456044853h15v109.52225543955147h-15Z" fill="#4c78a8"/><path d="M31.838850641504372,85.40773159850615h15v64.59226840149385h-15Z" fill="#4c78a8"/><path d="M39.489381563337496,107.91024855525144h15v42.08975144474856h-15Z" fill="#4c78a8"/><path d="M47.139912485170626,116.36745413288915h15v33.63254586711085h-15Z" fill="#4c78a8"/><path d="M54.79044340700373,123.60659119388419h15v26.393408806115815h-15Z" fill="#4c78a8"/><path d="M62.44097432883686,127.78035203527126h15v22.219647964728736h-15Z" fill="#4c78a8"/><path d="M70.09150525067,131.15168859318283h15v18.848311406817174h-15Z" fill="#4c78a8"/><path d="M77.7420361725031,132.3235744172514h15v17.676425582748607h-15Z" fill="#4c78a8"/><path d="M85.39256709433624,134.71352875796268h15v15.286471242037322h-15Z" fill="#4c78a8"/><path d="M93.04309801616937,141.0578761503339h15v8.942123849666103h-15Z" fill="#4c78a8"/><path d="M100.6936289380025,143.7191538099182h15v6.280846190081803h-15Z" fill="#4c78a8"/><path d="M108.34415985983559,144.46962256424783h15v5.530377435752172h-15Z" fill="#4c78a8"/><path d="M115.99469078166875,144.45807689110427h15v5.54192310889573h-15Z" fill="#4c78a8"/><path d="M123.64522170350185,145.15659011628802h15v4.843409883711985h-15Z" fill="#4c78a8"/><path d="M131.295752625335,146.1552908432036h15v3.844709156796398h-15Z" fill="#4c78a8"/><path d="M138.94628354716812,146.67484613466257h15v3.325153865337427h-15Z" fill="#4c78a8"/><path d="M146.59681446900123,147.77745791986996h15v2.22254208013004h-15Z" fill="#4c78a8"/><path d="M154.24734539083434,148.29124037475717h15v1.708759625242834h-15Z" fill="#4c78a8"/><path d="M161.8978763126675,148.53947234734312h15v1.4605276526568787h-15Z" fill="#4c78a8"/><path d="M169.54840723450062,148.79347715650084h15v1.2065228434991582h-15Z" fill="#4c78a8"/><path d="M177.19893815633372,149.16293869709386h15v0.837061302906136h-15Z" fill="#4c78a8"/><path d="M184.8494690781669,149.48044470854103h15v0.5195552914589712h-15Z" fill="#4c78a8"/><path d="M192.5,149.5381730742587h15v0.4618269257412919h-15Z" fill="#4c78a8"/><path d="M200.15053092183314,149.62476562283518h15v0.37523437716481567h-15Z" fill="#4c78a8"/><path d="M207.8010618436662,149.72867668112698h15v0.27132331887301575h-15Z" fill="#4c78a8"/><path d="M215.45159276549933,149.77485937370113h15v0.22514062629886666h-15Z" fill="#4c78a8"/><path d="M223.1021236873325,149.81526922970346h15v0.1847307702965395h-15Z" fill="#4c78a8"/><path d="M230.75265460916557,149.85567908570584h15v0.1443209142941555h-15Z" fill="#4c78a8"/><path d="M238.4031855309987,149.94804447085411h15v0.05195552914588575h-15Z" fill="#4c78a8"/><path d="M246.05371645283188,149.95381730742585h15v0.04618269257414909h-15Z" fill="#4c78a8"/><path d="M253.704247374665,149.9826814902847h15v0.01731850971529525h-15Z" fill="#4c78a8"/><path d="M261.3547782964981,149.97113581714115h15v0.028864182858853837h-15Z" fill="#4c78a8"/><path d="M269.00530921833126,150h15v0h-15Z" fill="#4c78a8"/><path d="M276.6558401401644,150h15v0h-15Z" fill="#4c78a8"/><path d="M284.3063710619975,150h15v0h-15Z" fill="#4c78a8"/><path d="M291.9569019838306,149.99422716342823h15v0.005772836571765083h-15Z" fill="#4c78a8"/><path d="M299.6074329056637,150h15v0h-15Z" fill="#4c78a8"/><path d="M307.25796382749684,150h15v0h-15Z" fill="#4c78a8"/><path d="M314.90849474933003,149.99422716342823h15v0.005772836571765083h-15Z" fill="#4c78a8"/><path d="M322.5590256711631,149.99422716342823h15v0.005772836571765083h-15Z" fill="#4c78a8"/><path d="M330.2095565929962,150h15v0h-15Z" fill="#4c78a8"/><path d="M337.8600875148294,150h15v0h-15Z" fill="#4c78a8"/><path d="M345.5106184366625,150h15v0h-15Z" fill="#4c78a8"/><path d="M353.1611493584956,150h15v0h-15Z" fill="#4c78a8"/><path d="M360.8116802803287,150h15v0h-15Z" fill="#4c78a8"/><path d="M368.4622112021618,150h15v0h-15Z" fill="#4c78a8"/><path d="M376.1127421239949,149.99422716342823h15v0.005772836571765083h-15Z" fill="#4c78a8"/></g><g class="mark-rule role-mark concat_2_layer_1_marks" role="graphics-symbol" aria-roledescription="rule mark container"><line transform="translate(46.76244177074735,0)" x2="0" y2="150" stroke="#ff7f0e" stroke-width="1.5" stroke-dasharray="3,2"/></g><g class="mark-rule role-mark concat_2_layer_2_marks" role="graphics-symbol" aria-roledescription="rule mark container"><line transform="translate(35.55226090823172,0)" x2="0" y2="150" stroke="#2ca02c" stroke-width="1.5" stroke-dasharray="3,2"/></g><g class="mark-group role-title"><g transform="translate(200,-18.5)"><path class="background" aria-hidden="true" d="M0,0h0v0h0Z" pointer-events="none"/><g><g class="mark-text role-title-text" role="graphics-symbol" aria-roledescription="title" aria-label="Title text 'Histogram of 'Random Cut Forest''" pointer-events="none"><text text-anchor="middle" transform="translate(0,10)" font-family="sans-serif" font-size="13px" font-weight="bold" fill="#000" opacity="1">Histogram of 'Random Cut Forest'</text></g></g><path class="foreground" aria-hidden="true" d="" pointer-events="none" display="none"/></g></g></g><path class="foreground" aria-hidden="true" d="" display="none"/></g></g></g><path class="foreground" aria-hidden="true" d="" display="none"/></g></g></g></svg>