<svg xmlns="http://www.w3.org/2000/svg" xmlns:xlink="http://www.w3.org/1999/xlink" version="1.1" class="marks" width="440" height="650" viewBox="0 0 440 650"><rect width="440" height="650" fill="white"/><g fill="none" stroke-miterlimit="10" transform="translate(34,25)"><g class="mark-group role-frame root" role="graphics-object" aria-roledescription="group mark container"><g transform="translate(0,0)"><path class="background" aria-hidden="true" d="M0,0h0v0h0Z"/><g><g class="mark-group role-scope concat_0_group" role="graphics-object" aria-roledescription="group mark container"><g transform="translate(0,0)"><path class="background" aria-hidden="true" d="M0.5,0.5h400v150h-400Z" stroke="#ddd"/><g><g class="mark-group role-axis" role="graphics-symbol" aria-roledescription="axis" aria-label="X-axis for a linear scale with values from 0.0 to 1.0"><g transform="translate(0.5,150.5)"><path class="background" aria-hidden="true" d="M0,0h0v0h0Z" pointer-events="none"/><g><g class="mark-rule role-axis-grid" pointer-events="none"><line transform="translate(13,-150)" x2="0" y2="150" stroke="#ddd" stroke-width="1" opacity="1"/><line transform="translate(50,-150)" x2="0" y2="150" stroke="#ddd" stroke-width="1" opacity="1"/><line transform="translate(88,-150)" x2="0" y2="150" stroke="#ddd" stroke-width="1" opacity="1"/><line transform="translate(125,-150)" x2="0" y2="150" stroke="#ddd" stroke-width="1" opacity="1"/><line transform="translate(163,-150)" x2="0" y2="150" stroke="#ddd" stroke-width="1" opacity="1"/><line transform="translate(200,-150)" x2="0" y2="150" stroke="#ddd" stroke-width="1" opacity="1"/><line transform="translate(238,-150)" x2="0" y2="150" stroke="#ddd" stroke-width="1" opacity="1"/><line transform="translate(275,-150)" x2="0" y2="150" stroke="#ddd" stroke-width="1" opacity="1"/><line transform="translate(313,-150)" x2="0" y2="150" stroke="#ddd" stroke-width="1" opacity="1"/><line transform="translate(350,-150)" x2="0" y2="150" stroke="#ddd" stroke-width="1" opacity="1"/><line transform="translate(388,-150)" x2="0" y2="150" stroke="#ddd" stroke-width="1" opacity="1"/></g></g><path class="foreground" aria-hidden="true" d="" pointer-events="none" display="none"/></g></g><g class="mark-group role-axis" role="graphics-symbol" aria-roledescription="axis" aria-label="Y-axis for a linear scale with values from 0.00 to 0.22"><g transform="translate(0.5,0.5)"><path class="background" aria-hidden="true" d="M0,0h0v0h0Z" pointer-events="none"/><g><g class="mark-rule role-axis-grid" pointer-events="none"><line transform="translate(0,150)" x2="400" y2="0" stroke="#ddd" stroke-width="1" opacity="1"/><line transform="translate(0,116)" x2="400" y2="0" stroke="#ddd" stroke-width="1" opacity="1"/><line transform="translate(0,82)" x2="400" y2="0" stroke="#ddd" stroke-width="1" opacity="1"/><line transform="translate(0,48)" x2="400" y2="0" stroke="#ddd" stroke-width="1" opacity="1"/><line transform="translate(0,14)" x2="400" y2="0" stroke="#ddd" stroke-width="1" opacity="1"/></g></g><path class="foreground" aria-hidden="true" d="" pointer-events="none" display="none"/></g></g><g class="mark-group role-axis" role="graphics-symbol" aria-roledescription="axis" aria-label="X-axis for a linear scale with values from −0.03 to 1.03"><g transform="translate(0.5,150.5)"><path class="background" aria-hidden="true" d="M0,0h0v0h0Z" pointer-events="none"/><g><g class="mark-rule role-axis-tick" pointer-events="none"><line transform="translate(13,0)" x2="0" y2="5" stroke="#888" stroke-width="1" opacity="1"/><line transform="translate(50,0)" x2="0" y2="5" stroke="#888" stroke-width="1" opacity="1"/><line transform="translate(88,0)" x2="0" y2="5" stroke="#888" stroke-width="1" opacity="1"/><line transform="translate(125,0)" x2="0" y2="5" stroke="#888" stroke-width="1" opacity="1"/><line transform="translate(163,0)" x2="0" y2="5" stroke="#888" stroke-width="1" opacity="1"/><line transform="translate(200,0)" x2="0" y2="5" stroke="#888" stroke-width="1" opacity="1"/><line transform="translate(238,0)" x2="0" y2="5" stroke="#888" stroke-width="1" opacity="1"/><line transform="translate(275,0)" x2="0" y2="5" stroke="#888" stroke-width="1" opacity="1"/><line transform="translate(313,0)" x2="0" y2="5" stroke="#888" stroke-width="1" opacity="1"/><line transform="translate(350,0)" x2="0" y2="5" stroke="#888" stroke-width="1" opacity="1"/><line transform="translate(388,0)" x2="0" y2="5" stroke="#888" stroke-width="1" opacity="1"/></g><g class="mark-text role-axis-label" pointer-events="none"><text text-anchor="end" transform="translate(12.5,7) rotate(-45) translate(0,8)" font-family="sans-serif" font-size="10px" fill="#000" opacity="1">0.00</text><text text-anchor="end" transform="translate(50.000000000000014,7) rotate(-45) translate(0,8)" font-family="sans-serif" font-size="10px" fill="#000" opacity="1">0.10</text><text text-anchor="end" transform="translate(87.50000000000003,7) rotate(-45) translate(0,8)" font-family="sans-serif" font-size="10px" fill="#000" opacity="1">0.20</text><text text-anchor="end" transform="translate(125.00000000000003,7) rotate(-45) translate(0,8)" font-family="sans-serif" font-size="10px" fill="#000" opacity="1">0.30</text><text text-anchor="end" transform="translate(162.50000000000006,7) rotate(-45) translate(0,8)" font-family="sans-serif" font-size="10px" fill="#000" opacity="1">0.40</text><text text-anchor="end" transform="translate(200.00000000000006,7) rotate(-45) translate(0,8)" font-family="sans-serif" font-size="10px" fill="#000" opacity="1">0.50</text><text text-anchor="end" transform="translate(237.50000000000006,7) rotate(-45) translate(0,8)" font-family="sans-serif" font-size="10px" fill="#000" opacity="1">0.60</text><text text-anchor="end" transform="translate(275.00000000000006,7) rotate(-45) translate(0,8)" font-family="sans-serif" font-size="10px" fill="#000" opacity="1">0.70</text><text text-anchor="end" transform="translate(312.5000000000001,7) rotate(-45) translate(0,8)" font-family="sans-serif" font-size="10px" fill="#000" opacity="1">0.80</text><text text-anchor="end" transform="translate(350.0000000000001,7) rotate(-45) translate(0,8)" font-family="sans-serif" font-size="10px" fill="#000" opacity="1">0.90</text><text text-anchor="end" transform="translate(387.50000000000006,7) rotate(-45) translate(0,8)" font-family="sans-serif" font-size="10px" fill="#000" opacity="1">1.00</text></g><g class="mark-rule role-axis-domain" pointer-events="none"><line transform="translate(0,0)" x2="400" y2="0" stroke="#888" stroke-width="1" opacity="1"/></g></g><path class="foreground" aria-hidden="true" d="" pointer-events="none" display="none"/></g></g><g class="mark-group role-axis" role="graphics-symbol" aria-roledescription="axis" aria-label="Y-axis for a linear scale with values from 0% to 22%"><g transform="translate(0.5,0.5)"><path class="background" aria-hidden="true" d="M0,0h0v0h0Z" pointer-events="none"/><g><g class="mark-rule role-axis-tick" pointer-events="none"><line transform="translate(0,150)" x2="-5" y2="0" stroke="#888" stroke-width="1" opacity="1"/><line transform="translate(0,116)" x2="-5" y2="0" stroke="#888" stroke-width="1" opacity="1"/><line transform="translate(0,82)" x2="-5" y2="0" stroke="#888" stroke-width="1" opacity="1"/><line transform="translate(0,48)" x2="-5" y2="0" stroke="#888" stroke-width="1" opacity="1"/><line transform="translate(0,14)" x2="-5" y2="0" stroke="#888" stroke-width="1" opacity="1"/></g><g class="mark-text role-axis-label" pointer-events="none"><text text-anchor="end" transform="translate(-7,153)" font-family="sans-serif" font-size="10px" fill="#000" opacity="1">0%</text><text text-anchor="end" transform="translate(-7,118.9090909090909)" font-family="sans-serif" font-size="10px" fill="#000" opacity="1">5%</text><text text-anchor="end" transform="translate(-7,84.81818181818181)" font-family="sans-serif" font-size="10px" fill="#000" opacity="1">10%</text><text text-anchor="end" transform="translate(-7,50.727272727272734)" font-family="sans-serif" font-size="10px" fill="#000" opacity="1">15%</text><text text-anchor="end" transform="translate(-7,16.636363636363626)" font-family="sans-serif" font-size="10px" fill="#000" opacity="1">20%</text></g><g class="mark-rule role-axis-domain" pointer-events="none"><line transform="translate(0,150)" x2="0" y2="-150" stroke="#888" stroke-width="1" opacity="1"/></g></g><path class="foreground" aria-hidden="true" d="" pointer-events="none" display="none"/></g></g><g class="mark-rect role-mark concat_0_layer_0_marks" role="graphics-symbol" aria-roledescription="rect mark container"><path d="M5,22.778227631412847h15v127.22177236858715h-15Z" fill="#4c78a8"/><path d="M12.500000000000004,7.838126583681493h15v142.1618734163185h-15Z" fill="#4c78a8"/><path d="M20.000000000000007,57.73275307345819h15v92.26724692654182h-15Z" fill="#4c78a8"/><path d="M27.5,82.07680489659695h15v67.92319510340305h-15Z" fill="#4c78a8"/><path d="M35.00000000000001,100.60761029196699h15v49.39238970803301h-15Z" fill="#4c78a8"/><path d="M42.500000000000014,120.01011400967374h15v29.989885990326258h-15Z" fill="#4c78a8"/><path d="M50.00000000000001,123.04662604642284h15v26.953373953577156h-15Z" fill="#4c78a8"/><path d="M57.500000000000014,124.36860562135735h15v25.631394378642653h-15Z" fill="#4c78a8"/><path d="M65.00000000000001,129.27551670735875h15v20.724483292641253h-15Z" fill="#4c78a8"/><path d="M72.50000000000001,132.31202874410786h15v17.687971255892137h-15Z" fill="#4c78a8"/><path d="M80.00000000000003,138.70255882905323h15v11.297441170946769h-15Z" fill="#4c78a8"/><path d="M87.5,141.51970307607522h15v8.480296923924783h-15Z" fill="#4c78a8"/><path d="M95.00000000000001,143.0841417870239h15v6.915858212976104h-15Z" fill="#4c78a8"/><path d="M102.50000000000003,144.13479804308537h15v5.865201956914632h-15Z" fill="#4c78a8"/><path d="M110.00000000000003,144.24448193794893h15v5.755518062051067h-15Z" fill="#4c78a8"/><path d="M117.50000000000003,144.34839299624073h15v5.651607003759267h-15Z" fill="#4c78a8"/><path d="M125.00000000000003,145.2143184820057h15v4.7856815179943055h-15Z" fill="#4c78a8"/><path d="M132.50000000000003,145.82046632204117h15v4.17953367795883h-15Z" fill="#4c78a8"/><path d="M140.00000000000003,146.28806608435423h15v3.7119339156457727h-15Z" fill="#4c78a8"/><path d="M147.50000000000003,146.62289060551666h15v3.377109394483341h-15Z" fill="#4c78a8"/><path d="M155.00000000000006,147.36181368670276h15v2.63818631329724h-15Z" fill="#4c78a8"/><path d="M162.50000000000003,147.50613460099692h15v2.4938653990030843h-15Z" fill="#4c78a8"/><path d="M170.00000000000003,147.76013941015466h15v2.2398605898453354h-15Z" fill="#4c78a8"/><path d="M177.50000000000006,148.0949639313171h15v1.9050360686829038h-15Z" fill="#4c78a8"/><path d="M185.00000000000003,148.1122824410324h15v1.8877175589676085h-15Z" fill="#4c78a8"/><path d="M192.50000000000006,148.5452451839149h15v1.4547548160851136h-15Z" fill="#4c78a8"/><path d="M200.00000000000006,148.63761056906313h15v1.3623894309368723h-15Z" fill="#4c78a8"/><path d="M207.50000000000009,148.86275119536202h15v1.1372488046379772h-15Z" fill="#4c78a8"/><path d="M215.00000000000006,148.83965984907496h15v1.1603401509250375h-15Z" fill="#4c78a8"/><path d="M222.50000000000003,149.08211898508915h15v0.9178810149108472h-15Z" fill="#4c78a8"/><path d="M230.00000000000006,149.27262259195743h15v0.727377408042571h-15Z" fill="#4c78a8"/><path d="M237.50000000000006,149.42271634282338h15v0.577283657176622h-15Z" fill="#4c78a8"/><path d="M245.00000000000009,149.49199038168456h15v0.508009618315441h-15Z" fill="#4c78a8"/><path d="M252.50000000000006,149.69981249826813h15v0.3001875017318696h-15Z" fill="#4c78a8"/><path d="M260.00000000000006,149.71713100798345h15v0.2828689920165459h-15Z" fill="#4c78a8"/><path d="M267.5000000000001,149.80949639313172h15v0.19050360686827617h-15Z" fill="#4c78a8"/><path d="M275.00000000000006,149.89031610513643h15v0.109683894863565h-15Z" fill="#4c78a8"/><path d="M282.50000000000006,149.8960889417082h15v0.10391105829179992h-15Z" fill="#4c78a8"/><path d="M290.00000000000006,149.93649879771056h15v0.06350120228944434h-15Z" fill="#4c78a8"/><path d="M297.50000000000006,149.95959014399764h15v0.04040985600235558h-15Z" fill="#4c78a8"/><path d="M305.0000000000001,149.95381730742585h15v0.04618269257414909h-15Z" fill="#4c78a8"/><path d="M312.5000000000001,149.9653629805694h15v0.0346370194305905h-15Z" fill="#4c78a8"/><path d="M320.00000000000006,149.94804447085411h15v0.05195552914588575h-15Z" fill="#4c78a8"/><path d="M327.50000000000006,149.94804447085411h15v0.05195552914588575h-15Z" fill="#4c78a8"/><path d="M335.00000000000006,149.93072596113882h15v0.069274038861181h-15Z" fill="#4c78a8"/><path d="M342.5000000000001,149.9653629805694h15v0.0346370194305905h-15Z" fill="#4c78a8"/><path d="M350.0000000000001,148.97820792679735h15v1.021792073202647h-15Z" fill="#4c78a8"/><path d="M357.50000000000006,149.90763461485173h15v0.09236538514826975h-15Z" fill="#4c78a8"/><path d="M365.00000000000006,149.89031610513643h15v0.109683894863565h-15Z" fill="#4c78a8"/><path d="M372.5,149.76908653712934h15v0.23091346287066017h-15Z" fill="#4c78a8"/></g><g class="mark-rule role-mark concat_0_layer_1_marks" role="graphics-symbol" aria-roledescription="rule mark container"><line transform="translate(50.000000000000014,0)" x2="0" y2="150" stroke="#ff7f0e" stroke-width="1.5" stroke-dasharray="3,2"/></g><g class="mark-rule role-mark concat_0_layer_2_marks" role="graphics-symbol" aria-roledescription="rule mark container"><line transform="translate(31.250000000000007,0)" x2="0" y2="150" stroke="#2ca02c" stroke-width="1.5" stroke-dasharray="3,2"/></g><g class="mark-group role-title"><g transform="translate(200,-18.5)"><path class="background" aria-hidden="true" d="M0,0h0v0h0Z" pointer-events="none"/><g><g class="mark-text role-title-text" role="graphics-symbol" aria-roledescription="title" aria-label="Title text 'Histogram of 'Isolation Forest''" pointer-events="none"><text text-anchor="middle" transform="translate(0,10)" font-family="sans-serif" font-size="13px" font-weight="bold" fill="#000" opacity="1">Histogram of 'Isolation Forest'</text></g></g><path class="foreground" aria-hidden="true" d="" pointer-events="none" display="none"/></g></g></g><path class="foreground" aria-hidden="true" d="" display="none"/></g></g><g class="mark-group role-scope concat_1_group" role="graphics-object" aria-roledescription="group mark container"><g transform="translate(0,219)"><path class="background" aria-hidden="true" d="M0.5,0.5h400v150h-400Z" stroke="#ddd"/><g><g class="mark-group role-axis" role="graphics-symbol" aria-roledescription="axis" aria-label="X-axis for a linear scale with values from 0.0 to 1.0"><g transform="translate(0.5,150.5)"><path class="background" aria-hidden="true" d="M0,0h0v0h0Z" pointer-events="none"/><g><g class="mark-rule role-axis-grid" pointer-events="none"><line transform="translate(12,-150)" x2="0" y2="150" stroke="#ddd" stroke-width="1" opacity="1"/><line transform="translate(50,-150)" x2="0" y2="150" stroke="#ddd" stroke-width="1" opacity="1"/><line transform="translate(87,-150)" x2="0" y2="150" stroke="#ddd" stroke-width="1" opacity="1"/><line transform="translate(125,-150)" x2="0" y2="150" stroke="#ddd" stroke-width="1" opacity="1"/><line transform="translate(162,-150)" x2="0" y2="150" stroke="#ddd" stroke-width="1" opacity="1"/><line transform="translate(200,-150)" x2="0" y2="150" stroke="#ddd" stroke-width="1" opacity="1"/><line transform="translate(237,-150)" x2="0" y2="150" stroke="#ddd" stroke-width="1" opacity="1"/><line transform="translate(275,-150)" x2="0" y2="150" stroke="#ddd" stroke-width="1" opacity="1"/><line transform="translate(312,-150)" x2="0" y2="150" stroke="#ddd" stroke-width="1" opacity="1"/><line transform="translate(350,-150)" x2="0" y2="150" stroke="#ddd" stroke-width="1" opacity="1"/><line transform="translate(387,-150)" x2="0" y2="150" stroke="#ddd" stroke-width="1" opacity="1"/></g></g><path class="foreground" aria-hidden="true" d="" pointer-events="none" display="none"/></g></g><g class="mark-group role-axis" role="graphics-symbol" aria-roledescription="axis" aria-label="Y-axis for a linear scale with values from 0.00 to 0.22"><g transform="translate(0.5,0.5)"><path class="background" aria-hidden="true" d="M0,0h0v0h0Z" pointer-events="none"/><g><g class="mark-rule role-axis-grid" pointer-events="none"><line transform="translate(0,150)" x2="400" y2="0" stroke="#ddd" stroke-width="1" opacity="1"/><line transform="translate(0,116)" x2="400" y2="0" stroke="#ddd" stroke-width="1" opacity="1"/><line transform="translate(0,82)" x2="400" y2="0" stroke="#ddd" stroke-width="1" opacity="1"/><line transform="translate(0,48)" x2="400" y2="0" stroke="#ddd" stroke-width="1" opacity="1"/><line transform="translate(0,14)" x2="400" y2="0" stroke="#ddd" stroke-width="1" opacity="1"/></g></g><path class="foreground" aria-hidden="true" d="" pointer-events="none" display="none"/></g></g><g class="mark-group role-axis" role="graphics-symbol" aria-roledescription="axis" aria-label="X-axis for a linear scale with values from −0.03 to 1.03"><g transform="translate(0.5,150.5)"><path class="background" aria-hidden="true" d="M0,0h0v0h0Z" pointer-events="none"/><g><g class="mark-rule role-axis-tick" pointer-events="none"><line transform="translate(12,0)" x2="0" y2="5" stroke="#888" stroke-width="1" opacity="1"/><line transform="translate(50,0)" x2="0" y2="5" stroke="#888" stroke-width="1" opacity="1"/><line transform="translate(87,0)" x2="0" y2="5" stroke="#888" stroke-width="1" opacity="1"/><line transform="translate(125,0)" x2="0" y2="5" stroke="#888" stroke-width="1" opacity="1"/><line transform="translate(162,0)" x2="0" y2="5" stroke="#888" stroke-width="1" opacity="1"/><line transform="translate(200,0)" x2="0" y2="5" stroke="#888" stroke-width="1" opacity="1"/><line transform="translate(237,0)" x2="0" y2="5" stroke="#888" stroke-width="1" opacity="1"/><line transform="translate(275,0)" x2="0" y2="5" stroke="#888" stroke-width="1" opacity="1"/><line transform="translate(312,0)" x2="0" y2="5" stroke="#888" stroke-width="1" opacity="1"/><line transform="translate(350,0)" x2="0" y2="5" stroke="#888" stroke-width="1" opacity="1"/><line transform="translate(387,0)" x2="0" y2="5" stroke="#888" stroke-width="1" opacity="1"/></g><g class="mark-text role-axis-label" pointer-events="none"><text text-anchor="end" transform="translate(12.386125403497365,7) rotate(-45) translate(0,8)" font-family="sans-serif" font-size="10px" fill="#000" opacity="1">0.00</text><text text-anchor="end" transform="translate(49.89728957962508,7) rotate(-45) translate(0,8)" font-family="sans-serif" font-size="10px" fill="#000" opacity="1">0.10</text><text text-anchor="end" transform="translate(87.4084537557528,7) rotate(-45) translate(0,8)" font-family="sans-serif" font-size="10px" fill="#000" opacity="1">0.20</text><text text-anchor="end" transform="translate(124.91961793188051,7) rotate(-45) translate(0,8)" font-family="sans-serif" font-size="10px" fill="#000" opacity="1">0.30</text><text text-anchor="end" transform="translate(162.43078210800823,7) rotate(-45) translate(0,8)" font-family="sans-serif" font-size="10px" fill="#000" opacity="1">0.40</text><text text-anchor="end" transform="translate(199.94194628413592,7) rotate(-45) translate(0,8)" font-family="sans-serif" font-size="10px" fill="#000" opacity="1">0.50</text><text text-anchor="end" transform="translate(237.45311046026364,7) rotate(-45) translate(0,8)" font-family="sans-serif" font-size="10px" fill="#000" opacity="1">0.60</text><text text-anchor="end" transform="translate(274.96427463639134,7) rotate(-45) translate(0,8)" font-family="sans-serif" font-size="10px" fill="#000" opacity="1">0.70</text><text text-anchor="end" transform="translate(312.4754388125191,7) rotate(-45) translate(0,8)" font-family="sans-serif" font-size="10px" fill="#000" opacity="1">0.80</text><text text-anchor="end" transform="translate(349.9866029886468,7) rotate(-45) translate(0,8)" font-family="sans-serif" font-size="10px" fill="#000" opacity="1">0.90</text><text text-anchor="end" transform="translate(387.49776716477453,7) rotate(-45) translate(0,8)" font-family="sans-serif" font-size="10px" fill="#000" opacity="1">1.00</text></g><g class="mark-rule role-axis-domain" pointer-events="none"><line transform="translate(0,0)" x2="400" y2="0" stroke="#888" stroke-width="1" opacity="1"/></g></g><path class="foreground" aria-hidden="true" d="" pointer-events="none" display="none"/></g></g><g class="mark-group role-axis" role="graphics-symbol" aria-roledescription="axis" aria-label="Y-axis for a linear scale with values from 0% to 22%"><g transform="translate(0.5,0.5)"><path class="background" aria-hidden="true" d="M0,0h0v0h0Z" pointer-events="none"/><g><g class="mark-rule role-axis-tick" pointer-events="none"><line transform="translate(0,150)" x2="-5" y2="0" stroke="#888" stroke-width="1" opacity="1"/><line transform="translate(0,116)" x2="-5" y2="0" stroke="#888" stroke-width="1" opacity="1"/><line transform="translate(0,82)" x2="-5" y2="0" stroke="#888" stroke-width="1" opacity="1"/><line transform="translate(0,48)" x2="-5" y2="0" stroke="#888" stroke-width="1" opacity="1"/><line transform="translate(0,14)" x2="-5" y2="0" stroke="#888" stroke-width="1" opacity="1"/></g><g class="mark-text role-axis-label" pointer-events="none"><text text-anchor="end" transform="translate(-7,153)" font-family="sans-serif" font-size="10px" fill="#000" opacity="1">0%</text><text text-anchor="end" transform="translate(-7,118.9090909090909)" font-family="sans-serif" font-size="10px" fill="#000" opacity="1">5%</text><text text-anchor="end" transform="translate(-7,84.81818181818181)" font-family="sans-serif" font-size="10px" fill="#000" opacity="1">10%</text><text text-anchor="end" transform="translate(-7,50.727272727272734)" font-family="sans-serif" font-size="10px" fill="#000" opacity="1">15%</text><text text-anchor="end" transform="translate(-7,16.636363636363626)" font-family="sans-serif" font-size="10px" fill="#000" opacity="1">20%</text></g><g class="mark-rule role-axis-domain" pointer-events="none"><line transform="translate(0,150)" x2="0" y2="-150" stroke="#888" stroke-width="1" opacity="1"/></g></g><path class="foreground" aria-hidden="true" d="" pointer-events="none" display="none"/></g></g><g class="mark-rect role-mark concat_1_layer_0_marks" role="graphics-symbol" aria-roledescription="rect mark container"><path d="M5.002232835225509,26.42088750819742h15v123.57911249180258h-15Z" fill="#4c78a8"/><path d="M12.502143521816489,2.475161408510551h15v147.52483859148944h-15Z" fill="#4c78a8"/><path d="M20.002054208407472,15.983598986443853h15v134.01640101355613h-15Z" fill="#4c78a8"/><path d="M27.50196489499845,75.69204764822335h15v74.30795235177665h-15Z" fill="#4c78a8"/><path d="M35.00187558158943,108.34898413470567h15v41.651015865294326h-15Z" fill="#4c78a8"/><path d="M42.50178626818042,111.63372814404075h15v38.366271855959255h-15Z" fill="#4c78a8"/><path d="M50.00169695477139,115.28793369396885h15v34.71206630603115h-15Z" fill="#4c78a8"/><path d="M57.50160764136237,134.21129197621897h15v15.788708023781027h-15Z" fill="#4c78a8"/><path d="M65.00151832795335,140.00144705770066h15v9.99855294229934h-15Z" fill="#4c78a8"/><path d="M72.50142901454433,142.89941101672738h15v7.1005889832726155h-15Z" fill="#4c78a8"/><path d="M80.00133970113532,144.538896603109h15v5.461103396890991h-15Z" fill="#4c78a8"/><path d="M87.50125038772627,145.34709372315632h15v4.65290627684368h-15Z" fill="#4c78a8"/><path d="M95.00116107431728,145.79737497575408h15v4.202625024245918h-15Z" fill="#4c78a8"/><path d="M102.50107176090825,145.8493305049h15v4.150669495100004h-15Z" fill="#4c78a8"/><path d="M110.00098244749923,145.1104074237139h15v4.889592576286105h-15Z" fill="#4c78a8"/><path d="M117.50089313409022,144.7986742488385h15v5.201325751161505h-15Z" fill="#4c78a8"/><path d="M125.0008038206812,145.7627379563235h15v4.237262043676509h-15Z" fill="#4c78a8"/><path d="M132.5007145072722,146.58825358608607h15v3.4117464139139315h-15Z" fill="#4c78a8"/><path d="M140.00062519386316,147.18862858954978h15v2.8113714104502208h-15Z" fill="#4c78a8"/><path d="M147.50053588045415,147.3906778695616h15v2.609322130438386h-15Z" fill="#4c78a8"/><path d="M155.00044656704512,147.72550239072405h15v2.2744976092759543h-15Z" fill="#4c78a8"/><path d="M162.50035725363608,148.04878123874298h15v1.9512187612570244h-15Z" fill="#4c78a8"/><path d="M170.00026794022708,148.48174398162544h15v1.518256018374558h-15Z" fill="#4c78a8"/><path d="M177.50017862681807,148.8338870125032h15v1.1661129874968026h-15Z" fill="#4c78a8"/><path d="M185.00008931340903,148.94357090736676h15v1.0564290926332376h-15Z" fill="#4c78a8"/><path d="M192.50000000000006,149.1918028799527h15v0.8081971200473106h-15Z" fill="#4c78a8"/><path d="M199.999910686591,149.32457812110334h15v0.6754218788966568h-15Z" fill="#4c78a8"/><path d="M207.499821373182,149.47467187196926h15v0.5253281280307363h-15Z" fill="#4c78a8"/><path d="M214.99973205977292,149.61899278626342h15v0.38100721373658075h-15Z" fill="#4c78a8"/><path d="M222.49964274636397,149.72867668112698h15v0.27132331887301575h-15Z" fill="#4c78a8"/><path d="M229.9995534329549,149.82104206627523h15v0.17895793372477442h-15Z" fill="#4c78a8"/><path d="M237.4994641195459,149.83836057599055h15v0.16163942400945075h-15Z" fill="#4c78a8"/><path d="M244.99937480613687,149.87299759542114h15v0.12700240457886025h-15Z" fill="#4c78a8"/><path d="M252.49928549272784,149.86722475884937h15v0.13277524115062533h-15Z" fill="#4c78a8"/><path d="M259.99919617931886,149.79795071998817h15v0.20204928001183475h-15Z" fill="#4c78a8"/><path d="M267.4991068659098,149.58435576683283h15v0.41564423316717125h-15Z" fill="#4c78a8"/><path d="M274.9990175525008,149.42271634282338h15v0.577283657176622h-15Z" fill="#4c78a8"/><path d="M282.49892823909175,149.88454326856467h15v0.11545673143533008h-15Z" fill="#4c78a8"/><path d="M289.9988389256828,149.9134074514235h15v0.08659254857650467h-15Z" fill="#4c78a8"/><path d="M297.4987496122738,149.9826814902847h15v0.01731850971529525h-15Z" fill="#4c78a8"/><path d="M304.9986602988647,149.95381730742585h15v0.04618269257414909h-15Z" fill="#4c78a8"/><path d="M312.4985709854557,149.9653629805694h15v0.0346370194305905h-15Z" fill="#4c78a8"/><path d="M319.99848167204664,149.93649879771056h15v0.06350120228944434h-15Z" fill="#4c78a8"/><path d="M327.4983923586377,149.99422716342823h15v0.005772836571765083h-15Z" fill="#4c78a8"/><path d="M334.9983030452287,149.9826814902847h15v0.01731850971529525h-15Z" fill="#4c78a8"/><path d="M342.4982137318196,149.8787704319929h15v0.12122956800709517h-15Z" fill="#4c78a8"/><path d="M349.9981244184106,149.8787704319929h15v0.12122956800709517h-15Z" fill="#4c78a8"/><path d="M357.49803510500163,149.9134074514235h15v0.08659254857650467h-15Z" fill="#4c78a8"/><path d="M364.9979457915926,150h15v0h-15Z" fill="#4c78a8"/><path d="M372.4978564781835,149.99422716342823h15v0.005772836571765083h-15Z" fill="#4c78a8"/></g><g class="mark-rule role-mark concat_1_layer_1_marks" role="graphics-symbol" aria-roledescription="rule mark container"><line transform="translate(42.39505674439954,0)" x2="0" y2="150" stroke="#ff7f0e" stroke-width="1.5" stroke-dasharray="3,2"/></g><g class="mark-rule role-mark concat_1_layer_2_marks" role="graphics-symbol" aria-roledescription="rule mark container"><line transform="translate(31.14170749156122,0)" x2="0" y2="150" stroke="#2ca02c" stroke-width="1.5" stroke-dasharray="3,2"/></g><g class="mark-group role-title"><g transform="translate(200,-18.5)"><path class="background" aria-hidden="true" d="M0,0h0v0h0Z" pointer-events="none"/><g><g class="mark-text role-title-text" role="graphics-symbol" aria-roledescription="title" aria-label="Title text 'Histogram of 'COPOD''" pointer-events="none"><text text-anchor="middle" transform="translate(0,10)" font-family="sans-serif" font-size="13px" font-weight="bold" fill="#000" opacity="1">Histogram of 'COPOD'</text></g></g><path class="foreground" aria-hidden="true" d="" pointer-events="none" display="none"/></g></g></g><path class="foreground" aria-hidden="true" d="" display="none"/></g></g><g class="mark-group role-scope concat_2_group" role="graphics-object" aria-roledescription="group mark container"><g transform="translate(0,441)"><path class="background" aria-hidden="true" d="M0.5,0.5h400v150h-400Z" stroke="#ddd"/><g><g class="mark-group role-axis" role="graphics-symbol" aria-roledescription="axis" aria-label="X-axis for a linear scale with values from 1 to 5"><g transform="translate(0.5,150.5)"><path class="background" aria-hidden="true" d="M0,0h0v0h0Z" pointer-events="none"/><g><g class="mark-rule role-axis-grid" pointer-events="none"><line transform="translate(33,-150)" x2="0" y2="150" stroke="#ddd" stroke-width="1" opacity="1"/><line transform="translate(77,-150)" x2="0" y2="150" stroke="#ddd" stroke-width="1" opacity="1"/><line transform="translate(120,-150)" x2="0" y2="150" stroke="#ddd" stroke-width="1" opacity="1"/><line transform="translate(164,-150)" x2="0" y2="150" stroke="#ddd" stroke-width="1" opacity="1"/><line transform="translate(207,-150)" x2="0" y2="150" stroke="#ddd" stroke-width="1" opacity="1"/><line transform="translate(251,-150)" x2="0" y2="150" stroke="#ddd" stroke-width="1" opacity="1"/><line transform="translate(294,-150)" x2="0" y2="150" stroke="#ddd" stroke-width="1" opacity="1"/><line transform="translate(337,-150)" x2="0" y2="150" stroke="#ddd" stroke-width="1" opacity="1"/><line transform="translate(381,-150)" x2="0" y2="150" stroke="#ddd" stroke-width="1" opacity="1"/></g></g><path class="foreground" aria-hidden="true" d="" pointer-events="none" display="none"/></g></g><g class="mark-group role-axis" role="graphics-symbol" aria-roledescription="axis" aria-label="Y-axis for a linear scale with values from 0.0 to 0.8"><g transform="translate(0.5,0.5)"><path class="background" aria-hidden="true" d="M0,0h0v0h0Z" pointer-events="none"/><g><g class="mark-rule role-axis-grid" pointer-events="none"><line transform="translate(0,150)" x2="400" y2="0" stroke="#ddd" stroke-width="1" opacity="1"/><line transform="translate(0,113)" x2="400" y2="0" stroke="#ddd" stroke-width="1" opacity="1"/><line transform="translate(0,75)" x2="400" y2="0" stroke="#ddd" stroke-width="1" opacity="1"/><line transform="translate(0,38)" x2="400" y2="0" stroke="#ddd" stroke-width="1" opacity="1"/><line transform="translate(0,0)" x2="400" y2="0" stroke="#ddd" stroke-width="1" opacity="1"/></g></g><path class="foreground" aria-hidden="true" d="" pointer-events="none" display="none"/></g></g><g class="mark-group role-axis" role="graphics-symbol" aria-roledescription="axis" aria-label="X-axis for a linear scale with values from 0.62 to 5.22"><g transform="translate(0.5,150.5)"><path class="background" aria-hidden="true" d="M0,0h0v0h0Z" pointer-events="none"/><g><g class="mark-rule role-axis-tick" pointer-events="none"><line transform="translate(33,0)" x2="0" y2="5" stroke="#888" stroke-width="1" opacity="1"/><line transform="translate(77,0)" x2="0" y2="5" stroke="#888" stroke-width="1" opacity="1"/><line transform="translate(120,0)" x2="0" y2="5" stroke="#888" stroke-width="1" opacity="1"/><line transform="translate(164,0)" x2="0" y2="5" stroke="#888" stroke-width="1" opacity="1"/><line transform="translate(207,0)" x2="0" y2="5" stroke="#888" stroke-width="1" opacity="1"/><line transform="translate(251,0)" x2="0" y2="5" stroke="#888" stroke-width="1" opacity="1"/><line transform="translate(294,0)" x2="0" y2="5" stroke="#888" stroke-width="1" opacity="1"/><line transform="translate(337,0)" x2="0" y2="5" stroke="#888" stroke-width="1" opacity="1"/><line transform="translate(381,0)" x2="0" y2="5" stroke="#888" stroke-width="1" opacity="1"/></g><g class="mark-text role-axis-label" pointer-events="none"><text text-anchor="end" transform="translate(33.2946461667314,7) rotate(-45) translate(0,8)" font-family="sans-serif" font-size="10px" fill="#000" opacity="1">1.00</text><text text-anchor="end" transform="translate(76.74532331703449,7) rotate(-45) translate(0,8)" font-family="sans-serif" font-size="10px" fill="#000" opacity="1">1.50</text><text text-anchor="end" transform="translate(120.19600046733758,7) rotate(-45) translate(0,8)" font-family="sans-serif" font-size="10px" fill="#000" opacity="1">2.00</text><text text-anchor="end" transform="translate(163.64667761764068,7) rotate(-45) translate(0,8)" font-family="sans-serif" font-size="10px" fill="#000" opacity="1">2.50</text><text text-anchor="end" transform="translate(207.09735476794378,7) rotate(-45) translate(0,8)" font-family="sans-serif" font-size="10px" fill="#000" opacity="1">3.00</text><text text-anchor="end" transform="translate(250.54803191824683,7) rotate(-45) translate(0,8)" font-family="sans-serif" font-size="10px" fill="#000" opacity="1">3.50</text><text text-anchor="end" transform="translate(293.99870906854994,7) rotate(-45) translate(0,8)" font-family="sans-serif" font-size="10px" fill="#000" opacity="1">4.00</text><text text-anchor="end" transform="translate(337.4493862188531,7) rotate(-45) translate(0,8)" font-family="sans-serif" font-size="10px" fill="#000" opacity="1">4.50</text><text text-anchor="end" transform="translate(380.90006336915616,7) rotate(-45) translate(0,8)" font-family="sans-serif" font-size="10px" fill="#000" opacity="1">5.00</text></g><g class="mark-rule role-axis-domain" pointer-events="none"><line transform="translate(0,0)" x2="400" y2="0" stroke="#888" stroke-width="1" opacity="1"/></g></g><path class="foreground" aria-hidden="true" d="" pointer-events="none" display="none"/></g></g><g class="mark-group role-axis" role="graphics-symbol" aria-roledescription="axis" aria-label="Y-axis for a linear scale with values from 0% to 80%"><g transform="translate(0.5,0.5)"><path class="background" aria-hidden="true" d="M0,0h0v0h0Z" pointer-events="none"/><g><g class="mark-rule role-axis-tick" pointer-events="none"><line transform="translate(0,150)" x2="-5" y2="0" stroke="#888" stroke-width="1" opacity="1"/><line transform="translate(0,113)" x2="-5" y2="0" stroke="#888" stroke-width="1" opacity="1"/><line transform="translate(0,75)" x2="-5" y2="0" stroke="#888" stroke-width="1" opacity="1"/><line transform="translate(0,38)" x2="-5" y2="0" stroke="#888" stroke-width="1" opacity="1"/><line transform="translate(0,0)" x2="-5" y2="0" stroke="#888" stroke-width="1" opacity="1"/></g><g class="mark-text role-axis-label" pointer-events="none"><text text-anchor="end" transform="translate(-7,153)" font-family="sans-serif" font-size="10px" fill="#000" opacity="1">0%</text><text text-anchor="end" transform="translate(-7,115.5)" font-family="sans-serif" font-size="10px" fill="#000" opacity="1">20%</text><text text-anchor="end" transform="translate(-7,78)" font-family="sans-serif" font-size="10px" fill="#000" opacity="1">40%</text><text text-anchor="end" transform="translate(-7,40.500000000000014)" font-family="sans-serif" font-size="10px" fill="#000" opacity="1">60%</text><text text-anchor="end" transform="translate(-7,3)" font-family="sans-serif" font-size="10px" fill="#000" opacity="1">80%</text></g><g class="mark-rule role-axis-domain" pointer-events="none"><line transform="translate(0,150)" x2="0" y2="-150" stroke="#888" stroke-width="1" opacity="1"/></g></g><path class="foreground" aria-hidden="true" d="" pointer-events="none" display="none"/></g></g><g class="mark-rect role-mark concat_2_layer_0_marks" role="graphics-symbol" aria-roledescription="rect mark container"><path d="M-0.761972913987881,13.302549361601256h15v136.69745063839875h-15Z" fill="#4c78a8"/><path d="M6.9685060025716385,118.00650675652793h15v31.993493243472074h-15Z" fill="#4c78a8"/><path d="M14.698984919131156,142.21316506925865h15v7.78683493074135h-15Z" fill="#4c78a8"/><path d="M22.42946383569067,146.51695905442477h15v3.483040945575226h-15Z" fill="#4c78a8"/><path d="M30.159942752250195,147.7488823788397h15v2.25111762116029h-15Z" fill="#4c78a8"/><path d="M37.890421668809694,148.82205269753106h15v1.1779473024689366h-15Z" fill="#4c78a8"/><path d="M45.62090058536921,149.13955870897823h15v0.8604412910217718h-15Z" fill="#4c78a8"/><path d="M53.35137950192874,149.41420140888002h15v0.5857985911199819h-15Z" fill="#4c78a8"/><path d="M61.08185841848825,149.54437887357335h15v0.4556211264266494h-15Z" fill="#4c78a8"/><path d="M68.81233733504777,149.65233091746538h15v0.3476690825346225h-15Z" fill="#4c78a8"/><path d="M76.54281625160729,149.7650455515291h15v0.2349544484708872h-15Z" fill="#4c78a8"/><path d="M84.27329516816681,149.7904460324449h15v0.20955396755510947h-15Z" fill="#4c78a8"/><path d="M92.00377408472632,149.86823500524943h15v0.13176499475056858h-15Z" fill="#4c78a8"/><path d="M99.73425300128584,149.88252277576456h15v0.1174772242354436h-15Z" fill="#4c78a8"/><path d="M107.46473191784536,149.87458512547838h15v0.12541487452162414h-15Z" fill="#4c78a8"/><path d="M115.19521083440489,149.8491846445626h15v0.15081535543740188h-15Z" fill="#4c78a8"/><path d="M122.92568975096438,149.89522301622245h15v0.10477698377755473h-15Z" fill="#4c78a8"/><path d="M130.6561686675239,149.91744843702375h15v0.08255156297624922h-15Z" fill="#4c78a8"/><path d="M138.38664758408342,149.92062349713822h15v0.079376502861777h-15Z" fill="#4c78a8"/><path d="M146.11712650064297,149.95237409828292h15v0.04762590171708325h-15Z" fill="#4c78a8"/><path d="M153.84760541720246,149.98094963931317h15v0.0190503606868333h-15Z" fill="#4c78a8"/><path d="M161.57808433376198,149.98094963931317h15v0.0190503606868333h-15Z" fill="#4c78a8"/><path d="M169.3085632503215,149.97618704914146h15v0.023812950858541626h-15Z" fill="#4c78a8"/><path d="M177.039042166881,149.973011989027h15v0.026988010973013843h-15Z" fill="#4c78a8"/><path d="M184.7695210834405,149.97142445896975h15v0.02857554103024995h-15Z" fill="#4c78a8"/><path d="M192.50000000000006,149.98094963931317h15v0.0190503606868333h-15Z" fill="#4c78a8"/><path d="M200.23047891655955,149.973011989027h15v0.026988010973013843h-15Z" fill="#4c78a8"/><path d="M207.96095783311907,149.97459951908422h15v0.025400480915777734h-15Z" fill="#4c78a8"/><path d="M215.69143674967856,149.9650743387408h15v0.034925661259194385h-15Z" fill="#4c78a8"/><path d="M223.4219156662381,149.9650743387408h15v0.034925661259194385h-15Z" fill="#4c78a8"/><path d="M231.15239458279763,149.9650743387408h15v0.034925661259194385h-15Z" fill="#4c78a8"/><path d="M238.88287349935717,149.94443644799674h15v0.055563552003263794h-15Z" fill="#4c78a8"/><path d="M246.61335241591667,149.973011989027h15v0.026988010973013843h-15Z" fill="#4c78a8"/><path d="M254.34383133247616,149.9698369289125h15v0.03016307108748606h-15Z" fill="#4c78a8"/><path d="M262.0743102490357,149.9698369289125h15v0.03016307108748606h-15Z" fill="#4c78a8"/><path d="M269.8047891655952,149.97936210925593h15v0.02063789074406941h-15Z" fill="#4c78a8"/><path d="M277.5352680821547,149.9777745791987h15v0.022225420801305518h-15Z" fill="#4c78a8"/><path d="M285.26574699871423,149.9777745791987h15v0.022225420801305518h-15Z" fill="#4c78a8"/><path d="M292.9962259152738,149.9777745791987h15v0.022225420801305518h-15Z" fill="#4c78a8"/><path d="M300.7267048318333,149.97459951908422h15v0.025400480915777734h-15Z" fill="#4c78a8"/><path d="M308.4571837483928,149.98412469942764h15v0.015875300572361084h-15Z" fill="#4c78a8"/><path d="M316.18766266495237,149.9952374098283h15v0.004762590171708325h-15Z" fill="#4c78a8"/><path d="M323.9181415815118,150h15v0h-15Z" fill="#4c78a8"/><path d="M331.64862049807135,149.99841246994276h15v0.0015875300572361084h-15Z" fill="#4c78a8"/><path d="M339.37909941463084,150h15v0h-15Z" fill="#4c78a8"/><path d="M347.1095783311904,150h15v0h-15Z" fill="#4c78a8"/><path d="M354.8400572477498,150h15v0h-15Z" fill="#4c78a8"/><path d="M362.5705361643095,150h15v0h-15Z" fill="#4c78a8"/><path d="M370.3010150808689,149.99682493988553h15v0.003175060114472217h-15Z" fill="#4c78a8"/><path d="M378.03149399742836,149.99841246994276h15v0.0015875300572361084h-15Z" fill="#4c78a8"/></g><g class="mark-rule role-mark concat_2_layer_1_marks" role="graphics-symbol" aria-roledescription="rule mark container"><line transform="translate(15.0453617636041,0)" x2="0" y2="150" stroke="#ff7f0e" stroke-width="1.5" stroke-dasharray="3,2"/></g><g class="mark-rule role-mark concat_2_layer_2_marks" role="graphics-symbol" aria-roledescription="rule mark container"><line transform="translate(10.700294048573788,0)" x2="0" y2="150" stroke="#2ca02c" stroke-width="1.5" stroke-dasharray="3,2"/></g><g class="mark-group role-title"><g transform="translate(200,-22)"><path class="background" aria-hidden="true" d="M0,0h0v0h0Z" pointer-events="none"/><g><g class="mark-text role-title-text" role="graphics-symbol" aria-roledescription="title" aria-label="Title text 'Histogram of 'Random Cut Forest''" pointer-events="none"><text text-anchor="middle" transform="translate(0,10)" font-family="sans-serif" font-size="13px" font-weight="bold" fill="#000" opacity="1">Histogram of 'Random Cut Forest'</text></g></g><path class="foreground" aria-hidden="true" d="" pointer-events="none" display="none"/></g></g></g><path class="foreground" aria-hidden="true" d="" display="none"/></g></g></g><path class="foreground" aria-hidden="true" d="" display="none"/></g></g></g></svg>