<svg xmlns="http://www.w3.org/2000/svg" xmlns:xlink="http://www.w3.org/1999/xlink" version="1.1" class="marks" width="1063" height="311" viewBox="0 0 1063 311"><rect width="1063" height="311" fill="white"/><g fill="none" stroke-miterlimit="10" transform="translate(58,27)"><g class="mark-group role-frame root" role="graphics-object" aria-roledescription="group mark container"><g transform="translate(0,0)"><path class="background" aria-hidden="true" d="M0.5,0.5h1000v200h-1000Z" stroke="#ddd"/><g><g class="mark-group role-axis" role="graphics-symbol" aria-roledescription="axis" aria-label="Y-axis for a linear scale with values from 0 to 14,000"><g transform="translate(0.5,0.5)"><path class="background" aria-hidden="true" d="M0,0h0v0h0Z" pointer-events="none"/><g><g class="mark-rule role-axis-grid" pointer-events="none"><line transform="translate(0,200)" x2="1000" y2="0" stroke="#ddd" stroke-width="1" opacity="1"/><line transform="translate(0,171)" x2="1000" y2="0" stroke="#ddd" stroke-width="1" opacity="1"/><line transform="translate(0,143)" x2="1000" y2="0" stroke="#ddd" stroke-width="1" opacity="1"/><line transform="translate(0,114)" x2="1000" y2="0" stroke="#ddd" stroke-width="1" opacity="1"/><line transform="translate(0,86)" x2="1000" y2="0" stroke="#ddd" stroke-width="1" opacity="1"/><line transform="translate(0,57)" x2="1000" y2="0" stroke="#ddd" stroke-width="1" opacity="1"/><line transform="translate(0,29)" x2="1000" y2="0" stroke="#ddd" stroke-width="1" opacity="1"/><line transform="translate(0,0)" x2="1000" y2="0" stroke="#ddd" stroke-width="1" opacity="1"/></g></g><path class="foreground" aria-hidden="true" d="" pointer-events="none" display="none"/></g></g><g class="mark-group role-axis" role="graphics-symbol" aria-roledescription="axis" aria-label="X-axis titled 'Feature' for a discrete scale with 49 values: card1, DeviceInfo, id_19, card2, id_21, ending with id_38"><g transform="translate(0.5,200.5)"><path class="background" aria-hidden="true" d="M0,0h0v0h0Z" pointer-events="none"/><g><g class="mark-rule role-axis-tick" pointer-events="none"><line transform="translate(10,0)" x2="0" y2="5" stroke="#888" stroke-width="1" opacity="1"/><line transform="translate(30,0)" x2="0" y2="5" stroke="#888" stroke-width="1" opacity="1"/><line transform="translate(51,0)" x2="0" y2="5" stroke="#888" stroke-width="1" opacity="1"/><line transform="translate(71,0)" x2="0" y2="5" stroke="#888" stroke-width="1" opacity="1"/><line transform="translate(91,0)" x2="0" y2="5" stroke="#888" stroke-width="1" opacity="1"/><line transform="translate(112,0)" x2="0" y2="5" stroke="#888" stroke-width="1" opacity="1"/><line transform="translate(132,0)" x2="0" y2="5" stroke="#888" stroke-width="1" opacity="1"/><line transform="translate(153,0)" x2="0" y2="5" stroke="#888" stroke-width="1" opacity="1"/><line transform="translate(173,0)" x2="0" y2="5" stroke="#888" stroke-width="1" opacity="1"/><line transform="translate(193,0)" x2="0" y2="5" stroke="#888" stroke-width="1" opacity="1"/><line transform="translate(214,0)" x2="0" y2="5" stroke="#888" stroke-width="1" opacity="1"/><line transform="translate(234,0)" x2="0" y2="5" stroke="#888" stroke-width="1" opacity="1"/><line transform="translate(255,0)" x2="0" y2="5" stroke="#888" stroke-width="1" opacity="1"/><line transform="translate(275,0)" x2="0" y2="5" stroke="#888" stroke-width="1" opacity="1"/><line transform="translate(295,0)" x2="0" y2="5" stroke="#888" stroke-width="1" opacity="1"/><line transform="translate(316,0)" x2="0" y2="5" stroke="#888" stroke-width="1" opacity="1"/><line transform="translate(336,0)" x2="0" y2="5" stroke="#888" stroke-width="1" opacity="1"/><line transform="translate(357,0)" x2="0" y2="5" stroke="#888" stroke-width="1" opacity="1"/><line transform="translate(377,0)" x2="0" y2="5" stroke="#888" stroke-width="1" opacity="1"/><line transform="translate(397,0)" x2="0" y2="5" stroke="#888" stroke-width="1" opacity="1"/><line transform="translate(418,0)" x2="0" y2="5" stroke="#888" stroke-width="1" opacity="1"/><line transform="translate(438,0)" x2="0" y2="5" stroke="#888" stroke-width="1" opacity="1"/><line transform="translate(459,0)" x2="0" y2="5" stroke="#888" stroke-width="1" opacity="1"/><line transform="translate(479,0)" x2="0" y2="5" stroke="#888" stroke-width="1" opacity="1"/><line transform="translate(500,0)" x2="0" y2="5" stroke="#888" stroke-width="1" opacity="1"/><line transform="translate(520,0)" x2="0" y2="5" stroke="#888" stroke-width="1" opacity="1"/><line transform="translate(540,0)" x2="0" y2="5" stroke="#888" stroke-width="1" opacity="1"/><line transform="translate(561,0)" x2="0" y2="5" stroke="#888" stroke-width="1" opacity="1"/><line transform="translate(581,0)" x2="0" y2="5" stroke="#888" stroke-width="1" opacity="1"/><line transform="translate(602,0)" x2="0" y2="5" stroke="#888" stroke-width="1" opacity="1"/><line transform="translate(622,0)" x2="0" y2="5" stroke="#888" stroke-width="1" opacity="1"/><line transform="translate(642,0)" x2="0" y2="5" stroke="#888" stroke-width="1" opacity="1"/><line transform="translate(663,0)" x2="0" y2="5" stroke="#888" stroke-width="1" opacity="1"/><line transform="translate(683,0)" x2="0" y2="5" stroke="#888" stroke-width="1" opacity="1"/><line transform="translate(704,0)" x2="0" y2="5" stroke="#888" stroke-width="1" opacity="1"/><line transform="translate(724,0)" x2="0" y2="5" stroke="#888" stroke-width="1" opacity="1"/><line transform="translate(744,0)" x2="0" y2="5" stroke="#888" stroke-width="1" opacity="1"/><line transform="translate(765,0)" x2="0" y2="5" stroke="#888" stroke-width="1" opacity="1"/><line transform="translate(785,0)" x2="0" y2="5" stroke="#888" stroke-width="1" opacity="1"/><line transform="translate(806,0)" x2="0" y2="5" stroke="#888" stroke-width="1" opacity="1"/><line transform="translate(826,0)" x2="0" y2="5" stroke="#888" stroke-width="1" opacity="1"/><line transform="translate(846,0)" x2="0" y2="5" stroke="#888" stroke-width="1" opacity="1"/><line transform="translate(867,0)" x2="0" y2="5" stroke="#888" stroke-width="1" opacity="1"/><line transform="translate(887,0)" x2="0" y2="5" stroke="#888" stroke-width="1" opacity="1"/><line transform="translate(908,0)" x2="0" y2="5" stroke="#888" stroke-width="1" opacity="1"/><line transform="translate(928,0)" x2="0" y2="5" stroke="#888" stroke-width="1" opacity="1"/><line transform="translate(948,0)" x2="0" y2="5" stroke="#888" stroke-width="1" opacity="1"/><line transform="translate(969,0)" x2="0" y2="5" stroke="#888" stroke-width="1" opacity="1"/><line transform="translate(989,0)" x2="0" y2="5" stroke="#888" stroke-width="1" opacity="1"/></g><g class="mark-text role-axis-label" pointer-events="none"><text text-anchor="end" transform="translate(9.704081632653114,7) rotate(-45) translate(0,8)" font-family="sans-serif" font-size="10px" fill="#000" opacity="1">card1</text><text text-anchor="end" transform="translate(30.112244897959236,7) rotate(-45) translate(0,8)" font-family="sans-serif" font-size="10px" fill="#000" opacity="1">DeviceInfo</text><text text-anchor="end" transform="translate(50.52040816326536,7) rotate(-45) translate(0,8)" font-family="sans-serif" font-size="10px" fill="#000" opacity="1">id_19</text><text text-anchor="end" transform="translate(70.92857142857147,7) rotate(-45) translate(0,8)" font-family="sans-serif" font-size="10px" fill="#000" opacity="1">card2</text><text text-anchor="end" transform="translate(91.3367346938776,7) rotate(-45) translate(0,8)" font-family="sans-serif" font-size="10px" fill="#000" opacity="1">id_21</text><text text-anchor="end" transform="translate(111.74489795918372,7) rotate(-45) translate(0,8)" font-family="sans-serif" font-size="10px" fill="#000" opacity="1">id_20</text><text text-anchor="end" transform="translate(132.15306122448985,7) rotate(-45) translate(0,8)" font-family="sans-serif" font-size="10px" fill="#000" opacity="1">id_25</text><text text-anchor="end" transform="translate(152.56122448979596,7) rotate(-45) translate(0,8)" font-family="sans-serif" font-size="10px" fill="#000" opacity="1">addr1</text><text text-anchor="end" transform="translate(172.9693877551021,7) rotate(-45) translate(0,8)" font-family="sans-serif" font-size="10px" fill="#000" opacity="1">id_33</text><text text-anchor="end" transform="translate(193.3775510204082,7) rotate(-45) translate(0,8)" font-family="sans-serif" font-size="10px" fill="#000" opacity="1">id_31</text><text text-anchor="end" transform="translate(213.78571428571433,7) rotate(-45) translate(0,8)" font-family="sans-serif" font-size="10px" fill="#000" opacity="1">card5</text><text text-anchor="end" transform="translate(234.19387755102048,7) rotate(-45) translate(0,8)" font-family="sans-serif" font-size="10px" fill="#000" opacity="1">card3</text><text text-anchor="end" transform="translate(254.60204081632656,7) rotate(-45) translate(0,8)" font-family="sans-serif" font-size="10px" fill="#000" opacity="1">id_17</text><text text-anchor="end" transform="translate(275.0102040816327,7) rotate(-45) translate(0,8)" font-family="sans-serif" font-size="10px" fill="#000" opacity="1">id_26</text><text text-anchor="end" transform="translate(295.41836734693885,7) rotate(-45) translate(0,8)" font-family="sans-serif" font-size="10px" fill="#000" opacity="1">id_30</text><text text-anchor="end" transform="translate(315.82653061224494,7) rotate(-45) translate(0,8)" font-family="sans-serif" font-size="10px" fill="#000" opacity="1">addr2</text><text text-anchor="end" transform="translate(336.2346938775511,7) rotate(-45) translate(0,8)" font-family="sans-serif" font-size="10px" fill="#000" opacity="1">R_emaildomain</text><text text-anchor="end" transform="translate(356.6428571428572,7) rotate(-45) translate(0,8)" font-family="sans-serif" font-size="10px" fill="#000" opacity="1">P_emaildomain</text><text text-anchor="end" transform="translate(377.0510204081633,7) rotate(-45) translate(0,8)" font-family="sans-serif" font-size="10px" fill="#000" opacity="1">id_13</text><text text-anchor="end" transform="translate(397.45918367346945,7) rotate(-45) translate(0,8)" font-family="sans-serif" font-size="10px" fill="#000" opacity="1">id_14</text><text text-anchor="end" transform="translate(417.86734693877554,7) rotate(-45) translate(0,8)" font-family="sans-serif" font-size="10px" fill="#000" opacity="1">id_22</text><text text-anchor="end" transform="translate(438.2755102040817,7) rotate(-45) translate(0,8)" font-family="sans-serif" font-size="10px" fill="#000" opacity="1">id_18</text><text text-anchor="end" transform="translate(458.6836734693878,7) rotate(-45) translate(0,8)" font-family="sans-serif" font-size="10px" fill="#000" opacity="1">id_24</text><text text-anchor="end" transform="translate(479.0918367346939,7) rotate(-45) translate(0,8)" font-family="sans-serif" font-size="10px" fill="#000" opacity="1">ProductCD</text><text text-anchor="end" transform="translate(499.50000000000006,7) rotate(-45) translate(0,8)" font-family="sans-serif" font-size="10px" fill="#000" opacity="1">card4</text><text text-anchor="end" transform="translate(519.9081632653061,7) rotate(-45) translate(0,8)" font-family="sans-serif" font-size="10px" fill="#000" opacity="1">card6</text><text text-anchor="end" transform="translate(540.3163265306123,7) rotate(-45) translate(0,8)" font-family="sans-serif" font-size="10px" fill="#000" opacity="1">id_32</text><text text-anchor="end" transform="translate(560.7244897959183,7) rotate(-45) translate(0,8)" font-family="sans-serif" font-size="10px" fill="#000" opacity="1">id_34</text><text text-anchor="end" transform="translate(581.1326530612246,7) rotate(-45) translate(0,8)" font-family="sans-serif" font-size="10px" fill="#000" opacity="1">M4</text><text text-anchor="end" transform="translate(601.5408163265306,7) rotate(-45) translate(0,8)" font-family="sans-serif" font-size="10px" fill="#000" opacity="1">id_15</text><text text-anchor="end" transform="translate(621.9489795918366,7) rotate(-45) translate(0,8)" font-family="sans-serif" font-size="10px" fill="#000" opacity="1">id_23</text><text text-anchor="end" transform="translate(642.3571428571429,7) rotate(-45) translate(0,8)" font-family="sans-serif" font-size="10px" fill="#000" opacity="1">DeviceType</text><text text-anchor="end" transform="translate(662.7653061224489,7) rotate(-45) translate(0,8)" font-family="sans-serif" font-size="10px" fill="#000" opacity="1">M1</text><text text-anchor="end" transform="translate(683.1734693877552,7) rotate(-45) translate(0,8)" font-family="sans-serif" font-size="10px" fill="#000" opacity="1">M2</text><text text-anchor="end" transform="translate(703.5816326530612,7) rotate(-45) translate(0,8)" font-family="sans-serif" font-size="10px" fill="#000" opacity="1">M3</text><text text-anchor="end" transform="translate(723.9897959183672,7) rotate(-45) translate(0,8)" font-family="sans-serif" font-size="10px" fill="#000" opacity="1">M5</text><text text-anchor="end" transform="translate(744.3979591836735,7) rotate(-45) translate(0,8)" font-family="sans-serif" font-size="10px" fill="#000" opacity="1">M6</text><text text-anchor="end" transform="translate(764.8061224489795,7) rotate(-45) translate(0,8)" font-family="sans-serif" font-size="10px" fill="#000" opacity="1">M7</text><text text-anchor="end" transform="translate(785.2142857142858,7) rotate(-45) translate(0,8)" font-family="sans-serif" font-size="10px" fill="#000" opacity="1">M8</text><text text-anchor="end" transform="translate(805.6224489795918,7) rotate(-45) translate(0,8)" font-family="sans-serif" font-size="10px" fill="#000" opacity="1">M9</text><text text-anchor="end" transform="translate(826.0306122448978,7) rotate(-45) translate(0,8)" font-family="sans-serif" font-size="10px" fill="#000" opacity="1">id_12</text><text text-anchor="end" transform="translate(846.4387755102041,7) rotate(-45) translate(0,8)" font-family="sans-serif" font-size="10px" fill="#000" opacity="1">id_16</text><text text-anchor="end" transform="translate(866.8469387755101,7) rotate(-45) translate(0,8)" font-family="sans-serif" font-size="10px" fill="#000" opacity="1">id_27</text><text text-anchor="end" transform="translate(887.2551020408164,7) rotate(-45) translate(0,8)" font-family="sans-serif" font-size="10px" fill="#000" opacity="1">id_28</text><text text-anchor="end" transform="translate(907.6632653061224,7) rotate(-45) translate(0,8)" font-family="sans-serif" font-size="10px" fill="#000" opacity="1">id_29</text><text text-anchor="end" transform="translate(928.0714285714287,7) rotate(-45) translate(0,8)" font-family="sans-serif" font-size="10px" fill="#000" opacity="1">id_35</text><text text-anchor="end" transform="translate(948.4795918367347,7) rotate(-45) translate(0,8)" font-family="sans-serif" font-size="10px" fill="#000" opacity="1">id_36</text><text text-anchor="end" transform="translate(968.8877551020407,7) rotate(-45) translate(0,8)" font-family="sans-serif" font-size="10px" fill="#000" opacity="1">id_37</text><text text-anchor="end" transform="translate(989.295918367347,7) rotate(-45) translate(0,8)" font-family="sans-serif" font-size="10px" fill="#000" opacity="1">id_38</text></g><g class="mark-rule role-axis-domain" pointer-events="none"><line transform="translate(0,0)" x2="1000" y2="0" stroke="#888" stroke-width="1" opacity="1"/></g><g class="mark-text role-axis-title" pointer-events="none"><text text-anchor="middle" transform="translate(500,76.19910682311246)" font-family="sans-serif" font-size="11px" font-weight="bold" fill="#000" opacity="1">Feature</text></g></g><path class="foreground" aria-hidden="true" d="" pointer-events="none" display="none"/></g></g><g class="mark-group role-axis" role="graphics-symbol" aria-roledescription="axis" aria-label="Y-axis titled 'Count' for a linear scale with values from 0 to 14,000"><g transform="translate(0.5,0.5)"><path class="background" aria-hidden="true" d="M0,0h0v0h0Z" pointer-events="none"/><g><g class="mark-rule role-axis-tick" pointer-events="none"><line transform="translate(0,200)" x2="-5" y2="0" stroke="#888" stroke-width="1" opacity="1"/><line transform="translate(0,171)" x2="-5" y2="0" stroke="#888" stroke-width="1" opacity="1"/><line transform="translate(0,143)" x2="-5" y2="0" stroke="#888" stroke-width="1" opacity="1"/><line transform="translate(0,114)" x2="-5" y2="0" stroke="#888" stroke-width="1" opacity="1"/><line transform="translate(0,86)" x2="-5" y2="0" stroke="#888" stroke-width="1" opacity="1"/><line transform="translate(0,57)" x2="-5" y2="0" stroke="#888" stroke-width="1" opacity="1"/><line transform="translate(0,29)" x2="-5" y2="0" stroke="#888" stroke-width="1" opacity="1"/><line transform="translate(0,0)" x2="-5" y2="0" stroke="#888" stroke-width="1" opacity="1"/></g><g class="mark-text role-axis-label" pointer-events="none"><text text-anchor="end" transform="translate(-7,203)" font-family="sans-serif" font-size="10px" fill="#000" opacity="1">0</text><text text-anchor="end" transform="translate(-7,174.42857142857144)" font-family="sans-serif" font-size="10px" fill="#000" opacity="1">2,000</text><text text-anchor="end" transform="translate(-7,145.85714285714286)" font-family="sans-serif" font-size="10px" fill="#000" opacity="1">4,000</text><text text-anchor="end" transform="translate(-7,117.28571428571428)" font-family="sans-serif" font-size="10px" fill="#000" opacity="1">6,000</text><text text-anchor="end" transform="translate(-7,88.71428571428572)" font-family="sans-serif" font-size="10px" fill="#000" opacity="1">8,000</text><text text-anchor="end" transform="translate(-7,60.14285714285714)" font-family="sans-serif" font-size="10px" fill="#000" opacity="1">10,000</text><text text-anchor="end" transform="translate(-7,31.57142857142858)" font-family="sans-serif" font-size="10px" fill="#000" opacity="1">12,000</text><text text-anchor="end" transform="translate(-7,3)" font-family="sans-serif" font-size="10px" fill="#000" opacity="1">14,000</text></g><g class="mark-rule role-axis-domain" pointer-events="none"><line transform="translate(0,200)" x2="0" y2="-200" stroke="#888" stroke-width="1" opacity="1"/></g><g class="mark-text role-axis-title" pointer-events="none"><text text-anchor="middle" transform="translate(-41.5859375,100) rotate(-90) translate(0,-2)" font-family="sans-serif" font-size="11px" font-weight="bold" fill="#000" opacity="1">Count</text></g></g><path class="foreground" aria-hidden="true" d="" pointer-events="none" display="none"/></g></g><g class="mark-rect role-mark marks" role="graphics-symbol" aria-roledescription="rect mark container"><path d="M470.40816326530614,199.92857142857144h18.367346938775512v0.07142857142855519h-18.367346938775512Z" fill="#4c78a8"/><path d="M143.87755102040822,195.25714285714287h18.367346938775512v4.742857142857133h-18.367346938775512Z" fill="#4c78a8"/><path d="M307.14285714285717,198.94285714285712h18.367346938775512v1.0571428571428783h-18.367346938775512Z" fill="#4c78a8"/><path d="M347.95918367346945,199.15714285714284h18.367346938775512v0.8428571428571558h-18.367346938775512Z" fill="#4c78a8"/><path d="M327.5510204081633,199.14285714285714h18.367346938775512v0.8571428571428612h-18.367346938775512Z" fill="#4c78a8"/><path d="M633.6734693877552,199.9714285714286h18.367346938775512v0.028571428571410706h-18.367346938775512Z" fill="#4c78a8"/><path d="M21.42857142857148,174.4857142857143h18.367346938775512v25.514285714285705h-18.367346938775512Z" fill="#4c78a8"/><path d="M1.0204081632653583,6.3857142857142835h18.367346938775512v193.61428571428573h-18.367346938775512Z" fill="#4c78a8"/><path d="M62.244897959183724,192.85714285714286h18.367346938775512v7.142857142857139h-18.367346938775512Z" fill="#4c78a8"/><path d="M225.5102040816327,198.37142857142857h18.367346938775512v1.6285714285714334h-18.367346938775512Z" fill="#4c78a8"/><path d="M490.8163265306123,199.94285714285712h18.367346938775512v0.057142857142878256h-18.367346938775512Z" fill="#4c78a8"/><path d="M205.10204081632656,198.3h18.367346938775512v1.6999999999999886h-18.367346938775512Z" fill="#4c78a8"/><path d="M511.22448979591843,199.94285714285712h18.367346938775512v0.057142857142878256h-18.367346938775512Z" fill="#4c78a8"/><path d="M654.0816326530612,199.9714285714286h18.367346938775512v0.028571428571410706h-18.367346938775512Z" fill="#4c78a8"/><path d="M674.4897959183675,199.9714285714286h18.367346938775512v0.028571428571410706h-18.367346938775512Z" fill="#4c78a8"/><path d="M694.8979591836735,199.9714285714286h18.367346938775512v0.028571428571410706h-18.367346938775512Z" fill="#4c78a8"/><path d="M572.4489795918369,199.95714285714286h18.367346938775512v0.04285714285714448h-18.367346938775512Z" fill="#4c78a8"/><path d="M715.3061224489795,199.9714285714286h18.367346938775512v0.028571428571410706h-18.367346938775512Z" fill="#4c78a8"/><path d="M735.7142857142858,199.9714285714286h18.367346938775512v0.028571428571410706h-18.367346938775512Z" fill="#4c78a8"/><path d="M756.1224489795918,199.9714285714286h18.367346938775512v0.028571428571410706h-18.367346938775512Z" fill="#4c78a8"/><path d="M776.5306122448981,199.9714285714286h18.367346938775512v0.028571428571410706h-18.367346938775512Z" fill="#4c78a8"/><path d="M796.9387755102041,199.9714285714286h18.367346938775512v0.028571428571410706h-18.367346938775512Z" fill="#4c78a8"/><path d="M817.3469387755101,199.9714285714286h18.367346938775512v0.028571428571410706h-18.367346938775512Z" fill="#4c78a8"/><path d="M368.36734693877554,199.22857142857143h18.367346938775512v0.7714285714285722h-18.367346938775512Z" fill="#4c78a8"/><path d="M388.7755102040817,199.64285714285714h18.367346938775512v0.3571428571428612h-18.367346938775512Z" fill="#4c78a8"/><path d="M592.8571428571429,199.95714285714286h18.367346938775512v0.04285714285714448h-18.367346938775512Z" fill="#4c78a8"/><path d="M837.7551020408164,199.9714285714286h18.367346938775512v0.028571428571410706h-18.367346938775512Z" fill="#4c78a8"/><path d="M245.91836734693882,198.5142857142857h18.367346938775512v1.4857142857142946h-18.367346938775512Z" fill="#4c78a8"/><path d="M429.5918367346939,199.74285714285713h18.367346938775512v0.2571428571428669h-18.367346938775512Z" fill="#4c78a8"/><path d="M41.8367346938776,192.54285714285714h18.367346938775512v7.4571428571428555h-18.367346938775512Z" fill="#4c78a8"/><path d="M103.06122448979596,194.37142857142857h18.367346938775512v5.628571428571433h-18.367346938775512Z" fill="#4c78a8"/><path d="M82.65306122448985,193h18.367346938775512v7h-18.367346938775512Z" fill="#4c78a8"/><path d="M409.18367346938777,199.64285714285714h18.367346938775512v0.3571428571428612h-18.367346938775512Z" fill="#4c78a8"/><path d="M613.2653061224489,199.95714285714286h18.367346938775512v0.04285714285714448h-18.367346938775512Z" fill="#4c78a8"/><path d="M450.00000000000006,199.82857142857142h18.367346938775512v0.17142857142857792h-18.367346938775512Z" fill="#4c78a8"/><path d="M123.46938775510209,195.12857142857143h18.367346938775512v4.871428571428567h-18.367346938775512Z" fill="#4c78a8"/><path d="M266.32653061224494,198.64285714285714h18.367346938775512v1.3571428571428612h-18.367346938775512Z" fill="#4c78a8"/><path d="M858.1632653061224,199.9714285714286h18.367346938775512v0.028571428571410706h-18.367346938775512Z" fill="#4c78a8"/><path d="M878.5714285714287,199.9714285714286h18.367346938775512v0.028571428571410706h-18.367346938775512Z" fill="#4c78a8"/><path d="M898.9795918367347,199.9714285714286h18.367346938775512v0.028571428571410706h-18.367346938775512Z" fill="#4c78a8"/><path d="M286.7346938775511,198.92857142857144h18.367346938775512v1.0714285714285552h-18.367346938775512Z" fill="#4c78a8"/><path d="M184.69387755102045,198.14285714285714h18.367346938775512v1.8571428571428612h-18.367346938775512Z" fill="#4c78a8"/><path d="M531.6326530612246,199.94285714285712h18.367346938775512v0.057142857142878256h-18.367346938775512Z" fill="#4c78a8"/><path d="M164.28571428571433,196.28571428571428h18.367346938775512v3.7142857142857224h-18.367346938775512Z" fill="#4c78a8"/><path d="M552.0408163265306,199.94285714285712h18.367346938775512v0.057142857142878256h-18.367346938775512Z" fill="#4c78a8"/><path d="M919.387755102041,199.9714285714286h18.367346938775512v0.028571428571410706h-18.367346938775512Z" fill="#4c78a8"/><path d="M939.795918367347,199.9714285714286h18.367346938775512v0.028571428571410706h-18.367346938775512Z" fill="#4c78a8"/><path d="M960.204081632653,199.9714285714286h18.367346938775512v0.028571428571410706h-18.367346938775512Z" fill="#4c78a8"/><path d="M980.6122448979593,199.9714285714286h18.367346938775512v0.028571428571410706h-18.367346938775512Z" fill="#4c78a8"/></g><g class="mark-group role-title"><g transform="translate(500,-22)"><path class="background" aria-hidden="true" d="M0,0h0v0h0Z" pointer-events="none"/><g><g class="mark-text role-title-text" role="graphics-symbol" aria-roledescription="title" aria-label="Title text 'Cardinalities of Categorical Features'" pointer-events="none"><text text-anchor="middle" transform="translate(0,10)" font-family="sans-serif" font-size="13px" font-weight="bold" fill="#000" opacity="1">Cardinalities of Categorical Features</text></g></g><path class="foreground" aria-hidden="true" d="" pointer-events="none" display="none"/></g></g></g><path class="foreground" aria-hidden="true" d="" display="none"/></g></g></g></svg>